<svg width="22" height="22" viewBox="0 0 22 22" fill="none" xmlns="http://www.w3.org/2000/svg">
<path d="M8.81348 17.138C8.64248 17.138 8.47148 17.075 8.33648 16.94L2.87348 11.477C2.61248 11.216 2.61248 10.784 2.87348 10.523L8.33648 5.06001C8.59748 4.79901 9.02948 4.79901 9.29048 5.06001C9.55148 5.32101 9.55148 5.75301 9.29048 6.01401L4.30448 11L9.29048 15.986C9.55148 16.247 9.55148 16.679 9.29048 16.94C9.16448 17.075 8.98448 17.138 8.81348 17.138Z" fill="#E7AC2D"/>
<path d="M18.6482 11.6752H3.50117C3.13217 11.6752 2.82617 11.3692 2.82617 11.0002C2.82617 10.6312 3.13217 10.3252 3.50117 10.3252H18.6482C19.0172 10.3252 19.3232 10.6312 19.3232 11.0002C19.3232 11.3692 19.0172 11.6752 18.6482 11.6752Z" fill="#E7AC2D"/>
</svg>
