<svg width="28" height="28" viewBox="0 0 28 28" fill="none" xmlns="http://www.w3.org/2000/svg">
<path d="M24.2539 18.6129C24.5671 18.6129 24.8219 18.3585 24.8219 18.0459V17.0608H25.5672C25.8834 17.0608 26.1406 16.8033 26.1406 16.487V15.185C26.1406 14.8686 25.8833 14.6112 25.5672 14.6112H24.5423V10.6995C24.6427 10.7245 24.7455 10.7377 24.8492 10.7377C24.9618 10.7377 25.0752 10.7228 25.1871 10.6927C25.5202 10.6032 25.7977 10.3899 25.9678 10.0934C26.1396 9.79634 26.1851 9.44909 26.096 9.11561C26.0067 8.78193 25.7938 8.50359 25.4963 8.33186L14.6909 2.0901C14.4931 1.97494 14.2541 1.91406 13.9999 1.91406C13.7457 1.91406 13.5067 1.97494 13.3099 2.08954L2.50313 8.33201C1.88789 8.68831 1.67657 9.47823 2.03182 10.0929C2.2035 10.3906 2.48141 10.6037 2.81447 10.693C3.02911 10.7505 3.24954 10.7517 3.45887 10.6995V14.6112H2.43398C2.11776 14.6112 1.86053 14.8686 1.86053 15.1849V16.4869C1.86053 16.8033 2.11781 17.0607 2.43398 17.0607H3.17921V18.0458C3.17921 18.3585 3.43345 18.6129 3.74593 18.6129H4.17399V22.0842H3.74593C3.43345 22.0842 3.17921 22.3391 3.17921 22.6525V23.6363H2.43398C2.11776 23.6363 1.86053 23.8937 1.86053 24.2101V25.5121C1.86053 25.8285 2.11781 26.0859 2.43398 26.0859H13.2579C13.4543 26.0859 13.6136 25.9265 13.6136 25.73C13.6136 25.5335 13.4544 25.3741 13.2579 25.3741H2.57185V24.3481H25.4293V25.3741H14.8992C14.7028 25.3741 14.5435 25.5335 14.5435 25.73C14.5435 25.9265 14.7027 26.0859 14.8992 26.0859H25.5672C25.8834 26.0859 26.1406 25.8285 26.1406 25.5121V24.2101C26.1406 23.8937 25.8833 23.6363 25.5672 23.6363H24.8219V22.6525C24.8219 22.3391 24.5671 22.0842 24.2539 22.0842H23.8259V18.6129H24.2539V18.6129ZM3.43649 9.94851C3.30342 10.0253 3.14796 10.0455 2.99848 10.0055C2.84914 9.9654 2.7246 9.87017 2.64796 9.73721C2.64787 9.73707 2.64782 9.73697 2.64773 9.73683C2.48857 9.46167 2.58356 9.10778 2.85914 8.9482L13.6666 2.70535C13.7534 2.65482 13.8749 2.62582 13.9999 2.62582C14.1268 2.62582 14.2451 2.65406 14.3343 2.70592L25.1408 8.9483C25.2736 9.02498 25.3688 9.14972 25.4089 9.29957C25.4489 9.44923 25.4287 9.60454 25.3515 9.73802C25.2756 9.87036 25.1517 9.96531 25.0025 10.0055C24.853 10.0456 24.6976 10.0256 24.5649 9.94865L14.1778 3.94837C14.1227 3.91658 14.0613 3.90068 13.9999 3.90068C13.9385 3.90068 13.8771 3.91658 13.8221 3.94837L3.43649 9.94851ZM2.57185 15.323H13.2579C13.4543 15.323 13.6136 15.1636 13.6136 14.9671C13.6136 14.7705 13.4544 14.6112 13.2579 14.6112H4.17019V10.3465L13.9999 4.66748L23.831 10.3465V14.6112H14.8401C14.6437 14.6112 14.4844 14.7705 14.4844 14.9671C14.4844 15.1636 14.6436 15.323 14.8401 15.323H25.4293V16.349H2.57185V15.323ZM11.7948 17.9012V17.0608H16.2051V17.9012H11.7948ZM15.209 18.6129V22.0842H12.7909V18.6129H15.209ZM3.89058 17.9012V17.0608H8.29949V17.9012H3.89058ZM7.30476 18.6129V22.0842H4.88535V18.6129H7.30476ZM8.29949 23.6364H3.89058V22.796H8.29949V23.6364ZM11.0834 22.6526V23.6364H9.01081V22.6526C9.01081 22.3392 8.75661 22.0842 8.44409 22.0842H8.01608V18.6129H8.44409C8.75661 18.6129 9.01081 18.3585 9.01081 18.0459V17.0608H11.0834V18.0459C11.0834 18.3586 11.3383 18.6129 11.6515 18.6129H12.0795V22.0842H11.6515C11.3383 22.0842 11.0834 22.3392 11.0834 22.6526ZM16.2051 23.6364H11.7948V22.796H16.2051V23.6364ZM18.989 22.6526V23.6364H16.9164V22.6526C16.9164 22.3392 16.6615 22.0842 16.3483 22.0842H15.9203V18.6129H16.3483C16.6615 18.6129 16.9164 18.3585 16.9164 18.0459V17.0608H18.989V18.0459C18.989 18.3586 19.2438 18.6129 19.5571 18.6129H19.9851V22.0842H19.5571C19.2438 22.0842 18.989 22.3392 18.989 22.6526ZM24.1106 22.796V23.6364H19.7003V22.796H24.1106ZM20.6964 22.0842V18.6129H23.1145V22.0842H20.6964ZM19.7003 17.9012V17.0608H24.1106V17.9012H19.7003Z" fill="#E7AC2D"/>
<path d="M15.5451 7.49903C15.5451 6.67462 14.8748 6.00391 14.0509 6.00391C13.2269 6.00391 12.5566 6.67462 12.5566 7.49903C12.5566 8.32344 13.2269 8.99415 14.0509 8.99415C14.8748 8.99415 15.5451 8.32344 15.5451 7.49903ZM13.268 7.49903C13.268 7.06709 13.6192 6.71567 14.0509 6.71567C14.4825 6.71567 14.8338 7.06709 14.8338 7.49903C14.8338 7.93097 14.4825 8.28239 14.0509 8.28239C13.6192 8.28239 13.268 7.93097 13.268 7.49903Z" fill="#E7AC2D"/>
<path d="M9.70914 11.5923C9.80674 11.4388 9.86412 11.2572 9.86412 11.0621C9.86412 10.5153 9.41942 10.0703 8.87285 10.0703H8.07053C7.87405 10.0703 7.71484 10.2297 7.71484 10.4262V11.6988V11.7008V13.1899C7.71484 13.2845 7.75255 13.3753 7.8196 13.4421C7.88624 13.5085 7.97648 13.5457 8.07053 13.5457H8.07209C8.07209 13.5457 8.80969 13.5425 9.01299 13.5425C9.61903 13.5425 10.1122 13.0491 10.1122 12.4427C10.1121 12.1004 9.95499 11.7942 9.70914 11.5923ZM8.87285 10.7821C9.02722 10.7821 9.15275 10.9077 9.15275 11.0622C9.15275 11.2166 9.02722 11.3422 8.87285 11.3422C8.81419 11.3422 8.42621 11.343 8.42621 11.343V10.7822L8.87285 10.7821ZM9.01299 12.8308C8.90477 12.8308 8.64564 12.8317 8.42621 12.8326V12.0553C8.47861 12.0551 9.01299 12.0547 9.01299 12.0547C9.22683 12.0547 9.40078 12.2287 9.40078 12.4428C9.40074 12.6567 9.22678 12.8308 9.01299 12.8308Z" fill="#E7AC2D"/>
<path d="M12.5817 10.3394C12.5806 10.3362 12.5793 10.333 12.578 10.3298C12.5133 10.1721 12.3615 10.0703 12.1912 10.0703C12.1911 10.0703 12.1909 10.0703 12.1909 10.0703C12.0204 10.0704 11.8686 10.1725 11.804 10.3303C11.8029 10.333 11.8018 10.3357 11.8008 10.3384L10.7636 13.0632C10.6937 13.2469 10.7859 13.4525 10.9695 13.5224C11.1528 13.5924 11.3585 13.5002 11.4284 13.3165L11.5995 12.8671H12.775L12.9441 13.3155C12.9978 13.458 13.1331 13.5458 13.2769 13.5458C13.3186 13.5458 13.3611 13.5384 13.4024 13.5228C13.5862 13.4534 13.679 13.2481 13.6096 13.0642L12.5817 10.3394ZM11.8704 12.1554L12.1899 11.3161L12.5064 12.1554H11.8704Z" fill="#E7AC2D"/>
<path d="M16.6367 10.0703C16.6355 10.0703 16.6343 10.0703 16.6331 10.0703C16.4367 10.0722 16.279 10.2331 16.2809 10.4296L16.2969 12.0798L15.0195 10.2291C14.9311 10.101 14.7697 10.0453 14.6209 10.0916C14.4723 10.138 14.3711 10.2756 14.3711 10.4314V13.1899C14.3711 13.3865 14.5303 13.5458 14.7268 13.5458C14.9233 13.5458 15.0825 13.3865 15.0825 13.1899V11.573L16.2983 13.3346C16.4023 13.4851 16.5762 13.5491 16.7411 13.4975C16.9093 13.445 17.018 13.2877 17.018 13.0933L16.9922 10.4228C16.9903 10.2274 16.8315 10.0703 16.6367 10.0703Z" fill="#E7AC2D"/>
<path d="M20.2571 12.9332L19.0147 11.7339L20.1516 10.6884C20.2962 10.5554 20.3057 10.3303 20.1727 10.1855C20.0399 10.0409 19.8148 10.0313 19.6702 10.1644L18.7621 10.9995V10.391C18.7621 10.1945 18.6029 10.0352 18.4065 10.0352C18.21 10.0352 18.0508 10.1945 18.0508 10.391V13.1893C18.0508 13.3858 18.21 13.5452 18.4065 13.5452C18.6029 13.5452 18.7621 13.3858 18.7621 13.1893V12.4791L19.7632 13.4454C19.8322 13.5121 19.9212 13.5452 20.0101 13.5452C20.1033 13.5452 20.1964 13.5088 20.2661 13.4365C20.4026 13.295 20.3985 13.0697 20.2571 12.9332Z" fill="#E7AC2D"/>
</svg>
