<svg width="28" height="28" viewBox="0 0 28 28" fill="none" xmlns="http://www.w3.org/2000/svg">
<path d="M25.198 14.2634L20.1771 12.5898V4.80339C20.1771 4.50802 19.9881 4.24577 19.7078 4.15235L14.2177 2.32228C14.0768 2.27534 13.9245 2.27543 13.7836 2.32228L8.29341 4.15235C8.01318 4.24573 7.82418 4.50797 7.82418 4.80339V12.5898L2.80321 14.2634C2.52298 14.3568 2.33398 14.6191 2.33398 14.9145V23.1955C2.33398 23.4909 2.52298 23.7532 2.80321 23.8466L8.29341 25.6767C8.36387 25.7001 8.43716 25.7119 8.51046 25.7119C8.58375 25.7119 8.65704 25.7001 8.7275 25.6767L14.0007 23.9189L19.2738 25.6767C19.3443 25.7001 19.4176 25.7119 19.4908 25.7119C19.5641 25.7119 19.6374 25.7001 19.7078 25.6767L25.198 23.8466C25.4783 23.7532 25.6673 23.4909 25.6673 23.1955V14.9145C25.6673 14.6191 25.4783 14.3568 25.198 14.2634ZM19.4908 16.0211L16.1708 14.9145L19.4908 13.8078L22.8108 14.9145L19.4908 16.0211ZM8.51046 13.8078L11.8304 14.9145L8.51046 16.0211L5.19044 14.9145L8.51046 13.8078ZM13.3144 7.12808V13.9623L9.19673 12.5898V5.75553L13.3144 7.12808ZM18.8046 12.5898L14.6869 13.9623V7.12808L18.8046 5.75553V12.5898ZM9.19673 17.2392L13.3144 15.8666V22.7009L9.19673 24.0734V17.2392ZM14.0007 3.69671L17.3206 4.80339L14.0007 5.91003L10.6806 4.80339L14.0007 3.69671ZM3.70653 15.8666L7.82418 17.2392V24.0734L3.70653 22.7009V15.8666ZM14.6869 15.8666L18.8046 17.2392V24.0734L14.6869 22.7009V15.8666ZM20.1771 24.0734V17.2392L24.2948 15.8666V22.7009L20.1771 24.0734Z" fill="#E7AC2D"/>
</svg>
