
.<svg width="36" height="36" viewBox="0 0 36 36" fill="none" xmlns="http://www.w3.org/2000/svg">
<circle cx="18" cy="18" r="18" fill="#F5EDDB"/>
<path d="M15.8135 24.138C15.6425 24.138 15.4715 24.075 15.3365 23.94L9.87348 18.477C9.61248 18.216 9.61248 17.784 9.87348 17.523L15.3365 12.06C15.5975 11.799 16.0295 11.799 16.2905 12.06C16.5515 12.321 16.5515 12.753 16.2905 13.014L11.3045 18L16.2905 22.986C16.5515 23.247 16.5515 23.679 16.2905 23.94C16.1645 24.075 15.9845 24.138 15.8135 24.138Z" fill="#E7AC2D"/>
<path d="M25.6482 18.6752H10.5012C10.1322 18.6752 9.82617 18.3692 9.82617 18.0002C9.82617 17.6312 10.1322 17.3252 10.5012 17.3252H25.6482C26.0172 17.3252 26.3232 17.6312 26.3232 18.0002C26.3232 18.3692 26.0172 18.6752 25.6482 18.6752Z" fill="#E7AC2D"/>
</svg>
