<svg width="50" height="50" viewBox="0 0 50 50" fill="none" xmlns="http://www.w3.org/2000/svg">
<rect width="50" height="50" rx="25" fill="#303030" fill-opacity="0.2"/>
<path d="M31.0002 19C30.3902 19 29.8302 18.65 29.5502 18.11L28.8302 16.66C28.3702 15.75 27.1702 15 26.1502 15H23.8602C22.8302 15 21.6302 15.75 21.1702 16.66L20.4502 18.11C20.1702 18.65 19.6102 19 19.0002 19C16.8302 19 15.1102 20.83 15.2502 22.99L15.7702 31.25C15.8902 33.31 17.0002 35 19.7602 35H30.2402C33.0002 35 34.1002 33.31 34.2302 31.25L34.7502 22.99C34.8902 20.83 33.1702 19 31.0002 19ZM23.5002 20.25H26.5002C26.9102 20.25 27.2502 20.59 27.2502 21C27.2502 21.41 26.9102 21.75 26.5002 21.75H23.5002C23.0902 21.75 22.7502 21.41 22.7502 21C22.7502 20.59 23.0902 20.25 23.5002 20.25ZM25.0002 31.12C23.1402 31.12 21.6202 29.61 21.6202 27.74C21.6202 25.87 23.1302 24.36 25.0002 24.36C26.8702 24.36 28.3802 25.87 28.3802 27.74C28.3802 29.61 26.8602 31.12 25.0002 31.12Z" fill="#E7AC2D"/>
</svg>
