<svg width="28" height="28" viewBox="0 0 28 28" fill="none" xmlns="http://www.w3.org/2000/svg">
<g clip-path="url(#clip0_930_2202)">
<path d="M20.5195 18.3142C20.2756 18.0695 19.9858 17.8753 19.6668 17.7428C19.3477 17.6103 19.0056 17.5421 18.6601 17.5421C18.3146 17.5421 17.9726 17.6103 17.6535 17.7428C17.3344 17.8753 17.0446 18.0695 16.8008 18.3142L15.532 19.5829C14.1035 18.6763 12.78 17.614 11.5858 16.4154C10.3897 15.2189 9.32764 13.8957 8.41825 12.4692L9.687 11.2004C9.93172 10.9566 10.1259 10.6668 10.2584 10.3477C10.3909 10.0286 10.4591 9.68654 10.4591 9.34106C10.4591 8.99557 10.3909 8.65348 10.2584 8.33441C10.1259 8.01533 9.93172 7.72555 9.687 7.48168L7.21075 5.01418C6.97032 4.76865 6.68299 4.57396 6.36583 4.44168C6.04866 4.30941 5.70814 4.24224 5.3645 4.24418C5.01842 4.24333 4.67559 4.31093 4.35574 4.44307C4.03588 4.57522 3.74531 4.76931 3.50075 5.01418L2.31075 6.19543C1.74355 6.80528 1.32023 7.53448 1.0719 8.32944C0.823566 9.12441 0.756543 9.96491 0.875753 10.7892C1.15575 14.0704 3.30825 18.0167 6.6245 21.3417C9.94075 24.6667 13.9308 26.8104 17.212 27.1254C17.4568 27.1385 17.7022 27.1385 17.947 27.1254C18.6533 27.1551 19.3585 27.0434 20.0211 26.797C20.6837 26.5506 21.2904 26.1744 21.8058 25.6904L22.987 24.5004C23.2319 24.2559 23.426 23.9653 23.5581 23.6454C23.6903 23.3256 23.7579 22.9828 23.757 22.6367C23.7589 22.293 23.6918 21.9525 23.5595 21.6354C23.4272 21.3182 23.2325 21.0309 22.987 20.7904L20.5195 18.3142ZM21.7533 23.2667L20.5633 24.4479C20.1233 24.8146 19.6096 25.0825 19.0571 25.2335C18.5046 25.3844 17.9261 25.415 17.3608 25.3229C14.517 25.0779 10.8945 23.0654 7.902 20.0729C4.9095 17.0804 2.897 13.4842 2.62575 10.6404C2.53139 10.0751 2.56076 9.49604 2.71182 8.94316C2.86288 8.39028 3.13204 7.87673 3.50075 7.43793L4.7345 6.24793C4.81626 6.16684 4.91323 6.10268 5.01983 6.05913C5.12644 6.01559 5.2406 5.99352 5.35575 5.99418C5.47091 5.99352 5.58506 6.01559 5.69167 6.05913C5.79828 6.10268 5.89524 6.16684 5.977 6.24793L8.45325 8.75043C8.61622 8.91437 8.7077 9.13614 8.7077 9.36731C8.7077 9.59847 8.61622 9.82024 8.45325 9.98418L6.70325 11.7342C6.56631 11.8704 6.47832 12.0482 6.45299 12.2397C6.42767 12.4312 6.46644 12.6258 6.56325 12.7929C7.61097 14.5766 8.88439 16.2176 10.352 17.6754C11.8098 19.143 13.4509 20.4165 15.2345 21.4642C15.4017 21.561 15.5962 21.5998 15.7877 21.5744C15.9792 21.5491 16.157 21.4611 16.2933 21.3242L18.0433 19.5742C18.2072 19.4112 18.429 19.3197 18.6601 19.3197C18.8913 19.3197 19.1131 19.4112 19.277 19.5742L21.7533 22.0504C21.8343 22.1322 21.8985 22.2292 21.9421 22.3358C21.9856 22.4424 22.0077 22.5565 22.007 22.6717C22.0015 22.8951 21.9107 23.108 21.7533 23.2667Z" fill="#E7AC2D"/>
<path d="M23.275 4.71628C22.059 3.49563 20.6134 2.52776 19.0215 1.86849C17.4296 1.20921 15.723 0.871569 14 0.875026C13.7679 0.875026 13.5454 0.967213 13.3813 1.13131C13.2172 1.2954 13.125 1.51796 13.125 1.75003C13.125 1.98209 13.2172 2.20465 13.3813 2.36874C13.5454 2.53284 13.7679 2.62503 14 2.62503C15.5019 2.62497 16.989 2.92235 18.3754 3.50001C19.7618 4.07767 21.02 4.92416 22.0776 5.99064C23.1351 7.05713 23.971 8.32248 24.5369 9.71369C25.1029 11.1049 25.3877 12.5944 25.375 14.0963C25.375 14.3283 25.4672 14.5509 25.6313 14.715C25.7954 14.8791 26.0179 14.9713 26.25 14.9713C26.4821 14.9713 26.7046 14.8791 26.8687 14.715C27.0328 14.5509 27.125 14.3283 27.125 14.0963C27.1418 12.355 26.8097 10.6279 26.1485 9.01696C25.4873 7.40599 24.5103 5.94369 23.275 4.71628Z" fill="#E7AC2D"/>
<path d="M18.297 9.72152C18.7935 10.2151 19.1864 10.803 19.4523 11.4507C19.7183 12.0983 19.8521 12.7927 19.8457 13.4928C19.8457 13.7248 19.9379 13.9474 20.102 14.1115C20.2661 14.2756 20.4886 14.3678 20.7207 14.3678C20.9528 14.3678 21.1753 14.2756 21.3394 14.1115C21.5035 13.9474 21.5957 13.7248 21.5957 13.4928C21.6073 12.5662 21.4348 11.6465 21.0882 10.7871C20.7416 9.92771 20.2278 9.14567 19.5766 8.48636C18.9255 7.82706 18.1499 7.3036 17.2949 6.94636C16.4398 6.58912 15.5224 6.4052 14.5957 6.40527C14.3636 6.40527 14.1411 6.49746 13.977 6.66155C13.8129 6.82565 13.7207 7.04821 13.7207 7.28027C13.7207 7.51234 13.8129 7.7349 13.977 7.89899C14.1411 8.06309 14.3636 8.15527 14.5957 8.15527C15.2853 8.16047 15.9671 8.30146 16.6021 8.5702C17.2372 8.83895 17.8131 9.23017 18.297 9.72152Z" fill="#E7AC2D"/>
</g>
<defs>
<clipPath id="clip0_930_2202">
<rect width="28" height="28" fill="white"/>
</clipPath>
</defs>
</svg>
