<svg width="20" height="20" viewBox="0 0 20 20" fill="none" xmlns="http://www.w3.org/2000/svg">
<path d="M4.91395 7.42939C4.87478 7.01703 4.50873 6.71451 4.09638 6.75369C3.68402 6.79287 3.3815 7.15891 3.42068 7.57127L4.91395 7.42939ZM16.5806 7.57127C16.6198 7.15891 16.3173 6.79287 15.9049 6.75369C15.4926 6.71451 15.1265 7.01703 15.0873 7.42938L16.5806 7.57127ZM16.6673 6.58366C17.0815 6.58366 17.4173 6.24787 17.4173 5.83366C17.4173 5.41945 17.0815 5.08366 16.6673 5.08366V6.58366ZM3.33398 5.08366C2.91977 5.08366 2.58398 5.41945 2.58398 5.83366C2.58398 6.24787 2.91977 6.58366 3.33398 6.58366V5.08366ZM7.58398 15.0003C7.58398 15.4145 7.91977 15.7503 8.33398 15.7503C8.7482 15.7503 9.08398 15.4145 9.08398 15.0003H7.58398ZM9.08398 8.33366C9.08398 7.91945 8.7482 7.58366 8.33398 7.58366C7.91977 7.58366 7.58398 7.91945 7.58398 8.33366H9.08398ZM10.9173 15.0003C10.9173 15.4145 11.2531 15.7503 11.6673 15.7503C12.0815 15.7503 12.4173 15.4145 12.4173 15.0003H10.9173ZM12.4173 8.33366C12.4173 7.91945 12.0815 7.58366 11.6673 7.58366C11.2531 7.58366 10.9173 7.91945 10.9173 8.33366H12.4173ZM13.334 5.83366V6.58366H14.084V5.83366H13.334ZM6.66732 5.83366H5.91732V6.58366H6.66732V5.83366ZM14.6888 10.5465L14.4702 12.1174L15.9559 12.3241L16.1745 10.7533L14.6888 10.5465ZM5.53111 12.1174L5.31249 10.5465L3.82681 10.7533L4.04542 12.3241L5.53111 12.1174ZM10.0006 17.5837C8.71512 17.5837 8.29154 17.5695 7.94528 17.4234L7.3621 18.8053C8.05525 19.0978 8.84986 19.0837 10.0006 19.0837V17.5837ZM4.04542 12.3241C4.27761 13.9925 4.40591 14.9457 4.69256 15.7259L6.10054 15.2086C5.88341 14.6176 5.77411 13.8635 5.53111 12.1174L4.04542 12.3241ZM7.94528 17.4234C7.21721 17.1161 6.52222 16.3563 6.10054 15.2086L4.69256 15.7259C5.21297 17.1423 6.14647 18.2924 7.3621 18.8053L7.94528 17.4234ZM14.4702 12.1174C14.2272 13.8635 14.1179 14.6176 13.9007 15.2086L15.3087 15.7259C15.5954 14.9457 15.7237 13.9925 15.9559 12.3241L14.4702 12.1174ZM10.0006 19.0837C11.1514 19.0837 11.946 19.0978 12.6392 18.8053L12.056 17.4234C11.7098 17.5695 11.2862 17.5837 10.0006 17.5837V19.0837ZM13.9007 15.2086C13.479 16.3563 12.7841 17.1161 12.056 17.4234L12.6392 18.8053C13.8548 18.2924 14.7883 17.1423 15.3087 15.7259L13.9007 15.2086ZM5.31249 10.5465C5.12724 9.21539 4.98949 8.22435 4.91395 7.42939L3.42068 7.57127C3.50002 8.40629 3.64334 9.43491 3.82681 10.7533L5.31249 10.5465ZM16.1745 10.7533C16.358 9.43491 16.5013 8.40629 16.5806 7.57127L15.0873 7.42938C15.0118 8.22435 14.874 9.21539 14.6888 10.5465L16.1745 10.7533ZM16.6673 5.08366H3.33398V6.58366H16.6673V5.08366ZM9.08398 15.0003V8.33366H7.58398V15.0003H9.08398ZM12.4173 15.0003V8.33366H10.9173V15.0003H12.4173ZM12.584 5.00033V5.83366H14.084V5.00033H12.584ZM13.334 5.08366H6.66732V6.58366H13.334V5.08366ZM7.41732 5.83366V5.00033H5.91732V5.83366H7.41732ZM10.0006 2.41699C11.4274 2.41699 12.584 3.57359 12.584 5.00033H14.084C14.084 2.74516 12.2558 0.916992 10.0006 0.916992V2.41699ZM10.0006 0.916992C7.74549 0.916992 5.91732 2.74516 5.91732 5.00033H7.41732C7.41732 3.57359 8.57392 2.41699 10.0006 2.41699V0.916992Z" fill="#212121"/>
</svg>
