<svg width="512" height="512" viewBox="0 0 512 512" fill="none" xmlns="http://www.w3.org/2000/svg">
<g clip-path="url(#clip0_6038_121)">
<path d="M256 0C114.62 0 0 114.62 0 256C0 397.38 114.62 512 256 512C397.38 512 512 397.38 512 256C512 114.62 397.38 0 256 0ZM181 235.31L181.24 235.08C182.878 233.441 184.823 232.142 186.963 231.255C189.104 230.368 191.398 229.912 193.715 229.912C196.032 229.912 198.326 230.368 200.467 231.255C202.607 232.142 204.552 233.441 206.19 235.08L238.33 267.22V138.22C238.33 135.901 238.787 133.605 239.676 131.463C240.564 129.32 241.866 127.374 243.507 125.736C245.148 124.098 247.097 122.799 249.24 121.914C251.384 121.029 253.681 120.576 256 120.58C260.678 120.58 265.165 122.438 268.473 125.747C271.781 129.055 273.64 133.542 273.64 138.22V267.22L305.78 235.08C307.419 233.434 309.367 232.128 311.512 231.237C313.657 230.345 315.957 229.887 318.28 229.887C320.603 229.887 322.903 230.345 325.048 231.237C327.193 232.128 329.141 233.434 330.78 235.08L331.02 235.31C332.659 236.948 333.958 238.893 334.845 241.033C335.732 243.174 336.188 245.468 336.188 247.785C336.188 250.102 335.732 252.396 334.845 254.537C333.958 256.677 332.659 258.622 331.02 260.26L268.52 322.75C266.883 324.388 264.939 325.688 262.799 326.574C260.659 327.461 258.366 327.917 256.05 327.917C253.734 327.917 251.441 327.461 249.301 326.574C247.161 325.688 245.217 324.388 243.58 322.75L181 260.26C177.696 256.949 175.84 252.463 175.84 247.785C175.84 243.107 177.696 238.621 181 235.31ZM394 361.31C393.839 369.24 390.617 376.8 385.009 382.409C379.4 388.017 371.84 391.239 363.91 391.4H148.09C140.163 391.239 132.606 388.02 126.998 382.416C121.39 376.812 118.166 369.256 118 361.33V314.43C118 309.752 119.858 305.265 123.167 301.957C126.475 298.648 130.962 296.79 135.64 296.79C140.318 296.79 144.805 298.648 148.113 301.957C151.421 305.265 153.28 309.752 153.28 314.43V356.14H358.72V314.43C358.72 309.752 360.578 305.265 363.887 301.957C367.195 298.648 371.682 296.79 376.36 296.79C381.038 296.79 385.525 298.648 388.833 301.957C392.142 305.265 394 309.752 394 314.43V361.31Z" fill="#E7AC2D"/>
</g>
<defs>
<clipPath id="clip0_6038_121">
<rect width="512" height="512" fill="white"/>
</clipPath>
</defs>
</svg>
