<svg width="230" height="240" viewBox="0 0 230 240" fill="none" xmlns="http://www.w3.org/2000/svg">
<path d="M113.421 1.03051L109.988 3.3508C109.146 3.91996 108.922 5.06776 109.488 5.91449L111.796 9.36637C112.362 10.2131 113.504 10.4381 114.346 9.86897L117.779 7.54868C118.621 6.97952 118.845 5.83172 118.279 4.98498L115.971 1.53311C115.405 0.686374 114.263 0.461354 113.421 1.03051Z" fill="#F5F5F5"/>
<path d="M12.4873 56.1849L9.05448 58.5055C8.21241 59.0747 7.98866 60.2226 8.55472 61.0694L10.8624 64.5214C11.4284 65.3682 12.5699 65.5932 13.412 65.024L16.8448 62.7034C17.6869 62.1342 17.9107 60.9863 17.3446 60.1395L15.037 56.6874C14.4709 55.8407 13.3294 55.6157 12.4873 56.1849Z" fill="#F5F5F5"/>
<path d="M176.175 39.656L177.726 41.2601C177.811 41.3466 177.915 41.4114 178.03 41.4489C178.145 41.4865 178.267 41.4957 178.386 41.4758L180.587 41.0997C180.726 41.0744 180.87 41.0894 181.001 41.143C181.133 41.1966 181.246 41.2866 181.329 41.4024C181.411 41.5183 181.459 41.6554 181.467 41.7976C181.475 41.9399 181.443 42.0815 181.374 42.206L180.334 44.1806C180.277 44.2879 180.247 44.4076 180.247 44.5291C180.247 44.6507 180.277 44.7703 180.334 44.8776L181.368 46.8633C181.44 46.9875 181.474 47.1298 181.467 47.273C181.46 47.4163 181.412 47.5546 181.329 47.6713C181.246 47.788 181.132 47.8782 180.999 47.9311C180.866 47.984 180.721 47.9973 180.581 47.9696L178.381 47.5879C178.262 47.5666 178.139 47.5751 178.024 47.6128C177.909 47.6504 177.805 47.7159 177.721 47.8036L176.169 49.4022C176.073 49.5032 175.95 49.5748 175.814 49.6088C175.679 49.6429 175.537 49.638 175.405 49.5947C175.272 49.5514 175.154 49.4715 175.065 49.3641C174.975 49.2567 174.918 49.1261 174.898 48.9873L174.579 46.7748C174.561 46.6566 174.514 46.5446 174.443 46.4483C174.372 46.352 174.279 46.2743 174.172 46.2217L172.181 45.2316C172.055 45.1704 171.949 45.075 171.875 44.9561C171.801 44.8373 171.762 44.6998 171.762 44.5595C171.762 44.4193 171.801 44.2818 171.875 44.163C171.949 44.0441 172.055 43.9486 172.181 43.8875L174.178 42.8974C174.286 42.8459 174.379 42.7685 174.45 42.6721C174.521 42.5756 174.567 42.463 174.585 42.3443L174.909 40.1317C174.919 39.989 174.97 39.8522 175.055 39.7376C175.141 39.623 175.257 39.5354 175.39 39.4853C175.523 39.4352 175.668 39.4246 175.807 39.4549C175.946 39.4852 176.074 39.555 176.175 39.656Z" fill="#EBEBEB"/>
<path d="M88.1012 240C99.3857 240 108.534 239.304 108.534 238.445C108.534 237.587 99.3857 236.891 88.1012 236.891C76.8166 236.891 67.6687 237.587 67.6687 238.445C67.6687 239.304 76.8166 240 88.1012 240Z" fill="#E0E0E0"/>
<path d="M230 232.98C230 233.063 178.501 233.124 115.019 233.124C51.5378 233.124 0 233.063 0 232.98C0 232.897 51.4828 232.836 115.019 232.836C178.556 232.836 230 232.919 230 232.98Z" fill="#475569"/>
<path d="M72.5037 148.191C72.5037 148.191 29.0421 101.391 23.9147 95.2621C21.7141 92.596 18.3747 85.6653 17.9511 83.3477C17.6356 81.6537 17.8591 79.9027 18.5899 78.3437C19.3208 76.7847 20.5218 75.497 22.0222 74.6636C28.888 70.8746 46.0966 65.8135 88.9971 65.8135C125.142 65.8135 141.437 70.0117 148.771 73.9666C150.696 75.014 152.225 76.6702 153.12 78.679C154.015 80.6878 154.226 82.9371 153.722 85.079C152.94 88.4186 151.312 91.498 148.996 94.0176L99.2078 148.224L94.7572 186.13H79.0504L72.5037 148.191Z" fill="#64748B"/>
<path d="M144.842 77.656C145.259 77.8277 145.621 78.1115 145.888 78.4764C146.155 78.8413 146.317 79.2731 146.357 79.7245C146.396 80.176 146.311 80.6295 146.11 81.0355C145.91 81.4414 145.603 81.784 145.221 82.0258C134.945 88.6633 122.022 90.4333 109.687 91.2464C82.0094 93.0662 38.7844 91.96 25.9495 80.7812C25.7518 80.6125 25.6021 80.3941 25.5156 80.1483C25.429 79.9025 25.4088 79.638 25.4568 79.3818C25.5049 79.1256 25.6196 78.8867 25.7892 78.6895C25.9588 78.4923 26.1774 78.3438 26.4226 78.259C30.8953 76.6991 44.1538 71.4886 85.1838 71.7984C121.048 72.0694 138.047 74.8849 144.842 77.656Z" fill="#475569"/>
<path d="M100.016 147.666C99.9379 147.726 99.853 147.778 99.7633 147.82L99.0206 148.213C98.6312 148.42 98.2308 148.604 97.8213 148.766C97.3426 148.965 96.809 149.22 96.1708 149.424L95.2026 149.773C94.867 149.889 94.5039 149.978 94.1353 150.088C93.4036 150.321 92.5949 150.486 91.7531 150.675C89.9094 151.027 88.0399 151.225 86.1636 151.266C84.2858 151.275 82.4106 151.125 80.5576 150.818C79.7104 150.652 78.9072 150.509 78.159 150.293C77.7849 150.193 77.4218 150.116 77.0587 150.005L76.0849 149.684C75.4578 149.496 74.9186 149.253 74.4345 149.065C74.0192 148.904 73.6133 148.719 73.2187 148.512L72.465 148.136C72.3736 148.099 72.2882 148.049 72.2119 147.986C72.3083 148.011 72.4022 148.044 72.4925 148.086L73.2627 148.412C73.5983 148.562 74.0054 148.733 74.495 148.905C74.9847 149.076 75.5238 149.303 76.1455 149.458L77.1192 149.756C77.4548 149.861 77.8179 149.933 78.1865 150.027C78.9237 150.232 79.7324 150.365 80.5741 150.525C84.2526 151.134 88.009 151.085 91.6706 150.381C92.5123 150.199 93.3211 150.044 94.0417 149.828C94.4103 149.723 94.7734 149.635 95.109 149.524L96.0718 149.203C96.6935 149.01 97.2326 148.766 97.7222 148.584C98.2119 148.401 98.6135 148.213 98.9436 148.058L99.7083 147.71C99.8084 147.68 99.9121 147.666 100.016 147.666Z" fill="#475569"/>
<path d="M148.929 79.0664C148.929 79.0664 148.847 79.1438 148.671 79.2821L147.895 79.885L146.619 80.8585L144.792 82.0644C143.094 83.1242 141.33 84.0738 139.511 84.9075C137.097 86.0036 134.61 86.9278 132.067 87.6731C128.995 88.5732 125.872 89.2898 122.715 89.8192C119.304 90.3724 115.634 90.8315 111.767 91.1689C104.021 91.816 95.4881 92.2751 86.5207 92.2309C82.037 92.2309 77.6578 92.1037 73.4382 91.8548C69.2185 91.6059 65.1474 91.3016 61.2909 90.8315C54.4537 90.0769 47.6595 88.9692 40.9355 87.5127C36.3512 86.6794 31.9625 84.991 27.996 82.5345C26.9161 81.8689 25.922 81.0719 25.0362 80.1616C24.8119 79.9188 24.6076 79.6579 24.4256 79.3817C24.3045 79.1936 24.2495 79.0941 24.2495 79.0941C24.5048 79.4541 24.7822 79.7977 25.0802 80.1229C25.9759 81.0107 26.9732 81.7887 28.051 82.4405C32.0264 84.8491 36.409 86.501 40.9795 87.3136C47.7059 88.7456 54.4996 89.8366 61.3349 90.5826C65.186 91.0251 69.2515 91.3514 73.4712 91.5893C77.6908 91.8271 82.059 91.9543 86.5372 91.9599C95.4936 91.9599 104.026 91.5561 111.756 90.92C115.607 90.5936 119.287 90.1622 122.693 89.598C125.849 89.0818 128.971 88.38 132.045 87.4961C134.581 86.7639 137.064 85.8602 139.478 84.7913C141.295 83.9689 143.06 83.036 144.765 81.998L146.564 80.8088L147.851 79.8574L148.649 79.2766L148.929 79.0664Z" fill="#475569"/>
<path d="M148.143 94.9248L147.846 95.0741L146.96 95.489L143.549 97.0599L141.085 98.1661C140.171 98.5589 139.159 98.9295 138.086 99.3554C135.919 100.174 133.498 101.23 130.709 102.077L126.363 103.504C125.609 103.769 124.822 103.963 124.025 104.179L121.587 104.831L119.057 105.534L117.764 105.877L116.433 106.159L110.931 107.32C102.717 108.836 94.3968 109.698 86.0479 109.898C77.6891 109.979 69.3377 109.374 61.0767 108.089L55.5368 107.066L54.1999 106.823C53.7598 106.729 53.3307 106.612 52.9016 106.507L50.3599 105.882L47.9117 105.279C47.1085 105.075 46.3108 104.909 45.5571 104.654L41.1889 103.299C38.3832 102.508 35.9515 101.468 33.7784 100.672C32.6781 100.251 31.6824 99.8974 30.7691 99.5102L28.299 98.404L24.8606 96.8497L23.9748 96.4404L23.6777 96.291L23.9858 96.4127L24.8826 96.7999L28.321 98.2989L30.8021 99.4052C31.7154 99.7868 32.7332 100.135 33.8169 100.545C36.0175 101.325 38.4217 102.348 41.2274 103.128L45.5956 104.461C46.3493 104.715 47.147 104.881 47.9447 105.08L50.3984 105.672L52.9291 106.292C53.3637 106.391 53.7928 106.507 54.2329 106.601L55.5643 106.845L61.0657 107.851C69.3327 109.111 77.6871 109.699 86.0479 109.61C94.3883 109.412 102.701 108.56 110.909 107.06L116.411 105.91L117.736 105.633L119.029 105.29L121.549 104.621L123.992 103.98C124.784 103.764 125.576 103.576 126.324 103.31L130.67 101.905C133.46 101.076 135.886 100.03 138.053 99.2282C139.154 98.8078 140.144 98.4482 141.057 98.0611L143.533 96.9548L146.966 95.4392L147.857 95.052C148.033 94.9635 148.143 94.9248 148.143 94.9248Z" fill="#475569"/>
<path d="M81.3174 186.097C81.2952 186.04 81.2805 185.981 81.2734 185.92C81.2734 185.793 81.2239 185.621 81.1799 185.406C81.1028 184.936 80.9873 184.261 80.8388 183.387C80.5472 181.611 80.1236 179.045 79.5899 175.809C78.5446 169.31 77.0648 160.144 75.3373 149.425L75.3703 149.497C71.2717 145.005 66.799 140.06 62.2548 134.789C57.1329 128.848 52.4237 123.04 48.3471 117.598C46.306 114.882 44.4355 112.243 42.7026 109.765C40.9696 107.287 39.4017 104.959 38.1363 102.696C36.9585 100.683 36.19 98.4555 35.8752 96.1417C35.6737 94.384 35.8925 92.6033 36.5134 90.9478C36.9069 89.9124 37.5102 88.9706 38.2849 88.1821L38.648 87.8392L38.9341 87.6179C39.0826 87.4962 39.1651 87.4409 39.1651 87.4409C39.0972 87.5111 39.0255 87.5775 38.9506 87.64C38.8735 87.7009 38.78 87.7783 38.6755 87.8724L38.3289 88.2264C37.5772 89.0215 36.995 89.9626 36.6179 90.992C36.0242 92.6311 35.8244 94.388 36.0348 96.1195C36.3606 98.4087 37.1348 100.61 38.3124 102.597C39.5557 104.837 41.2007 107.132 42.9006 109.627C44.6006 112.122 46.5096 114.727 48.5616 117.437C52.6437 122.863 57.364 128.666 62.4693 134.584C67.0136 139.856 71.4808 144.8 75.5684 149.297H75.5959V149.397C77.2848 160.122 78.7262 169.31 79.7495 175.798C80.2501 179.034 80.6462 181.606 80.9213 183.387C81.0478 184.261 81.1523 184.936 81.2184 185.406C81.2514 185.627 81.2734 185.804 81.2954 185.931L81.3174 186.097Z" fill="#475569"/>
<path d="M140.42 70.5096C140.42 70.5428 140.134 70.5096 139.645 70.6036C138.956 70.7159 138.313 71.0229 137.791 71.4886C137.034 72.2078 136.426 73.0707 136.003 74.0275C135.465 75.1997 135.022 76.413 134.677 77.656C133.907 80.3 133.466 82.767 133.12 84.5425C132.971 85.3888 132.845 86.0968 132.751 86.6499C132.72 86.9117 132.661 87.1695 132.575 87.4188C132.575 87.1555 132.597 86.8928 132.641 86.6333C132.702 86.13 132.79 85.4054 132.922 84.5038C133.274 82.1671 133.768 79.8544 134.402 77.5786C134.75 76.3187 135.206 75.0916 135.766 73.9113C136.214 72.9303 136.858 72.0528 137.659 71.3338C138.217 70.8591 138.906 70.5659 139.634 70.493C139.828 70.4743 140.023 70.4743 140.217 70.493C140.349 70.4875 140.42 70.4985 140.42 70.5096Z" fill="#475569"/>
<path d="M167.245 62.3285C167.245 62.3285 162.025 53.2295 159.411 53.7495C157.62 54.191 155.944 55.0154 154.499 56.1667L161.144 64.0211L167.245 62.3285Z" fill="#FFBE9D"/>
<path d="M198.808 86.2845L178.816 77.2629L167.158 59.4355L159.984 63.1747L173.545 87.4737L195.843 95.9753L198.808 86.2845Z" fill="#3E6227"/>
<path d="M161.255 55.798L154.586 45.8228C154.02 44.976 152.878 44.751 152.036 45.3202L142.114 52.0258C141.272 52.595 141.048 53.7429 141.614 54.5897L148.284 64.5649C148.85 65.4116 149.992 65.6366 150.834 65.0674L160.755 58.3619C161.597 57.7926 161.821 56.6447 161.255 55.798Z" fill="#475569"/>
<path d="M171.097 230.242L171.647 225.225L180.747 226.143L180.296 233.517H179.713C177.116 233.4 166.509 232.742 164.859 232.04C162.977 231.26 171.097 230.242 171.097 230.242Z" fill="#64748B"/>
<path d="M180.432 233.312C180.377 233.318 180.322 233.318 180.267 233.312H179.805L178.1 233.218C176.658 233.124 174.667 232.969 172.477 232.753C170.287 232.538 168.301 232.294 166.871 232.095L165.182 231.857L164.72 231.78C164.667 231.777 164.615 231.766 164.566 231.747H164.725L165.188 231.802L166.882 232.007C168.318 232.178 170.298 232.41 172.488 232.626C174.678 232.842 176.664 233.013 178.105 233.124L179.805 233.257L180.273 233.295L180.432 233.312Z" fill="#334155"/>
<path d="M167.806 232.305C167.763 232.015 167.683 231.73 167.57 231.459C167.428 231.202 167.256 230.962 167.058 230.746C167.337 230.884 167.556 231.12 167.674 231.409C167.828 231.681 167.875 232.001 167.806 232.305Z" fill="#334155"/>
<path d="M170.706 231.177C170.679 231.177 170.563 231.016 170.448 230.784C170.362 230.653 170.309 230.503 170.294 230.347C170.321 230.347 170.437 230.508 170.552 230.734C170.668 230.961 170.734 231.16 170.706 231.177Z" fill="#334155"/>
<path d="M171.504 230.851C171.504 230.851 171.344 230.757 171.196 230.596C171.047 230.436 170.954 230.287 170.976 230.264C170.998 230.242 171.135 230.358 171.284 230.519C171.432 230.679 171.526 230.829 171.504 230.851Z" fill="#334155"/>
<path d="M172.07 230.01C172.07 230.043 171.85 230.049 171.575 230.01C171.411 230.01 171.248 229.976 171.097 229.91C171.258 229.872 171.426 229.872 171.586 229.91C171.753 229.907 171.918 229.941 172.07 230.01Z" fill="#334155"/>
<path d="M172.296 229.402C172.128 229.494 171.936 229.53 171.746 229.507C171.554 229.52 171.362 229.474 171.197 229.374C171.379 229.356 171.563 229.356 171.746 229.374C171.93 229.367 172.114 229.376 172.296 229.402Z" fill="#334155"/>
<path d="M170.474 230.325C170.27 230.337 170.066 230.315 169.869 230.259C169.656 230.212 169.447 230.143 169.248 230.054C169.123 230.007 169.005 229.944 168.896 229.866C168.828 229.817 168.781 229.744 168.764 229.661C168.759 229.616 168.768 229.57 168.788 229.529C168.808 229.487 168.84 229.453 168.879 229.429C169.12 229.338 169.385 229.334 169.628 229.419C169.872 229.504 170.078 229.672 170.21 229.894C170.294 230.02 170.347 230.164 170.364 230.314C170.379 230.369 170.379 230.426 170.364 230.48C170.324 230.284 170.249 230.097 170.144 229.927C170.023 229.754 169.855 229.62 169.66 229.54C169.546 229.492 169.424 229.467 169.3 229.467C169.176 229.467 169.054 229.492 168.94 229.54C168.841 229.601 168.868 229.717 168.967 229.789C169.066 229.861 169.173 229.923 169.286 229.971C169.482 230.06 169.684 230.134 169.891 230.193C170.221 230.281 170.474 230.309 170.474 230.325Z" fill="#334155"/>
<path d="M170.315 230.342C170.254 230.206 170.244 230.053 170.288 229.91C170.321 229.756 170.391 229.612 170.491 229.49C170.552 229.401 170.634 229.331 170.731 229.285C170.828 229.239 170.935 229.22 171.041 229.23C171.1 229.25 171.15 229.293 171.179 229.348C171.209 229.403 171.216 229.468 171.201 229.529C171.175 229.624 171.13 229.712 171.069 229.789C170.976 229.914 170.869 230.027 170.75 230.126C170.645 230.225 170.519 230.297 170.381 230.336C170.381 230.336 170.513 230.237 170.695 230.065C170.802 229.962 170.9 229.85 170.986 229.728C171.08 229.606 171.157 229.385 170.986 229.341C170.816 229.296 170.673 229.446 170.568 229.556C170.471 229.664 170.4 229.793 170.359 229.933C170.329 230.067 170.314 230.204 170.315 230.342Z" fill="#334155"/>
<path d="M180.499 230.707C180.499 230.707 180.229 230.651 179.806 230.662C179.248 230.665 178.703 230.828 178.234 231.131C177.765 231.435 177.393 231.867 177.16 232.377C176.978 232.764 176.934 233.035 176.918 233.03C176.901 233.024 176.918 232.963 176.918 232.842C176.95 232.67 177.002 232.503 177.072 232.344C177.294 231.808 177.673 231.352 178.158 231.037C178.643 230.722 179.212 230.563 179.789 230.579C179.962 230.581 180.134 230.603 180.301 230.646C180.37 230.653 180.437 230.674 180.499 230.707Z" fill="#334155"/>
<path d="M179.915 226.713C179.918 227.36 179.881 228.007 179.805 228.649C179.769 229.297 179.694 229.941 179.58 230.58C179.583 229.933 179.62 229.287 179.69 228.644C179.726 227.996 179.802 227.352 179.915 226.713Z" fill="#334155"/>
<path d="M175.812 232.067C175.353 232.126 174.889 232.126 174.431 232.067C173.972 232.044 173.517 231.963 173.078 231.824C173.078 231.791 173.688 231.89 174.442 231.957C175.196 232.023 175.812 232.034 175.812 232.067Z" fill="#334155"/>
<path d="M177.643 232.245C177.643 232.272 177.582 232.372 177.505 232.505C177.428 232.637 177.379 232.765 177.351 232.759C177.324 232.754 177.313 232.604 177.406 232.449C177.5 232.294 177.626 232.223 177.643 232.245Z" fill="#334155"/>
<path d="M178.419 231.453C178.419 231.453 178.37 231.57 178.265 231.658C178.161 231.747 178.056 231.796 178.034 231.774C178.012 231.752 178.084 231.658 178.188 231.57C178.293 231.481 178.397 231.426 178.419 231.453Z" fill="#334155"/>
<path d="M179.449 231.155C179.449 231.188 179.317 231.155 179.174 231.21C179.031 231.265 178.926 231.309 178.899 231.282C178.871 231.254 178.97 231.138 179.146 231.099C179.322 231.061 179.46 231.127 179.449 231.155Z" fill="#334155"/>
<path d="M180.168 231.038C180.168 231.072 180.119 231.116 180.036 231.138C179.954 231.16 179.888 231.138 179.877 231.138C179.866 231.138 179.927 231.066 180.009 231.044C180.091 231.022 180.163 231.011 180.168 231.038Z" fill="#334155"/>
<path d="M138.986 63.0751C137.656 61.5547 136.409 59.963 135.25 58.3071C133.908 56.1831 134.095 56.0559 134.365 55.9342C135.091 55.6079 136.868 59.5738 136.972 58.4897C137.077 57.4055 134.221 53.8987 135.014 53.5889C136.02 53.1851 137.803 57.3779 137.979 57.7208C138.155 58.0638 138.65 57.8038 138.474 57.5051C138.221 57.0736 135.679 52.4661 136.659 52.0568C137.209 51.83 137.495 52.8699 137.495 52.8699C137.495 52.8699 139.563 57.3613 140.02 57.1566C140.477 56.952 139.36 54.2637 138.92 53.3843C138.48 52.5048 138.711 51.9461 139.25 52.0623C139.613 52.1397 141.032 54.7892 141.45 55.6632C141.869 56.5371 142.974 58.9819 143.381 57.3226C143.789 55.6632 144.718 54.5237 145.169 54.391C145.621 54.2582 145.962 54.8611 145.637 55.2815C145.329 55.771 145.087 56.2992 144.916 56.8524C144.768 57.2943 144.691 57.7576 144.691 58.2242C144.691 58.6224 144.691 58.9819 144.724 59.3304L144.883 62.7377L141.005 65.4093L138.986 63.0751Z" fill="#FFBE9D"/>
<path d="M184.608 167.562L180.587 229.374L171.234 228.334C171.234 228.334 172.912 168.043 173.352 168.043C173.793 168.043 184.608 167.562 184.608 167.562Z" fill="#FFBE9D"/>
<path d="M204.899 165.786L215.395 227.067L207.099 228.334L192.57 168.701L204.899 165.786Z" fill="#FFBE9D"/>
<path d="M191.331 60.5805L191.59 83.5907C191.605 84.7945 191.155 85.9573 190.334 86.8336C189.512 87.7098 188.385 88.2309 187.188 88.2867C186.582 88.3157 185.975 88.2243 185.404 88.0175C184.833 87.8108 184.307 87.4929 183.858 87.0819C183.409 86.6709 183.045 86.175 182.787 85.6225C182.528 85.0699 182.381 84.4716 182.353 83.8617L182.066 77.993C182.066 77.993 177.913 78.6733 177.082 75.6698C176.532 73.745 177.082 59.9941 177.082 59.9941L191.331 60.5805Z" fill="#FFBE9D"/>
<path d="M200.838 130.463L210.779 180.085L193.659 181.738L188.95 147.101L187.107 182.38L170.173 180.914L173.012 128.14L200.838 130.463Z" fill="#334155"/>
<path d="M215.582 225.618L216.181 233.047L206.62 232.759L206.856 226.016L215.582 225.618Z" fill="#64748B"/>
<path d="M211.192 225.491C211.108 226.459 211.121 227.434 211.23 228.4C211.24 229.373 211.349 230.342 211.554 231.293C211.639 230.324 211.627 229.35 211.521 228.384C211.511 227.41 211.4 226.441 211.192 225.491Z" fill="#334155"/>
<path d="M206.62 231.581C207.091 231.609 207.564 231.596 208.034 231.542L211.439 231.332C212.77 231.243 213.975 231.138 214.844 231.033C215.318 231.005 215.787 230.924 216.242 230.79C215.77 230.755 215.297 230.768 214.828 230.829L211.422 231.039C210.091 231.127 208.886 231.232 208.017 231.337C207.544 231.365 207.075 231.447 206.62 231.581Z" fill="#334155"/>
<path d="M200.282 111.966V124.207L201.613 134.374L172.582 131.696L173.826 111.369C174.018 106.612 174.106 101.656 174.222 97.2697C172.247 96.5174 153.866 89.5259 152.617 89.3433C151.369 89.1608 139.26 66.7922 139.26 66.7922C138.88 64.1095 146.115 62.3672 146.115 62.3672C146.115 62.3672 157.349 79.4036 158.3 80.3605C159.252 81.3174 176.824 84.4149 176.824 84.4149C181.372 83.4879 185.993 82.9715 190.633 82.8717C193.444 82.8284 196.167 83.8605 198.251 85.7592C200.335 87.6579 201.623 90.2815 201.856 93.0991C202.23 97.3416 201.993 103.42 200.282 111.966Z" fill="#3E6227"/>
<path d="M161.193 57.4111C160.866 57.4915 160.562 57.6479 160.306 57.8679C160.05 58.0879 159.849 58.3653 159.719 58.6778C158.66 57.8361 157.338 57.4008 155.99 57.4499C156.145 58.229 156.592 58.9183 157.238 59.3747C157.854 59.8615 158.558 60.221 159.175 60.7023C159.825 61.1498 160.285 61.8271 160.462 62.5995" fill="#FFBE9D"/>
<path d="M175.421 56.9188C174.32 57.0349 173.649 58.4012 173.908 59.5019C174.166 60.6026 175.041 61.4434 175.949 62.1071C175.871 62.5897 175.919 63.0843 176.089 63.5426C176.258 64.0009 176.542 64.4075 176.913 64.7227C177.285 65.0378 177.731 65.2509 178.209 65.3412C178.687 65.4315 179.18 65.3959 179.64 65.2379C179.552 65.3244 179.483 65.4283 179.437 65.5431C179.391 65.6578 179.369 65.7809 179.373 65.9046C179.376 66.0282 179.405 66.1498 179.458 66.2616C179.511 66.3735 179.586 66.4731 179.679 66.5543C179.875 66.7094 180.103 66.8191 180.347 66.8755C180.59 66.9319 180.843 66.9336 181.087 66.8807C181.582 66.8088 182.055 66.6262 182.545 66.5377C183.099 66.423 183.674 66.4825 184.193 66.7081C184.711 66.9338 185.148 67.3146 185.444 67.7988C185.961 68.8055 185.378 70.299 184.261 70.4428C184.01 70.4483 183.76 70.476 183.513 70.5258C183.367 70.5965 183.238 70.6979 183.134 70.8232C183.03 70.9485 182.954 71.0948 182.911 71.2521C182.869 71.4094 182.86 71.5741 182.886 71.7351C182.912 71.8961 182.972 72.0495 183.062 72.1852C183.257 72.4489 183.51 72.6643 183.801 72.8148C184.092 72.9653 184.413 73.047 184.74 73.0536C184.388 73.5204 184.231 74.1069 184.302 74.6885C184.373 75.2701 184.667 75.8009 185.121 76.1681C185.575 76.5354 186.153 76.7102 186.734 76.6553C187.314 76.6005 187.85 76.3204 188.228 75.8745C188.35 76.264 188.553 76.6229 188.824 76.9276C189.094 77.2323 189.425 77.4759 189.796 77.6423C190.167 77.8087 190.569 77.8941 190.975 77.8929C191.381 77.8917 191.783 77.8039 192.152 77.6353C192.522 77.4667 192.852 77.2211 193.121 76.9148C193.39 76.6084 193.59 76.2483 193.71 75.8582C193.83 75.468 193.867 75.0567 193.817 74.6515C193.767 74.2462 193.632 73.8562 193.421 73.5072C193.97 73.2625 194.447 72.8818 194.809 72.4008C195.171 71.9199 195.406 71.3544 195.491 70.7574C195.576 70.1603 195.509 69.5513 195.296 68.9874C195.084 68.4235 194.732 67.9232 194.274 67.5333C194.959 66.9977 195.567 66.3684 196.079 65.6638C196.333 65.3082 196.508 64.9024 196.595 64.4733C196.681 64.0442 196.676 63.6016 196.579 63.1747C196.467 62.7519 196.213 62.3811 195.86 62.125C195.507 61.869 195.077 61.7435 194.643 61.7697C194.867 61.4548 195.001 61.084 195.031 60.6977C195.06 60.3114 194.983 59.9243 194.809 59.5787C194.635 59.2331 194.37 58.9421 194.043 58.7374C193.716 58.5328 193.339 58.4222 192.954 58.4178C192.888 57.6729 192.581 56.9704 192.079 56.4182C191.577 55.8661 190.909 55.4949 190.177 55.3616C189.445 55.2284 188.69 55.3406 188.028 55.6809C187.366 56.0212 186.833 56.5707 186.512 57.2451C186.429 56.2218 185.274 55.5304 184.272 55.6964C183.775 55.8167 183.314 56.0525 182.924 56.3848C182.534 56.7172 182.227 57.1369 182.028 57.6102C182.084 57.3105 182.08 57.0024 182.014 56.7045C181.949 56.4067 181.824 56.1252 181.648 55.8771C181.471 55.6291 181.247 55.4196 180.987 55.2613C180.728 55.103 180.439 54.9992 180.139 54.9562C179.839 54.9131 179.533 54.9318 179.24 55.0109C178.947 55.0901 178.673 55.2281 178.434 55.4167C178.196 55.6054 177.998 55.8406 177.853 56.1083C177.707 56.3759 177.617 56.6705 177.588 56.9741C177.643 56.8369 177.662 56.6879 177.644 56.5411C177.626 56.3943 177.572 56.2545 177.485 56.1347C177.399 56.015 177.284 55.9193 177.151 55.8565C177.017 55.7938 176.87 55.766 176.724 55.7759C176.577 55.7858 176.435 55.8329 176.311 55.913C176.188 55.993 176.086 56.1033 176.016 56.2336C175.947 56.3638 175.911 56.5097 175.913 56.6576C175.914 56.8055 175.953 56.9506 176.026 57.0792" fill="#334155"/>
<path d="M182.965 69.4198C182.965 69.3756 183.124 69.4198 183.322 69.3092C183.451 69.2691 183.566 69.1908 183.651 69.0844C183.736 68.9779 183.787 68.8484 183.797 68.7124C183.808 68.5765 183.778 68.4405 183.711 68.322C183.643 68.2035 183.543 68.1081 183.421 68.048C183.239 67.9319 183.091 67.9319 183.086 67.8876C183.08 67.8434 183.245 67.7715 183.509 67.8876C183.694 67.9435 183.854 68.0614 183.963 68.2216C184.072 68.3818 184.124 68.5748 184.109 68.7685C184.094 68.9622 184.014 69.1451 183.882 69.2867C183.75 69.4283 183.574 69.5201 183.382 69.547C183.102 69.5581 182.948 69.4475 182.965 69.4198Z" fill="#EB996E"/>
<path d="M180.46 66.6209L180.576 69.9397C180.57 70.0809 180.598 70.2214 180.658 70.349C180.728 70.4465 180.829 70.5165 180.945 70.5468C181.06 70.5771 181.183 70.5658 181.291 70.5149C181.4 70.4596 181.496 70.3817 181.573 70.2864C181.65 70.191 181.705 70.0804 181.737 69.9618C181.801 69.731 181.838 69.4933 181.847 69.2538C181.936 68.108 182.169 66.978 182.54 65.8908C182.151 65.7581 181.727 65.7759 181.351 65.9405C180.975 66.1052 180.673 66.405 180.504 66.7813" fill="#334155"/>
<path d="M182.039 100.124C182.011 100.196 179.596 99.3659 176.642 98.2651C173.688 97.1644 171.311 96.213 171.339 96.1411C173.17 96.6642 174.973 97.2827 176.741 97.9941C178.542 98.6123 180.31 99.3231 182.039 100.124Z" fill="#334155"/>
<path d="M182.958 86.4561C183.153 86.515 183.338 86.6006 183.509 86.7105C184.011 86.9925 184.477 87.3362 184.895 87.7338C185.518 88.3253 186.037 89.0192 186.429 89.7859C186.911 90.7297 187.181 91.7681 187.221 92.8281C187.261 93.8853 187.085 94.9395 186.704 95.9256C186.397 96.7402 185.942 97.4904 185.362 98.1382C184.979 98.5839 184.471 98.9037 183.905 99.0564C183.752 99.0945 183.594 99.1094 183.437 99.1006C183.327 99.1006 183.272 99.0895 183.272 99.0674C183.476 99.0425 183.678 99.0037 183.877 98.9513C184.401 98.7637 184.864 98.4345 185.214 97.9999C185.749 97.3624 186.169 96.6362 186.457 95.8537C186.811 94.8977 186.973 93.8807 186.935 92.8613C186.895 91.8425 186.642 90.8436 186.193 89.9297C185.823 89.182 185.336 88.4986 184.752 87.9053C184.2 87.367 183.6 86.8819 182.958 86.4561Z" fill="#334155"/>
<path d="M182.567 86.6441C182.247 86.6067 181.93 86.5419 181.621 86.4505L179.074 85.8254L170.679 83.7014L162.267 81.6106L159.72 80.9745C159.406 80.9075 159.097 80.8188 158.795 80.709C159.117 80.7359 159.435 80.7895 159.747 80.8694C160.352 80.9855 161.233 81.1736 162.316 81.4225C164.478 81.8982 167.466 82.6007 170.745 83.4248C174.023 84.249 176.989 85.04 179.123 85.6374L181.654 86.3564C181.965 86.4312 182.27 86.5273 182.567 86.6441Z" fill="#334155"/>
<path d="M178.849 131.315C178.829 131.213 178.819 131.109 178.822 131.005C178.822 130.773 178.822 130.485 178.822 130.131C178.822 129.368 178.822 128.267 178.822 126.906C178.849 124.185 178.937 120.424 179.119 116.275C179.3 112.127 179.537 108.371 179.74 105.661C179.845 104.3 179.933 103.205 180.01 102.447C180.043 102.093 180.076 101.805 180.098 101.579C180.1 101.477 180.109 101.375 180.125 101.274C180.141 101.375 180.141 101.478 180.125 101.579C180.125 101.811 180.125 102.104 180.087 102.458C180.043 103.255 179.982 104.344 179.911 105.672C179.757 108.388 179.553 112.143 179.361 116.292C179.168 120.44 179.058 124.191 178.976 126.912C178.937 128.24 178.904 129.329 178.877 130.131C178.877 130.485 178.849 130.773 178.838 131.005C178.856 131.107 178.86 131.212 178.849 131.315Z" fill="#334155"/>
<path d="M186.55 83.104C185.6 83.439 184.68 83.8553 183.8 84.3485C182.97 84.9247 182.191 85.5725 181.473 86.2845C182.025 85.4017 182.77 84.6567 183.65 84.1057C184.531 83.5547 185.524 83.2122 186.556 83.104H186.55Z" fill="#334155"/>
<path d="M192.399 83.0213C191.72 83.1114 191.037 83.1595 190.352 83.1651C189.092 83.2315 187.354 83.3421 185.439 83.5412C183.525 83.7404 181.797 83.9893 180.549 84.1829C179.878 84.3175 179.2 84.4136 178.519 84.4705C178.693 84.3897 178.879 84.3339 179.069 84.3046C179.415 84.2161 179.916 84.1054 180.538 83.9837C181.775 83.7348 183.508 83.4583 185.428 83.2536C187.348 83.0489 189.103 82.9715 190.38 82.9604C191.012 82.9604 191.524 82.9604 191.882 82.9604C192.056 82.9626 192.229 82.983 192.399 83.0213Z" fill="#334155"/>
<path d="M197.998 144.253C197.998 144.33 194.801 145.027 190.846 145.818C186.89 146.609 183.634 147.179 183.617 147.101C183.601 147.024 186.813 146.321 190.769 145.536C194.724 144.75 197.981 144.17 197.998 144.253Z" fill="#64748B"/>
<path d="M171.873 180.925C171.796 180.925 172.764 170.023 174.04 156.588C175.317 143.152 176.411 132.283 176.488 132.289C176.565 132.294 175.603 143.185 174.326 156.626C173.05 170.067 171.95 180.925 171.873 180.925Z" fill="#64748B"/>
<path d="M173.491 181.13C173.408 181.13 174.283 170.1 175.433 156.51C176.582 142.919 177.589 131.907 177.666 131.912C177.743 131.918 176.874 142.942 175.719 156.532C174.564 170.122 173.568 181.135 173.491 181.13Z" fill="#64748B"/>
<path d="M118.247 59.7984L111.577 49.8233C111.011 48.9765 109.869 48.7515 109.027 49.3207L99.1059 56.0263C98.2637 56.5955 98.0399 57.7434 98.6061 58.5902L105.275 68.5654C105.842 69.4121 106.983 69.6371 107.826 69.0679L117.747 62.3623C118.589 61.7931 118.813 60.6452 118.247 59.7984Z" fill="#D5D5D5"/>
<path d="M63.7748 27.9347L59.3296 25.3544C58.4507 24.8442 57.3269 25.147 56.8195 26.0306L54.2531 30.4999C53.7457 31.3835 54.0468 32.5134 54.9257 33.0236L59.3709 35.6039C60.2497 36.1141 61.3735 35.8113 61.8809 34.9277L64.4474 30.4584C64.9548 29.5748 64.6537 28.4449 63.7748 27.9347Z" fill="#475569"/>
<path d="M91.0575 45.3766L88.0419 43.6262C87.4457 43.2801 86.6833 43.4855 86.3391 44.085L84.5979 47.1172C84.2536 47.7167 84.4579 48.4832 85.0541 48.8293L88.0697 50.5798C88.6659 50.9259 89.4283 50.7205 89.7725 50.121L91.5137 47.0888C91.858 46.4893 91.6537 45.7227 91.0575 45.3766Z" fill="#E0E0E0"/>
<path d="M78.4583 62.4392L69.8032 51.806C68.092 49.7037 65.0023 49.3986 62.9021 51.1244L52.2794 59.8536C50.1792 61.5795 49.8639 64.6828 51.5751 66.785L60.2301 77.4182C61.9413 79.5205 65.0311 79.8256 67.1313 78.0998L77.7539 69.3706C79.8541 67.6447 80.1695 64.5414 78.4583 62.4392Z" fill="#C7C7C7"/>
<path d="M85.0085 2.29209C84.8264 2.13884 84.6199 2.01731 84.3979 1.93256C84.0749 1.82832 83.7268 1.83415 83.4075 1.94917C83.0882 2.06418 82.8155 2.28194 82.6319 2.56866C82.4275 3.02108 82.3153 3.51007 82.3018 4.0068C82.2248 4.55993 82.1423 5.14624 82.0542 5.78787C81.9662 6.4295 81.8672 7.10985 81.7627 7.82892C81.6996 8.22752 81.4943 8.58935 81.185 8.84668C81.0236 8.96879 80.8481 9.07093 80.6624 9.1509L80.1122 9.42194L77.8401 10.5282L76.6408 11.1366C76.4489 11.2379 76.283 11.3825 76.1561 11.5591C76.0291 11.7357 75.9446 11.9395 75.9091 12.1544C75.8709 12.3755 75.8843 12.6025 75.9483 12.8175C76.0123 13.0325 76.125 13.2297 76.2777 13.3934C76.4358 13.5555 76.6223 13.6867 76.8278 13.7806L77.499 14.1125L80.3433 15.5396C80.5854 15.6668 80.8164 15.7553 81.075 15.9157C81.3106 16.0873 81.4997 16.3155 81.6251 16.5794C81.7413 16.8475 81.8101 17.1339 81.8287 17.4257C81.8672 17.6968 81.9057 17.9789 81.9497 18.2499L82.4393 21.6516C82.4676 21.9207 82.5717 22.176 82.7393 22.3876C82.907 22.5993 83.1311 22.7584 83.3856 22.8464C83.6424 22.9384 83.9204 22.9529 84.1853 22.888C84.4503 22.8232 84.6905 22.6818 84.8765 22.4813L87.4237 19.8595L88.0673 19.2013C88.2938 18.9543 88.5859 18.7777 88.9091 18.6924C89.2261 18.6209 89.5548 18.6209 89.8718 18.6924L90.7576 18.8473L94.2455 19.4557C94.506 19.4932 94.7717 19.456 95.0121 19.3484C95.2526 19.2408 95.4578 19.067 95.6044 18.8473C95.7508 18.6333 95.8364 18.3832 95.8519 18.1239C95.8674 17.8646 95.8123 17.606 95.6924 17.3759L94.196 14.4333C93.9539 13.9465 93.6954 13.5096 93.4698 13.0007C93.3764 12.7347 93.35 12.4497 93.3928 12.171C93.4445 11.9048 93.5433 11.65 93.6844 11.4187C94.163 10.5227 94.6196 9.64872 95.0652 8.80796C95.5108 7.96721 96.1655 7.14857 95.8354 6.34654C95.767 6.15686 95.661 5.9831 95.5239 5.83574C95.3868 5.68839 95.2214 5.5705 95.0377 5.48918C94.8627 5.41781 94.6764 5.37847 94.4876 5.37303C94.2902 5.38866 94.0937 5.4145 93.8989 5.45046L89.5968 6.164C89.272 6.20424 88.9426 6.14648 88.6505 5.99806C88.3976 5.8551 88.1721 5.66777 87.9848 5.44493L86.9451 4.33867L85.4982 2.81757L85.1351 2.41931C85.0901 2.37552 85.0495 2.32734 85.014 2.2755C85.0656 2.3112 85.1135 2.35197 85.1571 2.39719C85.2506 2.49675 85.3826 2.62397 85.5422 2.77885L87.0111 4.26124L88.0673 5.33431C88.2427 5.55829 88.4593 5.74611 88.7055 5.88744C88.9679 6.02373 89.266 6.07402 89.5583 6.03125L93.8494 5.27899C94.0543 5.23597 94.2621 5.20824 94.4711 5.19602C94.6949 5.19515 94.917 5.23642 95.1257 5.31771C95.3473 5.40498 95.5475 5.5394 95.7126 5.71175C95.8777 5.8841 96.0037 6.09031 96.0821 6.31623C96.1605 6.54215 96.1894 6.78244 96.1667 7.02063C96.1441 7.25882 96.0705 7.48926 95.951 7.69617L95.3018 8.94071L93.9374 11.557C93.8006 11.7555 93.7115 11.9832 93.6772 12.2222C93.6428 12.4612 93.6641 12.705 93.7394 12.9343C93.9429 13.3768 94.218 13.858 94.4546 14.3282L95.951 17.2487C96.0949 17.5233 96.1617 17.8321 96.1442 18.142C96.1268 18.4519 96.0257 18.7512 95.8519 19.0077C95.6762 19.2762 95.4267 19.4876 95.1337 19.6163C94.8407 19.7449 94.5168 19.7852 94.2015 19.7323L90.7026 19.1294L89.8168 18.98C89.5407 18.9086 89.2512 18.9086 88.9751 18.98C88.7017 19.0481 88.4547 19.1963 88.2654 19.4059L87.6217 20.0697L85.0745 22.6915C84.8494 22.9288 84.561 23.0958 84.2438 23.1723C83.9267 23.2488 83.5943 23.2317 83.2866 23.123C82.9901 23.007 82.7313 22.8107 82.5391 22.5559C82.3468 22.301 82.2285 21.9976 82.1973 21.6793C82.0377 20.5233 81.8727 19.3893 81.7131 18.2775C81.6765 17.9936 81.638 17.717 81.5976 17.4479C81.5833 17.1851 81.5238 16.9268 81.4216 16.6845C81.3127 16.4614 81.1477 16.2707 80.9429 16.1314C80.7449 15.9987 80.4698 15.888 80.2443 15.7663L77.4495 14.3669L76.7783 14.0295C76.537 13.9258 76.3183 13.7755 76.1347 13.587C75.955 13.3964 75.823 13.1656 75.7493 12.9137C75.6757 12.6617 75.6626 12.3958 75.711 12.1378C75.7547 11.8891 75.8541 11.6538 76.0019 11.4496C76.1497 11.2454 76.3418 11.0778 76.5638 10.9596L77.7741 10.3567L80.0517 9.25047C80.4067 9.0933 80.7488 8.90835 81.075 8.69734C81.3609 8.47847 81.5567 8.16149 81.6251 7.8068C81.7297 7.08773 81.8342 6.40738 81.9332 5.76575C82.0322 5.12412 82.1203 4.5378 82.2028 3.9902C82.2299 3.47864 82.3551 2.97717 82.5714 2.51334C82.8028 2.1641 83.1596 1.91834 83.5672 1.82746C83.8614 1.75814 84.1694 1.77738 84.4529 1.88278C84.6249 1.94676 84.7834 2.04242 84.9205 2.16487C84.9525 2.20537 84.9819 2.24786 85.0085 2.29209Z" fill="#475569"/>
<path d="M35.436 53.8714L36.9874 55.4755C37.0722 55.562 37.1764 55.6268 37.2913 55.6643C37.4062 55.7019 37.5284 55.7111 37.6476 55.6912L39.8482 55.3151C39.9877 55.2887 40.1319 55.303 40.2636 55.3565C40.3953 55.4099 40.509 55.5002 40.5913 55.6166C40.6735 55.733 40.7208 55.8707 40.7275 56.0134C40.7343 56.156 40.7002 56.2976 40.6294 56.4214L39.5896 58.4016C39.5341 58.5093 39.5052 58.6288 39.5052 58.75C39.5052 58.8713 39.5341 58.9908 39.5896 59.0985L40.6239 61.0787C40.6928 61.2032 40.7252 61.3448 40.7172 61.487C40.7093 61.6293 40.6613 61.7663 40.5788 61.8822C40.4964 61.9981 40.383 62.0881 40.2517 62.1417C40.1204 62.1953 39.9766 62.2103 39.8372 62.185L37.6366 61.8033C37.5174 61.7825 37.3949 61.7913 37.2799 61.8288C37.1648 61.8664 37.0607 61.9317 36.9764 62.019L35.436 63.5789C35.3381 63.6779 35.2148 63.7475 35.0798 63.7801C34.9448 63.8126 34.8034 63.8068 34.6715 63.7631C34.5396 63.7195 34.4224 63.6398 34.333 63.5331C34.2436 63.4263 34.1855 63.2966 34.1652 63.1585L33.8461 60.946C33.8273 60.8277 33.7805 60.7157 33.7097 60.6194C33.6388 60.5232 33.546 60.4454 33.439 60.3928L31.4474 59.4027C31.3236 59.3401 31.2194 59.2441 31.1467 59.1254C31.0739 59.0067 31.0354 58.8701 31.0354 58.7307C31.0354 58.5913 31.0739 58.4546 31.1467 58.3359C31.2194 58.2173 31.3236 58.1212 31.4474 58.0586L33.4445 57.0685C33.5523 57.0171 33.6459 56.9397 33.7169 56.8432C33.7879 56.7467 33.8342 56.6341 33.8516 56.5154L34.1762 54.3029C34.1944 54.1649 34.2505 54.0349 34.3383 53.9273C34.4261 53.8198 34.542 53.739 34.673 53.6942C34.8039 53.6493 34.9448 53.6421 35.0796 53.6735C35.2144 53.7048 35.3379 53.7733 35.436 53.8714Z" fill="#475569"/>
<path d="M98.5209 76.5496L98.8619 78.7621C98.8814 78.8817 98.9297 78.9946 99.0026 79.091C99.0754 79.1874 99.1707 79.2644 99.2801 79.3153L101.283 80.2832C101.407 80.345 101.511 80.4403 101.584 80.5586C101.657 80.6769 101.696 80.8133 101.696 80.9525C101.696 81.0917 101.657 81.2282 101.584 81.3464C101.511 81.4647 101.407 81.5601 101.283 81.6218L99.2966 82.6396C99.1911 82.6928 99.0999 82.7709 99.031 82.8672C98.962 82.9635 98.9172 83.0752 98.9005 83.1927L98.6034 85.4052C98.584 85.5431 98.527 85.6729 98.4386 85.7801C98.3502 85.8874 98.234 85.9678 98.1028 86.0126C97.9716 86.0573 97.8307 86.0645 97.6957 86.0335C97.5606 86.0024 97.4368 85.9343 97.338 85.8367L95.7646 84.2492C95.679 84.1642 95.5743 84.1013 95.4594 84.0657C95.3445 84.03 95.2227 84.0228 95.1044 84.0445L92.9039 84.4483C92.7636 84.4762 92.6183 84.4632 92.4852 84.4106C92.3521 84.3581 92.2367 84.2683 92.1528 84.1519C92.0688 84.0355 92.0198 83.8974 92.0116 83.7538C92.0033 83.6103 92.0361 83.4674 92.1061 83.342L93.1184 81.3508C93.1752 81.2435 93.205 81.1238 93.205 81.0023C93.205 80.8808 93.1752 80.7611 93.1184 80.6538L92.1006 78.7345C92.0309 78.6116 91.9972 78.4713 92.0037 78.3299C92.0102 78.1886 92.0565 78.052 92.1372 77.936C92.2179 77.8201 92.3297 77.7296 92.4596 77.6751C92.5895 77.6206 92.7321 77.6043 92.8708 77.6282L95.0714 77.9822C95.1902 78.0009 95.3117 77.9906 95.4257 77.9521C95.5396 77.9136 95.6427 77.848 95.7261 77.761L97.261 76.1403C97.3585 76.0446 97.4802 75.9775 97.6128 75.9462C97.7455 75.9149 97.8841 75.9206 98.0138 75.9627C98.1435 76.0048 98.2592 76.0818 98.3486 76.1852C98.4379 76.2886 98.4975 76.4146 98.5209 76.5496Z" fill="#64748B"/>
</svg>
