<svg width="18" height="18" viewBox="0 0 18 18" fill="none" xmlns="http://www.w3.org/2000/svg">
<path d="M8.05586 13.2247H2.70032" stroke="#475569" stroke-width="1.5" stroke-linecap="round" stroke-linejoin="round"/>
<path fill-rule="evenodd" clip-rule="evenodd" d="M16.2 13.2249C16.2 14.3711 15.2454 15.3003 14.0679 15.3003C12.8904 15.3003 11.9358 14.3711 11.9358 13.2249C11.9358 12.0778 12.8904 11.1494 14.0679 11.1494C15.2454 11.1494 16.2 12.0778 16.2 13.2249Z" stroke="#475569" stroke-width="1.5" stroke-linecap="round" stroke-linejoin="round"/>
<path d="M10.8436 4.77547H16.2" stroke="#475569" stroke-width="1.5" stroke-linecap="round" stroke-linejoin="round"/>
<path fill-rule="evenodd" clip-rule="evenodd" d="M2.70001 4.77564C2.70001 5.92273 3.65459 6.85108 4.83213 6.85108C6.00967 6.85108 6.96424 5.92273 6.96424 4.77564C6.96424 3.6294 6.00967 2.7002 4.83213 2.7002C3.65459 2.7002 2.70001 3.6294 2.70001 4.77564Z" stroke="#475569" stroke-width="1.5" stroke-linecap="round" stroke-linejoin="round"/>
</svg>
