<svg width="50" height="50" viewBox="0 0 50 50" fill="none" xmlns="http://www.w3.org/2000/svg">
<rect width="50" height="50" rx="25" fill="#303030" fill-opacity="0.2"/>
<path d="M15.5808 32.0103L15.5608 32.0303C15.2908 31.4403 15.1208 30.7703 15.0508 30.0303C15.1208 30.7603 15.3108 31.4203 15.5808 32.0103Z" fill="#E7AC2D"/>
<path d="M21.9991 23.3801C23.3136 23.3801 24.3791 22.3146 24.3791 21.0001C24.3791 19.6857 23.3136 18.6201 21.9991 18.6201C20.6847 18.6201 19.6191 19.6857 19.6191 21.0001C19.6191 22.3146 20.6847 23.3801 21.9991 23.3801Z" fill="#E7AC2D"/>
<path d="M29.19 15H20.81C17.17 15 15 17.17 15 20.81V29.19C15 30.28 15.19 31.23 15.56 32.03C16.42 33.93 18.26 35 20.81 35H29.19C32.83 35 35 32.83 35 29.19V26.9V20.81C35 17.17 32.83 15 29.19 15ZM33.37 25.5C32.59 24.83 31.33 24.83 30.55 25.5L26.39 29.07C25.61 29.74 24.35 29.74 23.57 29.07L23.23 28.79C22.52 28.17 21.39 28.11 20.59 28.65L16.85 31.16C16.63 30.6 16.5 29.95 16.5 29.19V20.81C16.5 17.99 17.99 16.5 20.81 16.5H29.19C32.01 16.5 33.5 17.99 33.5 20.81V25.61L33.37 25.5Z" fill="#E7AC2D"/>
</svg>
