<svg width="28" height="28" viewBox="0 0 28 28" fill="none" xmlns="http://www.w3.org/2000/svg">
<g clip-path="url(#clip0_930_2234)">
<path d="M27.124 13.1259H16.041C15.558 13.1259 15.166 12.7339 15.166 12.2509C15.166 11.768 15.558 11.376 16.041 11.376H27.124C27.607 11.376 27.999 11.768 27.999 12.2509C27.999 12.7339 27.607 13.1259 27.124 13.1259Z" fill="#FF0000"/>
<path d="M22.7493 17.5004C22.6344 17.5007 22.5205 17.4781 22.4144 17.4341C22.3082 17.3901 22.2118 17.3254 22.1308 17.2438C21.7891 16.9019 21.7891 16.3478 22.1308 16.006L25.8875 12.2495L22.1308 8.49286C21.7891 8.15107 21.7891 7.59694 22.1308 7.25516C22.4729 6.91315 23.027 6.91315 23.3688 7.25516L27.7436 11.63C28.0854 11.9718 28.0854 12.5259 27.7436 12.8677L23.3688 17.2426C23.2877 17.3245 23.1913 17.3894 23.0849 17.4337C22.9786 17.478 22.8645 17.5006 22.7493 17.5004ZM9.33311 28.0001C9.08342 28.0001 8.84652 27.9651 8.60979 27.8916L1.5889 25.5525C0.633535 25.2188 0 24.3287 0 23.3337V2.33431C0 1.0475 1.04652 0.000976562 2.33333 0.000976562C2.58281 0.000976562 2.81976 0.0359755 3.05666 0.109473L10.0773 2.4486C11.0329 2.78224 11.6662 3.67242 11.6662 4.66742V25.6668C11.6662 26.9536 10.6199 28.0001 9.33311 28.0001ZM2.33333 1.75092C2.01249 1.75092 1.74995 2.01341 1.74995 2.33431V23.3337C1.74995 23.5821 1.91674 23.813 2.15473 23.8959L9.14275 26.2245C9.19296 26.2407 9.25836 26.2502 9.33311 26.2502C9.65396 26.2502 9.91628 25.9876 9.91628 25.6668V4.66742C9.91628 4.41899 9.74949 4.18805 9.5115 4.1052L2.52348 1.77657C2.47327 1.76033 2.40787 1.75092 2.33333 1.75092Z" fill="#FF0000"/>
<path d="M17.7917 9.33409C17.3087 9.33409 16.9167 8.9421 16.9167 8.45912V3.20928C16.9167 2.4054 16.2624 1.75092 15.4585 1.75092H2.33396C1.85097 1.75092 1.45898 1.35893 1.45898 0.875949C1.45898 0.392964 1.85097 0.000976562 2.33396 0.000976562H15.4585C17.2283 0.000976562 18.6666 1.43949 18.6666 3.20928V8.45912C18.6666 8.9421 18.2746 9.33409 17.7917 9.33409ZM15.4585 24.5002H10.7919C10.3089 24.5002 9.91691 24.1082 9.91691 23.6252C9.91691 23.1423 10.3089 22.7503 10.7919 22.7503H15.4585C16.2624 22.7503 16.9167 22.0957 16.9167 21.2919V16.0421C16.9167 15.5591 17.3087 15.1671 17.7917 15.1671C18.2746 15.1671 18.6666 15.5591 18.6666 16.0421V21.2919C18.6666 23.0617 17.2284 24.5002 15.4585 24.5002Z" fill="#FF0000"/>
</g>
<defs>
<clipPath id="clip0_930_2234">
<rect width="28" height="28" fill="white"/>
</clipPath>
</defs>
</svg>
