<svg width="20" height="20" viewBox="0 0 20 20" fill="none" xmlns="http://www.w3.org/2000/svg">
<rect x="0.5" y="0.5" width="19" height="19" rx="3.5" fill="#E7AC2D"/>
<rect x="0.5" y="0.5" width="19" height="19" rx="3.5" stroke="#E7AC2D"/>
<path d="M14 10.75H6C5.59 10.75 5.25 10.41 5.25 10C5.25 9.59 5.59 9.25 6 9.25H14C14.41 9.25 14.75 9.59 14.75 10C14.75 10.41 14.41 10.75 14 10.75Z" fill="white"/>
<path d="M10 14.75C9.59 14.75 9.25 14.41 9.25 14V6C9.25 5.59 9.59 5.25 10 5.25C10.41 5.25 10.75 5.59 10.75 6V14C10.75 14.41 10.41 14.75 10 14.75Z" fill="white"/>
</svg>
