<svg width="28" height="28" viewBox="0 0 28 28" fill="none" xmlns="http://www.w3.org/2000/svg">
<path d="M17.9387 9.6875C17.7027 9.6875 17.5111 9.87863 17.5111 10.115C17.5111 10.3511 17.7027 10.5425 17.9387 10.5425C18.1752 10.5425 18.3663 10.3511 18.3663 10.115C18.3663 10.0588 18.3553 10.0032 18.3338 9.95128C18.3124 9.89939 18.2809 9.85225 18.2412 9.81254C18.2014 9.77284 18.1543 9.74135 18.1024 9.7199C18.0505 9.69844 17.9949 9.68743 17.9387 9.6875ZM10.1698 17.4563C9.93323 17.4563 9.74219 17.6479 9.74219 17.8839C9.74213 17.9401 9.75315 17.9957 9.77462 18.0476C9.79609 18.0995 9.82758 18.1467 9.8673 18.1864C9.90701 18.2261 9.95417 18.2576 10.0061 18.279C10.058 18.3005 10.1136 18.3115 10.1698 18.3115C10.4058 18.3115 10.5974 18.1204 10.5974 17.8839C10.5974 17.6479 10.4058 17.4563 10.1698 17.4563Z" fill="#E7AC2D"/>
<path d="M24.4696 5.68425C24.3986 5.66772 24.3246 5.66963 24.2545 5.6898C24.1845 5.70997 24.1207 5.74773 24.0694 5.79948L22.2968 7.58613H21.4469L20.5114 6.61689V5.75523L22.2587 3.98192C22.3096 3.93028 22.3465 3.86654 22.3659 3.79671C22.3854 3.72688 22.3868 3.65324 22.3699 3.58273C22.3531 3.51223 22.3187 3.44717 22.2698 3.39364C22.221 3.34012 22.1593 3.29989 22.0907 3.27675C21.6517 3.12877 21.1924 3.05377 20.7252 3.05377C19.3326 3.05377 18.0674 3.70318 17.254 4.83542C16.4927 5.89535 16.258 7.1943 16.5942 8.43745L13.4447 11.587L8.19743 6.32776V5.29558C8.19743 5.22174 8.17832 5.14916 8.14194 5.0849C8.10556 5.02065 8.05316 4.96691 7.98983 4.92893L4.96653 3.1147C4.88478 3.0656 4.78895 3.04526 4.6943 3.05692C4.59966 3.06858 4.51163 3.11157 4.44424 3.17905L3.235 4.38812C3.16761 4.4556 3.12468 4.54365 3.11303 4.6383C3.10138 4.73295 3.12167 4.82878 3.17069 4.91058L4.98453 7.93389C5.02251 7.99717 5.07621 8.04955 5.14042 8.08593C5.20464 8.1223 5.27717 8.14144 5.35097 8.14148L6.3829 8.14182L11.6306 13.4011L8.49306 16.5386C7.24991 16.2025 5.95027 16.4376 4.88982 17.1994C3.75832 18.0123 3.10938 19.2772 3.10938 20.6698C3.10938 21.1368 3.18437 21.5963 3.33236 22.0351C3.35563 22.1041 3.39619 22.1661 3.45017 22.2151C3.50415 22.2641 3.56976 22.2985 3.64077 22.315C3.71178 22.3315 3.78583 22.3296 3.85588 22.3094C3.92594 22.2893 3.98967 22.2515 4.04103 22.1998L5.81349 20.4132H6.66801L7.64161 21.3868V22.2413L5.85505 24.0138C5.80331 24.0652 5.76555 24.1289 5.74538 24.199C5.7252 24.269 5.72327 24.3431 5.73977 24.4141C5.75627 24.4851 5.79065 24.5507 5.83964 24.6047C5.88864 24.6587 5.95063 24.6992 6.01971 24.7225C6.45849 24.8705 6.91797 24.9455 7.38498 24.9455C8.77761 24.9455 10.0424 24.2964 10.8554 23.1649C11.6172 22.1044 11.8522 20.805 11.5161 19.5618L14.0361 17.0419L14.6133 17.6689L14.3484 17.9337C14.1813 18.1007 14.1813 18.3714 14.3484 18.5385C14.5154 18.7053 14.786 18.7053 14.9532 18.5385L15.193 18.2986L20.609 24.1815C20.613 24.1858 20.6171 24.19 20.6214 24.1942C21.6235 25.1963 23.2471 25.1966 24.2498 24.194C25.2496 23.1937 25.2496 21.5661 24.2498 20.5658C24.2454 20.5614 24.2409 20.5572 24.2364 20.5531L18.3443 15.1475L18.5815 14.9103C18.7485 14.7435 18.7485 14.4727 18.5815 14.3057C18.4145 14.1387 18.1439 14.1387 17.9767 14.3057L17.7136 14.5689L17.0854 13.9923L19.6175 11.4602C19.9789 11.5567 20.3512 11.6055 20.7252 11.6052C23.0829 11.6052 25.0009 9.6871 25.0009 7.32959C25.0009 6.86241 24.9259 6.4031 24.7779 5.96415C24.7547 5.89506 24.7142 5.83307 24.6602 5.78408C24.6062 5.73509 24.5406 5.70072 24.4696 5.68425ZM6.8629 7.41228C6.78273 7.33189 6.674 7.29102 6.56043 7.29102L5.59337 7.29068L4.0758 4.75691L4.81286 4.01985L7.34226 5.53776V6.50478C7.34227 6.61801 7.38721 6.72661 7.4672 6.80674L12.84 12.1918L12.2353 12.7964L6.8629 7.41228ZM17.739 15.7528L23.6512 21.1766C24.3116 21.844 24.3096 22.9246 23.645 23.5895C22.9789 24.2556 21.9006 24.2576 21.2318 23.5954L15.7982 17.6933L17.739 15.7528ZM17.1083 15.174L15.2185 17.0636L14.6413 16.4366L16.4802 14.5975L17.1083 15.174ZM20.7252 10.7501C20.3537 10.7505 19.9846 10.6903 19.6324 10.5719C19.5569 10.5465 19.4759 10.5427 19.3984 10.5609C19.3209 10.5791 19.25 10.6185 19.1936 10.6747C17.05 12.8183 12.4312 17.4371 10.7303 19.138C10.674 19.1943 10.6345 19.2653 10.6163 19.3428C10.5981 19.4204 10.602 19.5015 10.6275 19.577C10.9829 20.6324 10.8129 21.7581 10.1608 22.6659C9.51057 23.571 8.49874 24.0903 7.38502 24.0903C7.25991 24.0903 7.13548 24.0834 7.01221 24.0703L8.3703 22.7227C8.41036 22.683 8.44216 22.6357 8.46386 22.5836C8.48556 22.5315 8.49673 22.4756 8.49673 22.4192V21.2096C8.49671 21.0962 8.45164 20.9875 8.37145 20.9073L7.14737 19.6832C7.0672 19.603 6.95846 19.5579 6.84507 19.5579H5.63544C5.579 19.5579 5.52311 19.5691 5.471 19.5908C5.41889 19.6125 5.37159 19.6443 5.33182 19.6843L3.98442 21.0424C3.97103 20.9186 3.96434 20.7942 3.96437 20.6696C3.96437 19.5558 4.48345 18.5441 5.38877 17.8938C6.29635 17.2418 7.42226 17.0716 8.47788 17.4272C8.55333 17.4526 8.63439 17.4565 8.71191 17.4383C8.78943 17.4201 8.86034 17.3806 8.91662 17.3243C8.94018 17.3009 17.3739 8.86704 17.3799 8.86101C17.4362 8.80471 17.4757 8.73381 17.4938 8.6563C17.512 8.57878 17.5082 8.49773 17.4828 8.42227C17.1272 7.36683 17.2969 6.24143 17.9484 5.33428C18.5992 4.4284 19.6112 3.90893 20.7251 3.90893C20.8541 3.90893 20.9822 3.91612 21.1091 3.93014L19.7793 5.27984C19.7005 5.3598 19.6563 5.46757 19.6563 5.57984V6.78946C19.6563 6.90024 19.6993 7.00671 19.7763 7.08638L20.9576 8.31054C20.9975 8.35187 21.0453 8.38473 21.0981 8.40717C21.151 8.4296 21.2078 8.44115 21.2653 8.44113H22.4749C22.5313 8.44113 22.5872 8.42996 22.6393 8.40826C22.6913 8.38656 22.7386 8.35476 22.7783 8.31469L24.1257 6.95678C24.1391 7.08005 24.1458 7.20448 24.1458 7.32959C24.1458 9.21565 22.6113 10.7501 20.7253 10.7501H20.7252Z" fill="#E7AC2D"/>
<path d="M16.4289 11.0217L11.0783 16.3723C10.9114 16.5392 10.9114 16.81 11.0783 16.9769C11.2453 17.144 11.516 17.144 11.6831 16.9769L17.0337 11.6264C17.2007 11.4595 17.2007 11.1888 17.0337 11.0218C16.8667 10.8547 16.5959 10.8547 16.4289 11.0218V11.0217ZM21.8321 22.3802C21.9992 22.5468 22.2699 22.5468 22.4369 22.3792C22.6036 22.212 22.6031 21.9413 22.4359 21.7746L18.5818 17.9328C18.4146 17.7662 18.1437 17.7667 17.9772 17.9339C17.8103 18.1012 17.8109 18.3718 17.978 18.5385L21.8321 22.3802Z" fill="#E7AC2D"/>
</svg>
