<svg width="10" height="18" viewBox="0 0 10 18" fill="none" xmlns="http://www.w3.org/2000/svg">
<path d="M1.1835 0.500208C0.954496 0.495554 0.729838 0.569035 0.540609 0.710485C0.351381 0.851935 0.20694 1.05436 0.127272 1.28975C0.0476041 1.52513 0.0366492 1.78184 0.0959239 2.02435C0.155199 2.26687 0.281772 2.48319 0.458128 2.64338L7.20739 8.97693L0.453959 15.3105C0.33058 15.4091 0.227185 15.5346 0.150298 15.6792C0.073411 15.8238 0.024702 15.9843 0.00724484 16.1506C-0.0102123 16.3168 0.00396168 16.4853 0.048872 16.6452C0.0937823 16.8052 0.168454 16.9532 0.268174 17.08C0.367895 17.2067 0.490499 17.3094 0.628249 17.3816C0.765999 17.4538 0.915904 17.4939 1.0685 17.4993C1.2211 17.5048 1.37308 17.4756 1.51485 17.4135C1.65662 17.3513 1.7851 17.2577 1.89219 17.1384L9.61277 9.90458C9.73419 9.79089 9.83168 9.64971 9.89853 9.49075C9.96538 9.33178 10 9.15883 10 8.98379C10 8.80875 9.96538 8.63579 9.89853 8.47683C9.83168 8.31787 9.73419 8.17669 9.61277 8.063L1.89219 0.806375C1.69654 0.615447 1.44537 0.506936 1.1835 0.500208Z" fill="#212121"/>
</svg>
