<svg width="28" height="28" viewBox="0 0 28 28" fill="none" xmlns="http://www.w3.org/2000/svg">
<path d="M3.19676 10.4092C3.2288 10.2736 3.2288 10.1323 3.19676 9.99658L2.97139 9.03645C2.87028 8.60666 3.0946 8.16638 3.50174 7.9951L4.41102 7.61339C4.56358 7.54945 4.69567 7.44486 4.79288 7.31101C4.8901 7.17717 4.9487 7.0192 4.96231 6.85434L5.04462 5.87157C5.06252 5.65838 5.15533 5.45841 5.30661 5.30713C5.45789 5.15586 5.65785 5.06304 5.87104 5.04514L6.85382 4.96284C7.01868 4.94923 7.17664 4.89062 7.31049 4.79341C7.44433 4.6962 7.54893 4.56411 7.61287 4.41154L7.99458 3.50227C8.16586 3.09512 8.60609 2.87085 9.03592 2.97192L9.99606 3.19728C10.1572 3.23511 10.3255 3.22809 10.4829 3.17696C10.6403 3.12583 10.7807 3.03256 10.8888 2.90728L11.5323 2.16042C11.8212 1.82623 12.309 1.74885 12.6869 1.97755L13.5304 2.48909C13.6719 2.57473 13.8341 2.62 13.9994 2.62C14.1648 2.62 14.327 2.57473 14.4684 2.48909L15.312 1.97755C15.6898 1.74885 16.1776 1.82618 16.4665 2.16042L17.1101 2.90728C17.2182 3.03256 17.3585 3.12583 17.5159 3.17696C17.6733 3.22809 17.8417 3.23511 18.0028 3.19728L18.9629 2.97192C19.3927 2.8708 19.833 3.09512 20.0043 3.50227L20.386 4.41154C20.4499 4.56411 20.5545 4.6962 20.6884 4.79341C20.8222 4.89062 20.9802 4.94923 21.145 4.96284L22.1278 5.04514C22.341 5.06304 22.5409 5.15586 22.6922 5.30713C22.8435 5.45841 22.9363 5.65838 22.9542 5.87157L23.0365 6.85434C23.0501 7.0192 23.1087 7.17717 23.206 7.31101C23.3032 7.44486 23.4353 7.54945 23.5878 7.61339L24.4971 7.9951C24.9042 8.16638 25.1285 8.60666 25.0274 9.03645L24.8021 9.99658C24.77 10.1323 24.77 10.2736 24.8021 10.4092M3.19676 17.5908C3.2288 17.7264 3.2288 17.8677 3.19676 18.0034L2.97139 18.9635C2.87028 19.3933 3.0946 19.8336 3.50174 20.0049L4.41102 20.3866C4.56358 20.4505 4.69567 20.5551 4.79288 20.689C4.8901 20.8228 4.9487 20.9808 4.96231 21.1457L5.04462 22.1284C5.06252 22.3416 5.15533 22.5416 5.30661 22.6929C5.45789 22.8441 5.65785 22.937 5.87104 22.9549L6.85382 23.0372C7.01868 23.0508 7.17664 23.1094 7.31049 23.2066C7.44433 23.3038 7.54893 23.4359 7.61287 23.5885L7.99458 24.4977C8.16586 24.9049 8.60609 25.1291 9.03592 25.0281L9.99606 24.8027C10.1572 24.7649 10.3255 24.7719 10.4829 24.823C10.6403 24.8742 10.7807 24.9674 10.8888 25.0927L11.5323 25.8396C11.8212 26.1738 12.309 26.2511 12.6869 26.0224L13.5304 25.5109C13.6719 25.4253 13.8341 25.38 13.9994 25.38C14.1648 25.38 14.327 25.4253 14.4684 25.5109L15.312 26.0224C15.6898 26.2511 16.1776 26.1738 16.4665 25.8396L17.1101 25.0927C17.2182 24.9674 17.3585 24.8742 17.5159 24.823C17.6733 24.7719 17.8417 24.7649 18.0028 24.8027L18.9629 25.0281C19.3927 25.1292 19.833 24.9049 20.0043 24.4977L20.386 23.5885C20.4499 23.4359 20.5545 23.3038 20.6884 23.2066C20.8222 23.1094 20.9802 23.0508 21.145 23.0372L22.1278 22.9549C22.341 22.937 22.5409 22.8441 22.6922 22.6929C22.8435 22.5416 22.9363 22.3416 22.9542 22.1284L23.0365 21.1457C23.0501 20.9808 23.1087 20.8228 23.206 20.689C23.3032 20.5551 23.4353 20.4505 23.5878 20.3866L24.4971 20.0049C24.9042 19.8336 25.1285 19.3934 25.0274 18.9635L24.8021 18.0034C24.77 17.8677 24.77 17.7264 24.8021 17.5908" stroke="#E7AC2D" stroke-width="0.8203" stroke-miterlimit="10" stroke-linecap="round" stroke-linejoin="round"/>
<path d="M10.939 22.2945C11.8933 22.6466 12.9247 22.8391 14.0009 22.8391C17.6037 22.8391 20.7033 20.6834 22.0798 17.5909M5.92205 17.5909C6.62696 19.1746 7.78358 20.5128 9.22895 21.4413M22.0798 10.4094C21.4613 9.01982 20.4949 7.82 19.2918 6.91931M5.92205 10.4094C7.29851 7.31688 10.3981 5.16113 14.0009 5.16113C15.3008 5.16113 16.5351 5.44168 17.6469 5.94589M5.38628 12.7203C5.38628 12.7203 4.80813 12.2343 4.1263 12.4397C3.50025 12.6283 3.4127 13.3501 3.86561 13.6454C3.86561 13.6454 4.31005 13.8437 4.80299 14.0255C5.98958 14.4632 5.47843 15.6112 4.52322 15.6112C4.04487 15.6112 3.64342 15.4016 3.40039 15.1335M7.16272 15.6112L8.37261 12.4345C8.39733 12.374 8.48291 12.3739 8.50774 12.4343L9.70664 15.6112M7.54006 14.82H9.33542M20.3079 12.3891V15.6112H21.4371M24.6014 12.3891H23.2437V15.6112H24.6014M24.5013 14.0001H23.2437M16.7239 14.2117V15.6112M11.5185 15.586L12.0848 12.4483C12.099 12.3748 12.2015 12.368 12.2253 12.4389L13.1466 15.5615C13.169 15.628 13.2632 15.6276 13.2849 15.5608L14.1747 12.4394C14.1978 12.3682 14.3003 12.374 14.3152 12.4473L14.9151 15.586M18.4958 13.2983C18.4958 13.8005 18.0831 14.2076 17.5953 14.2076C17.3535 14.2076 16.7239 14.2116 16.7239 14.2116V12.3891H17.5953C18.0831 12.3891 18.4958 12.7962 18.4958 13.2983Z" stroke="#E7AC2D" stroke-width="0.8203" stroke-miterlimit="10" stroke-linecap="round" stroke-linejoin="round"/>
<path d="M10.2917 10.4092H27.0368C27.4086 10.4092 27.6744 10.769 27.565 11.1239L26.7797 13.6751C26.7146 13.8867 26.7146 14.1131 26.7797 14.3247L27.565 16.8759C27.6744 17.2308 27.4086 17.5906 27.0368 17.5906H0.963251C0.591382 17.5906 0.325605 17.2308 0.434978 16.8759L1.22028 14.3247C1.28536 14.1131 1.28536 13.8867 1.22028 13.6751L0.434978 11.1239C0.325605 10.769 0.591382 10.4092 0.963251 10.4092H8.37767" stroke="#E7AC2D" stroke-width="0.8203" stroke-miterlimit="10" stroke-linecap="round" stroke-linejoin="round"/>
</svg>
