<svg width="84" height="83" viewBox="0 0 84 83" fill="none" xmlns="http://www.w3.org/2000/svg">
<rect x="0.5" width="83" height="83" rx="41.5" fill="#E4AF3D" fill-opacity="0.2"/>
<path d="M58.4457 21.333H53.0557C51.4607 21.333 50.2873 21.993 49.7557 23.1663C49.4623 23.698 49.334 24.3213 49.334 25.0547V30.4447C49.334 32.773 50.7273 34.1663 53.0557 34.1663H58.4457C59.179 34.1663 59.8023 34.038 60.334 33.7447C61.5073 33.213 62.1673 32.0397 62.1673 30.4447V25.0547C62.1673 22.7263 60.774 21.333 58.4457 21.333ZM60.169 28.538C59.9857 28.7213 59.7107 28.8497 59.4173 28.868H56.8323V29.803L56.8507 31.4163C56.8323 31.728 56.7223 31.9847 56.5023 32.2047C56.319 32.388 56.044 32.5163 55.7507 32.5163C55.1457 32.5163 54.6507 32.0213 54.6507 31.4163V28.8497L52.084 28.868C51.479 28.868 50.984 28.3547 50.984 27.7497C50.984 27.1447 51.479 26.6497 52.084 26.6497L53.6973 26.668H54.6507V24.1013C54.6507 23.4963 55.1457 22.983 55.7507 22.983C56.3557 22.983 56.8507 23.4963 56.8507 24.1013L56.8323 25.403V26.6497H59.4173C60.0223 26.6497 60.5173 27.1447 60.5173 27.7497C60.499 28.0613 60.3707 28.318 60.169 28.538Z" fill="#E7AC2D"/>
<path d="M36.5001 38.5304C38.9099 38.5304 40.8634 36.5768 40.8634 34.167C40.8634 31.7572 38.9099 29.8037 36.5001 29.8037C34.0902 29.8037 32.1367 31.7572 32.1367 34.167C32.1367 36.5768 34.0902 38.5304 36.5001 38.5304Z" fill="#E7AC2D"/>
<path d="M58.4443 34.167H57.5827V42.6187L57.3443 42.417C55.9143 41.1887 53.6043 41.1887 52.1743 42.417L44.5477 48.962C43.1177 50.1903 40.8077 50.1903 39.3777 48.962L38.7543 48.4487C37.4527 47.312 35.381 47.202 33.9143 48.192L27.0577 52.7937C26.6543 51.767 26.416 50.5753 26.416 49.182V33.8187C26.416 28.6487 29.1477 25.917 34.3177 25.917H49.3327V25.0553C49.3327 24.322 49.461 23.6987 49.7543 23.167H34.3177C27.6443 23.167 23.666 27.1453 23.666 33.8187V49.182C23.666 51.1803 24.0143 52.922 24.6927 54.3887C26.2693 57.872 29.6427 59.8337 34.3177 59.8337H49.681C56.3543 59.8337 60.3327 55.8553 60.3327 49.182V33.7453C59.801 34.0387 59.1777 34.167 58.4443 34.167Z" fill="#E7AC2D"/>
</svg>
