<svg width="20" height="20" viewBox="0 0 20 20" fill="none" xmlns="http://www.w3.org/2000/svg">
<path d="M9.24935 18.9587H5.74935C2.49102 18.9587 1.04102 17.5087 1.04102 14.2503V10.7503C1.04102 7.49199 2.49102 6.04199 5.74935 6.04199H9.24935C12.5077 6.04199 13.9577 7.49199 13.9577 10.7503V14.2503C13.9577 17.5087 12.5077 18.9587 9.24935 18.9587ZM5.74935 7.29199C3.16602 7.29199 2.29102 8.16699 2.29102 10.7503V14.2503C2.29102 16.8337 3.16602 17.7087 5.74935 17.7087H9.24935C11.8327 17.7087 12.7077 16.8337 12.7077 14.2503V10.7503C12.7077 8.16699 11.8327 7.29199 9.24935 7.29199H5.74935Z" fill="#212121"/>
<path d="M14.2493 13.9587H13.3327C12.991 13.9587 12.7077 13.6753 12.7077 13.3337V10.7503C12.7077 8.16699 11.8327 7.29199 9.24935 7.29199H6.66602C6.32435 7.29199 6.04102 7.00866 6.04102 6.66699V5.75033C6.04102 2.49199 7.49102 1.04199 10.7493 1.04199H14.2493C17.5077 1.04199 18.9577 2.49199 18.9577 5.75033V9.25033C18.9577 12.5087 17.5077 13.9587 14.2493 13.9587ZM13.9577 12.7087H14.2493C16.8327 12.7087 17.7077 11.8337 17.7077 9.25033V5.75033C17.7077 3.16699 16.8327 2.29199 14.2493 2.29199H10.7493C8.16602 2.29199 7.29102 3.16699 7.29102 5.75033V6.04199H9.24935C12.5077 6.04199 13.9577 7.49199 13.9577 10.7503V12.7087Z" fill="#212121"/>
</svg>
