<svg width="24" height="24" viewBox="0 0 24 24" fill="none" xmlns="http://www.w3.org/2000/svg">
<path d="M21.7267 12.0798C21.6838 11.9928 21.6615 11.897 21.6615 11.8C21.6615 11.703 21.6838 11.6073 21.7267 11.5203L22.5323 9.87222C22.9809 8.95461 22.6255 7.86091 21.7233 7.38221L20.1028 6.52244C20.017 6.47724 19.9427 6.41292 19.8857 6.33444C19.8286 6.25596 19.7904 6.16542 19.774 6.06982L19.457 4.26299C19.2806 3.257 18.35 2.581 17.3389 2.72405L15.5226 2.98097C15.4266 2.99485 15.3287 2.98647 15.2364 2.95649C15.1442 2.92651 15.06 2.87572 14.9905 2.80805L13.6721 1.53265C12.938 0.822472 11.788 0.82243 11.0539 1.53265L9.7355 2.80817C9.66597 2.87583 9.58184 2.92661 9.48958 2.95659C9.39732 2.98657 9.2994 2.99496 9.20339 2.9811L7.3871 2.72418C6.37566 2.58104 5.44543 3.25713 5.26896 4.26312L4.95205 6.06986C4.93558 6.16546 4.89736 6.256 4.84034 6.33449C4.78333 6.41298 4.70903 6.47731 4.6232 6.52253L3.00279 7.3823C2.10057 7.86095 1.74519 8.95474 2.19372 9.87234L2.99929 11.5203C3.04217 11.6074 3.06447 11.7031 3.06447 11.8001C3.06447 11.8971 3.04217 11.9928 2.99929 12.0799L2.19368 13.7279C1.74515 14.6455 2.10053 15.7392 3.00275 16.2179L4.62316 17.0776C4.709 17.1228 4.7833 17.1872 4.84033 17.2656C4.89735 17.3441 4.93558 17.4347 4.95205 17.5303L5.26896 19.3371C5.42961 20.2529 6.21489 20.8951 7.1174 20.8951C7.20629 20.8951 7.29648 20.8888 7.38714 20.876L9.20343 20.6191C9.29945 20.6052 9.39737 20.6135 9.48963 20.6435C9.5819 20.6735 9.66603 20.7243 9.73554 20.792L11.0539 22.0674C11.421 22.4225 11.8919 22.6 12.363 22.6C12.8339 22.6 13.3051 22.4224 13.6721 22.0674L14.9905 20.792C15.1328 20.6544 15.3267 20.5916 15.5226 20.6191L17.3389 20.876C18.3505 21.0191 19.2806 20.343 19.457 19.337L19.774 17.5303C19.7905 17.4347 19.8287 17.3442 19.8857 17.2657C19.9427 17.1872 20.017 17.1228 20.1028 17.0776L21.7233 16.2179C22.6255 15.7392 22.9809 14.6454 22.5323 13.7278L21.7267 12.0798ZM21.1393 15.1173L19.5189 15.9771C19.0023 16.2513 18.648 16.7389 18.5469 17.315L18.23 19.1218C18.2021 19.2849 18.1115 19.4306 17.9776 19.5279C17.8437 19.6252 17.6772 19.6663 17.5134 19.6424L15.6971 19.3855C15.1179 19.3035 14.5447 19.4899 14.1243 19.8965L12.8059 21.1719C12.6874 21.2874 12.5285 21.352 12.363 21.352C12.1975 21.352 12.0386 21.2874 11.9201 21.1719L10.6017 19.8965C10.2464 19.5528 9.7819 19.3665 9.297 19.3665C9.20816 19.3665 9.11859 19.3728 9.0289 19.3855L7.21262 19.6424C7.04886 19.6662 6.88229 19.625 6.74842 19.5278C6.61455 19.4305 6.52396 19.2848 6.49598 19.1217L6.17903 17.3149C6.07795 16.7388 5.72366 16.2511 5.20699 15.9771L3.58658 15.1173C3.44008 15.0403 3.32946 14.9091 3.27832 14.7518C3.22717 14.5944 3.23956 14.4232 3.31283 14.2749L4.11843 12.6268C4.37527 12.1013 4.37527 11.4987 4.11843 10.9732L3.31283 9.32514C3.23956 9.17675 3.22717 9.00561 3.27832 8.84823C3.32946 8.69084 3.44008 8.55968 3.58658 8.48271L5.20699 7.62293C5.72362 7.34876 6.07795 6.86116 6.17899 6.28506L6.4959 4.47827C6.52384 4.31516 6.61441 4.16943 6.74829 4.07216C6.88218 3.97488 7.04877 3.93378 7.21253 3.9576L9.02882 4.21452C9.60784 4.29649 10.1812 4.11015 10.6016 3.70351L11.92 2.42811C12.0385 2.3126 12.1975 2.24795 12.3629 2.24795C12.5284 2.24795 12.6873 2.3126 12.8058 2.42811L14.1242 3.70351C14.5446 4.11019 15.1179 4.29649 15.697 4.21452L17.5133 3.9576C17.6771 3.9338 17.8436 3.97491 17.9775 4.07218C18.1114 4.16945 18.202 4.31517 18.2299 4.47827L18.5469 6.2851C18.6479 6.86121 19.0022 7.34885 19.5189 7.62293L21.1393 8.48271C21.2858 8.55968 21.3964 8.69084 21.4476 8.84823C21.4987 9.00561 21.4863 9.17675 21.4131 9.32514L20.6074 10.9731C20.3506 11.4986 20.3506 12.1013 20.6074 12.6268L21.4131 14.2748C21.4863 14.4232 21.4987 14.5943 21.4476 14.7517C21.3965 14.9091 21.2859 15.0403 21.1393 15.1173Z" fill="#94A3B8"/>
<path d="M16.9148 7.24803C16.6716 7.00478 16.2772 7.00478 16.0339 7.24803L7.81207 15.4699C7.56882 15.7131 7.56882 16.1075 7.81207 16.3508C7.86985 16.4087 7.9385 16.4546 8.01408 16.4859C8.08967 16.5173 8.1707 16.5333 8.25251 16.5332C8.41189 16.5332 8.57136 16.4724 8.69294 16.3508L16.9148 8.12898C17.1581 7.88569 17.1581 7.49133 16.9148 7.24803ZM9.87187 6.19336C8.61249 6.19336 7.58789 7.21796 7.58789 8.47732C7.58789 9.73669 8.61249 10.7613 9.87187 10.7613C11.1312 10.7613 12.1558 9.73669 12.1558 8.47732C12.1558 7.21796 11.1312 6.19336 9.87187 6.19336ZM9.87187 9.51546C9.29943 9.51546 8.83372 9.04976 8.83372 8.47728C8.83372 7.90484 9.29943 7.43914 9.87187 7.43914C10.4443 7.43914 10.9101 7.90484 10.9101 8.47728C10.91 9.04976 10.4443 9.51546 9.87187 9.51546ZM14.855 12.8376C13.5957 12.8376 12.571 13.8622 12.571 15.1215C12.571 16.3809 13.5957 17.4055 14.855 17.4055C16.1144 17.4055 17.139 16.3809 17.139 15.1215C17.139 13.8622 16.1144 12.8376 14.855 12.8376ZM14.855 16.1597C14.2826 16.1597 13.8168 15.694 13.8168 15.1215C13.8168 14.5491 14.2825 14.0834 14.855 14.0834C15.4275 14.0834 15.8932 14.5491 15.8932 15.1215C15.8932 15.694 15.4275 16.1597 14.855 16.1597Z" fill="#94A3B8"/>
</svg>
