<svg width="375" height="375" viewBox="0 0 375 375" fill="none" xmlns="http://www.w3.org/2000/svg">
<path d="M375 286.8H0V286.987H375V286.8Z" fill="#EBEBEB"/>
<path d="M236.753 291.907H217.658V292.095H236.753V291.907Z" fill="#EBEBEB"/>
<path d="M341.58 295.965H296.332V296.152H341.58V295.965Z" fill="#EBEBEB"/>
<path d="M213.593 291.997H166.846V292.185H213.593V291.997Z" fill="#EBEBEB"/>
<path d="M136.53 297.607H126.75V297.795H136.53V297.607Z" fill="#EBEBEB"/>
<path d="M190.568 297.607H146.033V297.795H190.568V297.607Z" fill="#EBEBEB"/>
<path d="M68.1832 294.442H39.3457V294.63H68.1832V294.442Z" fill="#EBEBEB"/>
<path d="M177.751 253.35H32.9332C31.7987 253.348 30.7114 252.896 29.9099 252.093C29.1084 251.29 28.6582 250.202 28.6582 249.068V45.495C28.6681 44.367 29.1226 43.2885 29.923 42.4937C30.7235 41.6988 31.8052 41.2519 32.9332 41.25H177.751C178.887 41.25 179.976 41.7012 180.779 42.5043C181.582 43.3074 182.033 44.3967 182.033 45.5325V249.068C182.033 250.203 181.582 251.293 180.779 252.096C179.976 252.899 178.887 253.35 177.751 253.35ZM32.9332 41.4C31.8484 41.402 30.8088 41.8343 30.0424 42.602C29.2761 43.3698 28.8457 44.4102 28.8457 45.495V249.068C28.8457 250.152 29.2761 251.193 30.0424 251.96C30.8088 252.728 31.8484 253.161 32.9332 253.162H177.751C178.836 253.161 179.877 252.728 180.644 251.961C181.412 251.193 181.844 250.153 181.846 249.068V45.495C181.844 44.4095 181.412 43.3691 180.644 42.6016C179.877 41.8341 178.836 41.402 177.751 41.4H32.9332Z" fill="#EBEBEB"/>
<path d="M339.982 253.35H195.157C194.022 253.348 192.934 252.896 192.132 252.094C191.329 251.291 190.877 250.203 190.875 249.068V45.495C190.887 44.3663 191.343 43.2878 192.145 42.4932C192.946 41.6986 194.029 41.2519 195.157 41.25H339.982C341.109 41.2539 342.189 41.7017 342.988 42.4963C343.787 43.2909 344.24 44.3683 344.25 45.495V249.068C344.25 250.201 343.801 251.288 343.001 252.09C342.201 252.893 341.116 253.346 339.982 253.35ZM195.157 41.4C194.072 41.402 193.032 41.8341 192.264 42.6016C191.497 43.3691 191.064 44.4095 191.062 45.495V249.068C191.064 250.153 191.497 251.193 192.264 251.961C193.032 252.728 194.072 253.161 195.157 253.162H339.982C341.068 253.161 342.108 252.728 342.876 251.961C343.643 251.193 344.076 250.153 344.077 249.068V45.495C344.076 44.4095 343.643 43.3691 342.876 42.6016C342.108 41.8341 341.068 41.402 339.982 41.4H195.157Z" fill="#EBEBEB"/>
<path d="M146.971 221.753H97.1709L94.1484 186.878H143.948L146.971 221.753Z" fill="#E6E6E6"/>
<path d="M149.549 221.753H99.7491L96.7266 186.878H146.527L149.549 221.753Z" fill="#F0F0F0"/>
<path d="M106.56 214.26L104.895 194.362H139.717L141.382 214.26H106.56Z" fill="white"/>
<path d="M158.167 221.753H152.324V286.8H158.167V221.753Z" fill="#E6E6E6"/>
<path d="M160.013 221.753H155.955V286.8H160.013V221.753Z" fill="#F0F0F0"/>
<path d="M103.454 228.93H160.012V221.752H103.454V228.93Z" fill="#F0F0F0"/>
<path d="M105.45 228.93H99.6074V286.8H105.45V228.93Z" fill="#E6E6E6"/>
<path d="M107.296 228.93H103.238V286.8H107.296V228.93Z" fill="#F0F0F0"/>
<path d="M63.862 228.93H58.0195V286.8H63.862V228.93Z" fill="#E6E6E6"/>
<path d="M65.7079 228.93H61.6504V286.8H65.7079V228.93Z" fill="#F0F0F0"/>
<path d="M121.192 228.93H115.35V286.8H121.192V228.93Z" fill="#E6E6E6"/>
<path d="M123.03 228.93H118.973V286.8H123.03V228.93Z" fill="#F0F0F0"/>
<path d="M103.455 221.753H58.0195V228.93H103.455V221.753Z" fill="#E6E6E6"/>
<path d="M272.88 59.5576H97.1328V157.403H272.88V59.5576Z" fill="#E0E0E0"/>
<path d="M282.533 59.5576H98.0176V157.403H282.533V59.5576Z" fill="#F5F5F5"/>
<path d="M279.518 154.387V62.5723L101.033 62.5723V154.387H279.518Z" fill="white"/>
<path d="M173.302 154.387L206.999 62.5723H151.387L117.689 154.387H173.302Z" fill="#F5F5F5"/>
<path d="M226.83 154.387L260.527 62.5723H218.572L184.875 154.387H226.83Z" fill="#F5F5F5"/>
<path d="M328.583 193.35H313.643V286.8H328.583V193.35Z" fill="#E6E6E6"/>
<path d="M324.653 286.8H328.583V279.607H320.535L324.653 286.8Z" fill="#FAFAFA"/>
<path d="M190.838 193.35H175.898V286.8H190.838V193.35Z" fill="#E6E6E6"/>
<path d="M328.583 193.35H187.41V284.857H328.583V193.35Z" fill="#FAFAFA"/>
<path d="M325.913 222.877H190.088V197.032H325.913V222.877ZM190.838 222.127H325.163V197.782H190.838V222.127Z" fill="#E6E6E6"/>
<path d="M302.003 209.58H216.63C212.67 209.58 208.852 206.385 206.13 200.805L205.875 200.272H312.75L312.495 200.805C309.75 206.385 306 209.58 302.003 209.58ZM207.105 201C209.64 205.972 213.105 208.807 216.63 208.807H302.003C305.543 208.807 308.992 205.972 311.527 201H207.105Z" fill="#E6E6E6"/>
<path d="M191.34 286.8H187.41V279.607H195.458L191.34 286.8Z" fill="#FAFAFA"/>
<path d="M325.913 252H190.088V226.185H325.913V252ZM190.838 251.25H325.163V226.935H190.838V251.25Z" fill="#E6E6E6"/>
<path d="M302.003 238.733H216.63C212.67 238.733 208.852 235.53 206.13 229.958L205.875 229.418H312.75L312.495 229.958C309.75 235.5 306 238.733 302.003 238.733ZM207.105 230.168C209.64 235.14 213.105 237.983 216.63 237.983H302.003C305.543 237.983 308.992 235.14 311.527 230.168H207.105Z" fill="#E6E6E6"/>
<path d="M325.913 281.175H190.088V255.33H325.913V281.175ZM190.838 280.425H325.163V256.08H190.838V280.425Z" fill="#E6E6E6"/>
<path d="M302.003 267.878H216.63C212.67 267.878 208.852 264.683 206.13 259.11L205.875 258.57H312.75L312.495 259.11C309.75 264.683 306 267.878 302.003 267.878ZM207.105 259.32C209.64 264.293 213.105 267.128 216.63 267.128H302.003C305.543 267.128 308.992 264.293 311.527 259.32H207.105Z" fill="#E6E6E6"/>
<path d="M90.735 205.71V207.525H89.58L88.62 221.752H74.49L73.5375 207.525H72.375V205.71H90.735Z" fill="#E6E6E6"/>
<path d="M86.0855 170.407C84.9305 161.932 73.493 159.517 58.9805 159.202C45.173 158.91 40.748 154.027 40.748 154.027C40.748 154.027 40.793 173.805 60.6905 180.975C79.583 187.77 87.248 178.897 86.0855 170.407Z" fill="#E6E6E6"/>
<path d="M79.0349 189.615C79.2749 186.135 84.8399 179.73 98.2274 182.64C107.902 184.748 111.502 179.73 111.502 179.73C111.502 179.73 110.602 193.89 96.0525 198.143C82.23 202.185 78.6074 195.75 79.0349 189.615Z" fill="#E6E6E6"/>
<path d="M82.0865 211.05C82.1619 211.051 82.2365 211.035 82.3052 211.004C82.3739 210.973 82.4349 210.927 82.484 210.87C83.4515 209.722 82.6565 206.977 81.5615 203.175C80.1515 198.3 78.3965 192.225 79.8815 187.822C80.7047 185.497 81.6664 183.223 82.7615 181.012C84.8615 176.572 86.6765 172.762 85.1615 168.727C85.1379 168.663 85.1018 168.604 85.0553 168.554C85.0087 168.504 84.9527 168.464 84.8905 168.435C84.8282 168.407 84.761 168.391 84.6926 168.389C84.6242 168.387 84.5561 168.398 84.4922 168.422C84.4282 168.447 84.3697 168.483 84.32 168.53C84.2704 168.577 84.2305 168.634 84.2028 168.696C84.1751 168.759 84.16 168.826 84.1585 168.895C84.157 168.963 84.1691 169.031 84.194 169.095C85.5515 172.687 83.909 176.167 81.824 180.577C80.715 182.823 79.7383 185.132 78.899 187.492C77.3165 192.202 79.1165 198.45 80.564 203.46C81.419 206.46 82.304 209.46 81.6965 210.21C81.6483 210.262 81.6114 210.323 81.5881 210.39C81.5649 210.457 81.5558 210.528 81.5614 210.598C81.5671 210.669 81.5873 210.737 81.6209 210.8C81.6545 210.862 81.7007 210.916 81.7565 210.96C81.8524 211.028 81.9693 211.06 82.0865 211.05Z" fill="#E6E6E6"/>
<path d="M187.5 320.67C267.811 320.67 332.917 316.869 332.917 312.18C332.917 307.492 267.811 303.69 187.5 303.69C107.188 303.69 42.082 307.492 42.082 312.18C42.082 316.869 107.188 320.67 187.5 320.67Z" fill="#F5F5F5"/>
<path d="M187.47 270.787H80.9701L75.1426 99.5098H181.643L187.47 270.787Z" fill="#E7AC2D"/>
<path d="M192.788 265.47H86.2881L80.4531 94.1924H186.953L192.788 265.47Z" fill="#E7AC2D"/>
<path opacity="0.4" d="M192.788 265.47H86.2881L80.4531 94.1924H186.953L192.788 265.47Z" fill="white"/>
<path d="M157.105 164.673C168.508 153.073 168.023 134.106 156.021 122.308C144.02 110.51 125.046 110.349 113.643 121.949C102.24 133.549 102.725 152.516 114.727 164.314C126.728 176.112 145.702 176.273 157.105 164.673Z" fill="#E7AC2D"/>
<path d="M160.102 143.317C160.256 147.398 159.365 151.451 157.515 155.092C155.518 159.016 152.467 162.305 148.705 164.592C144.942 166.878 140.617 168.071 136.215 168.037C131.709 168.013 127.288 166.804 123.397 164.532C119.506 162.26 116.281 159.004 114.045 155.092C111.96 151.507 110.795 147.462 110.655 143.317C110.516 140.103 111.033 136.895 112.173 133.887C113.313 130.879 115.052 128.134 117.286 125.82C119.519 123.505 122.2 121.668 125.165 120.421C128.13 119.175 131.318 118.544 134.535 118.567C141.161 118.614 147.515 121.212 152.276 125.821C157.037 130.43 159.84 136.696 160.102 143.317Z" fill="white"/>
<path opacity="0.6" d="M157.499 155.093C155.502 159.016 152.451 162.306 148.689 164.593C144.927 166.879 140.602 168.072 136.199 168.038C131.693 168.013 127.273 166.805 123.382 164.533C119.49 162.26 116.265 159.005 114.029 155.093C120.372 150.768 127.878 148.47 135.554 148.5C143.355 148.517 150.981 150.808 157.499 155.093Z" fill="#E7AC2D"/>
<path opacity="0.6" d="M143.079 142.701C147.272 138.435 147.094 131.461 142.681 127.123C138.268 122.784 131.291 122.725 127.098 126.991C122.905 131.256 123.083 138.231 127.496 142.569C131.91 146.907 138.886 146.966 143.079 142.701Z" fill="#E7AC2D"/>
<path d="M171.391 203.445H103.456L102.998 189.945H170.933L171.391 203.445Z" fill="white"/>
<path d="M172.214 227.572H104.272L103.814 214.072H171.757L172.214 227.572Z" fill="white"/>
<path d="M145.995 215.932L129.622 218.182C129.466 218.2 129.315 218.25 129.179 218.329C129.043 218.408 128.925 218.514 128.832 218.641C128.739 218.768 128.673 218.912 128.639 219.066C128.605 219.219 128.602 219.378 128.632 219.532L130.785 230.505C130.855 230.827 131.044 231.111 131.313 231.301C131.582 231.491 131.913 231.574 132.24 231.532L148.612 229.282C148.768 229.263 148.918 229.211 149.053 229.131C149.189 229.051 149.306 228.944 149.398 228.817C149.49 228.689 149.555 228.545 149.589 228.391C149.623 228.238 149.625 228.079 149.595 227.925L147.45 216.952C147.379 216.631 147.191 216.348 146.921 216.159C146.652 215.97 146.321 215.889 145.995 215.932ZM141.292 227.047L138.292 227.445L138 223.905C137.691 223.771 137.418 223.565 137.205 223.304C136.993 223.043 136.846 222.735 136.777 222.405C136.722 222.149 136.721 221.885 136.775 221.629C136.828 221.374 136.935 221.132 137.087 220.92C137.24 220.708 137.435 220.53 137.661 220.398C137.887 220.267 138.138 220.184 138.397 220.155C138.93 220.086 139.469 220.22 139.908 220.53C140.347 220.839 140.653 221.302 140.767 221.827C140.832 222.144 140.812 222.473 140.71 222.78C140.607 223.087 140.425 223.361 140.182 223.575L141.292 227.047Z" fill="#E7AC2D"/>
<path d="M144.375 215.34C144.086 215.376 143.793 215.304 143.554 215.136C143.316 214.968 143.148 214.717 143.085 214.432L142.875 213.36C142.575 211.896 141.755 210.591 140.566 209.686C139.377 208.781 137.901 208.338 136.41 208.44C135.658 208.482 134.924 208.687 134.258 209.038C133.591 209.39 133.009 209.881 132.549 210.478C132.089 211.075 131.764 211.764 131.594 212.498C131.424 213.232 131.414 213.994 131.565 214.732L131.805 215.97C131.833 216.107 131.832 216.248 131.802 216.385C131.772 216.522 131.714 216.651 131.632 216.764C131.549 216.876 131.444 216.971 131.322 217.041C131.201 217.111 131.067 217.155 130.928 217.17C130.638 217.21 130.343 217.139 130.104 216.97C129.864 216.802 129.698 216.549 129.638 216.262L129.435 215.22C129.229 214.245 129.222 213.239 129.415 212.262C129.608 211.285 129.996 210.357 130.556 209.534C131.117 208.711 131.838 208.01 132.676 207.472C133.515 206.935 134.453 206.573 135.435 206.407C137.564 206.049 139.749 206.526 141.537 207.736C143.324 208.947 144.577 210.8 145.035 212.91L145.275 214.14C145.303 214.278 145.301 214.422 145.27 214.56C145.239 214.698 145.179 214.828 145.094 214.941C145.009 215.054 144.901 215.149 144.777 215.217C144.653 215.286 144.516 215.328 144.375 215.34Z" fill="#E7AC2D"/>
<path d="M161.002 246.479H116.775L116.482 237.689H160.702L161.002 246.479Z" fill="#E7AC2D"/>
<path d="M139.665 196.695C139.678 197.016 139.626 197.336 139.512 197.636C139.398 197.935 139.224 198.209 139.001 198.44C138.778 198.671 138.511 198.854 138.215 198.978C137.919 199.102 137.601 199.165 137.28 199.163C136.619 199.157 135.985 198.899 135.509 198.439C135.033 197.98 134.752 197.356 134.723 196.695C134.71 196.375 134.762 196.055 134.876 195.755C134.99 195.455 135.164 195.181 135.387 194.95C135.61 194.72 135.877 194.537 136.173 194.412C136.469 194.288 136.787 194.225 137.108 194.228C137.77 194.231 138.405 194.489 138.881 194.949C139.357 195.408 139.638 196.034 139.665 196.695Z" fill="#263238"/>
<path d="M129 196.695C129.014 197.016 128.963 197.336 128.849 197.637C128.735 197.937 128.561 198.211 128.338 198.442C128.115 198.673 127.847 198.856 127.551 198.98C127.254 199.104 126.936 199.166 126.615 199.163C125.954 199.157 125.321 198.898 124.846 198.439C124.371 197.98 124.091 197.355 124.065 196.695C124.051 196.375 124.103 196.055 124.217 195.755C124.332 195.455 124.505 195.181 124.728 194.95C124.951 194.72 125.219 194.537 125.515 194.412C125.811 194.288 126.129 194.225 126.45 194.228C127.111 194.231 127.745 194.49 128.22 194.949C128.695 195.409 128.974 196.034 129 196.695Z" fill="#263238"/>
<path d="M118.402 196.695C118.415 197.016 118.363 197.336 118.249 197.636C118.135 197.935 117.961 198.209 117.738 198.44C117.515 198.671 117.247 198.854 116.952 198.978C116.656 199.102 116.338 199.165 116.017 199.163C115.356 199.159 114.721 198.901 114.246 198.441C113.771 197.981 113.492 197.356 113.467 196.695C113.454 196.375 113.506 196.055 113.62 195.755C113.734 195.455 113.908 195.181 114.131 194.95C114.354 194.72 114.621 194.537 114.917 194.412C115.213 194.288 115.531 194.225 115.852 194.228C116.513 194.231 117.147 194.49 117.622 194.949C118.097 195.409 118.377 196.034 118.402 196.695Z" fill="#263238"/>
<path d="M150.292 196.695C150.305 197.016 150.253 197.336 150.139 197.636C150.025 197.936 149.851 198.209 149.628 198.44C149.405 198.671 149.137 198.854 148.842 198.978C148.546 199.102 148.228 199.165 147.907 199.163C147.246 199.159 146.612 198.901 146.136 198.441C145.661 197.981 145.382 197.356 145.357 196.695C145.346 196.376 145.4 196.057 145.515 195.759C145.631 195.46 145.806 195.189 146.029 194.96C146.253 194.732 146.521 194.551 146.817 194.429C147.112 194.307 147.43 194.246 147.749 194.25C148.406 194.255 149.035 194.512 149.508 194.966C149.981 195.421 150.261 196.04 150.292 196.695Z" fill="#263238"/>
<path d="M160.919 196.695C160.934 197.016 160.882 197.336 160.769 197.637C160.655 197.937 160.481 198.211 160.258 198.442C160.035 198.673 159.767 198.856 159.47 198.98C159.174 199.104 158.856 199.166 158.534 199.163C157.874 199.157 157.241 198.898 156.766 198.439C156.291 197.98 156.011 197.355 155.984 196.695C155.971 196.375 156.023 196.055 156.137 195.755C156.252 195.455 156.425 195.181 156.648 194.95C156.871 194.72 157.139 194.537 157.435 194.412C157.731 194.288 158.049 194.225 158.369 194.228C159.031 194.231 159.665 194.49 160.14 194.949C160.615 195.409 160.894 196.034 160.919 196.695Z" fill="#263238"/>
<path d="M250.431 130.71C251.429 132.315 252.261 133.845 253.116 135.442C253.971 137.04 254.744 138.645 255.501 140.287C257.047 143.613 258.326 147.057 259.326 150.585C259.461 151.027 259.559 151.5 259.671 151.957L259.836 152.655L259.919 153L260.016 153.57C260.186 154.863 260.107 156.176 259.784 157.44C259.266 159.402 258.479 161.282 257.444 163.027C255.593 166.199 253.356 169.129 250.784 171.75L247.626 169.365C249.211 166.451 250.621 163.446 251.849 160.365C252.396 159.007 252.781 157.59 252.996 156.142C253.065 155.7 253.045 155.249 252.936 154.815L252.636 153.9C252.516 153.525 252.404 153.15 252.261 152.767C251.121 149.673 249.801 146.648 248.309 143.707C246.809 140.707 245.196 137.707 243.584 134.842L250.431 130.71Z" fill="#FF8B7B"/>
<path d="M248.43 168.322L244.98 170.145L248.94 174.78C248.94 174.78 251.415 173.107 251.528 170.557L248.43 168.322Z" fill="#FF8B7B"/>
<path d="M240.352 173.002L244.589 176.37L248.939 174.78L244.979 170.145L240.352 173.002Z" fill="#FF8B7B"/>
<path d="M225.862 106.169C225.779 106.589 225.487 106.882 225.217 106.829C224.947 106.777 224.789 106.387 224.872 105.974C224.954 105.562 225.247 105.224 225.524 105.314C225.802 105.404 225.944 105.749 225.862 106.169Z" fill="#263238"/>
<path d="M225.526 106.89C224.77 108.064 223.857 109.129 222.811 110.055C223.058 110.311 223.357 110.51 223.688 110.64C224.02 110.769 224.375 110.825 224.731 110.805L225.526 106.89Z" fill="#FF5652"/>
<path d="M224.174 121.605V116.685L230.684 117.435C230.684 117.435 230.579 121.665 226.934 122.91L224.174 121.605Z" fill="#FF8B7B"/>
<path d="M226.05 113.145L230.633 114.465L230.715 117.472L224.205 116.685L226.05 113.145Z" fill="#FF8B7B"/>
<path opacity="0.2" d="M230.631 114.465L226.049 113.145L225.156 114.855C225.205 116.202 225.626 117.51 226.373 118.632C227.119 119.755 228.162 120.649 229.386 121.215C230.174 120.115 230.634 118.815 230.714 117.465L230.631 114.465Z" fill="black"/>
<path d="M227.857 104.167C227.905 104.166 227.952 104.151 227.992 104.125C228.032 104.098 228.064 104.06 228.083 104.016C228.103 103.973 228.11 103.924 228.103 103.876C228.096 103.829 228.076 103.784 228.045 103.747C227.781 103.45 227.451 103.22 227.08 103.076C226.71 102.933 226.31 102.88 225.915 102.922C225.85 102.933 225.793 102.97 225.755 103.023C225.717 103.076 225.702 103.143 225.712 103.207C225.723 103.273 225.759 103.331 225.813 103.37C225.866 103.409 225.932 103.426 225.997 103.417C226.31 103.387 226.626 103.431 226.918 103.547C227.211 103.664 227.471 103.848 227.677 104.085C227.7 104.11 227.728 104.13 227.759 104.144C227.79 104.159 227.823 104.166 227.857 104.167Z" fill="#263238"/>
<path d="M237.443 113.76C236.693 117.622 236.228 122.97 238.943 125.542C238.943 125.542 237.893 129.457 230.693 129.457C222.81 129.457 226.905 126.022 226.905 126.022C230.183 125.002 230.153 121.275 229.403 118.275L237.443 113.76Z" fill="#FF8B7B"/>
<path d="M240.404 128.122C241.109 127.132 241.079 123.99 240.329 123.435C239.122 122.542 233.939 122.332 226.972 123.937C227.722 126.982 226.109 128.572 226.109 128.572L240.404 128.122Z" fill="#E7AC2D"/>
<path d="M263.85 306.179C263.636 306.255 263.409 306.287 263.182 306.274C262.956 306.261 262.734 306.203 262.53 306.104C262.452 306.032 262.399 305.938 262.378 305.835C262.356 305.731 262.368 305.624 262.41 305.527C262.433 305.446 262.475 305.371 262.53 305.307C262.586 305.244 262.655 305.193 262.732 305.159C263.445 304.814 265.08 305.482 265.155 305.512C265.177 305.521 265.196 305.536 265.21 305.556C265.223 305.577 265.23 305.6 265.23 305.624C265.23 305.648 265.223 305.672 265.212 305.693C265.2 305.714 265.183 305.732 265.162 305.744C264.739 305.93 264.3 306.076 263.85 306.179ZM262.987 305.332C262.938 305.343 262.89 305.361 262.845 305.384C262.798 305.401 262.756 305.429 262.722 305.466C262.688 305.502 262.663 305.546 262.65 305.594C262.582 305.819 262.65 305.894 262.695 305.917C262.98 306.157 264.03 305.917 264.772 305.639C264.208 305.406 263.598 305.301 262.987 305.332Z" fill="#E7AC2D"/>
<path d="M265.132 305.752H265.072C264.472 305.58 263.197 304.672 263.182 304.08C263.181 303.985 263.213 303.894 263.271 303.82C263.33 303.747 263.412 303.695 263.504 303.675C263.593 303.641 263.688 303.628 263.783 303.636C263.878 303.644 263.969 303.672 264.052 303.72C264.757 304.08 265.207 305.535 265.222 305.602C265.232 305.62 265.238 305.641 265.238 305.662C265.238 305.683 265.232 305.704 265.222 305.722C265.21 305.734 265.196 305.743 265.18 305.748C265.165 305.753 265.148 305.755 265.132 305.752ZM263.632 303.885H263.572C263.422 303.937 263.422 304.012 263.422 304.05C263.422 304.402 264.277 305.115 264.922 305.4C264.764 304.98 264.419 304.147 263.962 303.9C263.86 303.853 263.745 303.848 263.639 303.885H263.632Z" fill="#E7AC2D"/>
<path d="M224.894 307.064C224.219 307.064 223.567 306.967 223.349 306.667C223.292 306.587 223.262 306.491 223.262 306.393C223.262 306.295 223.292 306.199 223.349 306.119C223.392 306.046 223.449 305.982 223.518 305.932C223.586 305.882 223.664 305.846 223.747 305.827C224.624 305.587 226.469 306.637 226.544 306.682C226.567 306.693 226.586 306.712 226.597 306.735C226.607 306.758 226.61 306.784 226.604 306.809C226.601 306.835 226.59 306.859 226.573 306.878C226.555 306.897 226.532 306.909 226.507 306.914C225.975 307.012 225.435 307.062 224.894 307.064ZM224.062 306.037C223.982 306.024 223.901 306.024 223.822 306.037C223.771 306.047 223.723 306.068 223.68 306.097C223.638 306.127 223.602 306.165 223.574 306.209C223.484 306.367 223.522 306.442 223.574 306.487C223.822 306.832 225.149 306.839 226.132 306.697C225.49 306.346 224.787 306.122 224.062 306.037Z" fill="#E7AC2D"/>
<path d="M226.5 306.914H226.448C225.81 306.629 224.55 305.489 224.648 304.889C224.648 304.747 224.768 304.574 225.113 304.544C225.236 304.53 225.361 304.541 225.48 304.577C225.599 304.613 225.709 304.674 225.803 304.754C226.284 305.329 226.572 306.04 226.628 306.787C226.628 306.808 226.623 306.829 226.614 306.849C226.605 306.868 226.592 306.885 226.575 306.899C226.552 306.911 226.526 306.916 226.5 306.914ZM225.21 304.777H225.135C224.91 304.777 224.895 304.882 224.895 304.912C224.835 305.272 225.69 306.172 226.343 306.562C226.286 305.96 226.042 305.391 225.645 304.934C225.522 304.829 225.365 304.773 225.203 304.777H225.21Z" fill="#E7AC2D"/>
<path d="M232.29 306.795H227.017L226.492 294.577H231.765L232.29 306.795Z" fill="#FF8B7B"/>
<path d="M271.013 304.349L265.86 305.467L260.678 294.089L265.838 292.972L271.013 304.349Z" fill="#FF8B7B"/>
<path d="M265.356 304.95L271.154 303.697C271.255 303.676 271.361 303.689 271.453 303.736C271.546 303.782 271.62 303.859 271.664 303.952L273.674 308.317C273.727 308.423 273.755 308.54 273.755 308.658C273.754 308.777 273.726 308.894 273.672 308.999C273.618 309.104 273.539 309.195 273.443 309.265C273.347 309.334 273.236 309.379 273.119 309.397C271.094 309.795 270.081 309.892 267.539 310.44C265.971 310.785 262.431 311.647 260.264 312.112C258.096 312.577 257.354 310.5 258.201 310.117C261.989 308.385 263.564 306.862 264.591 305.445C264.777 305.192 265.049 305.016 265.356 304.95Z" fill="#263238"/>
<path d="M227.055 306.18H232.815C232.919 306.18 233.021 306.216 233.102 306.282C233.184 306.347 233.241 306.438 233.265 306.54L234.307 311.227C234.338 311.34 234.341 311.459 234.318 311.574C234.294 311.689 234.244 311.797 234.171 311.889C234.098 311.981 234.004 312.054 233.898 312.104C233.791 312.153 233.675 312.176 233.557 312.172C231.48 312.135 228.48 312.015 225.87 312.015C222.81 312.015 220.177 312.18 216.592 312.18C214.425 312.18 213.825 309.99 214.732 309.787C218.857 308.887 222.232 308.79 225.795 306.592C226.169 306.342 226.605 306.199 227.055 306.18Z" fill="#263238"/>
<path d="M248.377 126.749C253.32 127.882 257.377 140.504 257.377 140.504L247.5 148.057C244.936 145.315 243.127 141.956 242.25 138.307C240.502 131.692 243.322 125.579 248.377 126.749Z" fill="#E7AC2D"/>
<path opacity="0.4" d="M248.377 126.749C253.32 127.882 257.377 140.504 257.377 140.504L247.5 148.057C244.936 145.315 243.127 141.956 242.25 138.307C240.502 131.692 243.322 125.579 248.377 126.749Z" fill="black"/>
<path d="M222.375 141.802C221.145 143.13 219.915 144.315 218.625 145.552C217.987 146.152 217.342 146.752 216.682 147.33L215.685 148.207L215.437 148.425L215.01 148.77C214.57 149.121 214.082 149.409 213.562 149.625C212.983 149.871 212.361 149.998 211.732 150C211.195 150.002 210.661 149.908 210.157 149.722C209.598 149.509 209.088 149.185 208.657 148.77C208.108 148.233 207.705 147.564 207.487 146.827C207.373 146.464 207.3 146.089 207.27 145.71C207.23 145.266 207.23 144.819 207.27 144.375C207.307 144.015 207.352 143.7 207.412 143.407C207.617 142.385 207.908 141.381 208.282 140.407C208.62 139.482 209.008 138.575 209.445 137.692C209.925 136.74 210.382 136.042 210.84 135.247C212.698 132.203 214.818 129.327 217.177 126.652C219.512 123.993 222.085 121.553 224.865 119.362L227.625 122.205C225.69 124.8 223.785 127.582 222.022 130.32C220.268 133.042 218.666 135.859 217.222 138.757C216.9 139.462 216.472 140.257 216.27 140.827C216.001 141.489 215.769 142.165 215.572 142.852C215.383 143.471 215.24 144.103 215.145 144.742C215.14 144.842 215.14 144.942 215.145 145.042C215.145 145.102 215.145 145.132 215.145 144.975C215.132 144.806 215.1 144.64 215.047 144.48C214.885 143.948 214.588 143.467 214.185 143.085C213.826 142.755 213.405 142.5 212.947 142.335C212.545 142.182 212.118 142.104 211.687 142.102C211.273 142.097 210.862 142.176 210.48 142.335C210.35 142.388 210.225 142.45 210.105 142.522L210.39 142.26L211.297 141.435L213.09 139.755C214.275 138.637 215.467 137.445 216.592 136.335L222.375 141.802Z" fill="#FF8B7B"/>
<path opacity="0.2" d="M244.139 136.02C246.824 138.675 247.702 143.52 247.889 147.72L247.454 148.057C244.89 145.316 243.081 141.956 242.204 138.307C242.107 137.917 242.017 137.557 241.949 137.13L244.139 136.02Z" fill="black"/>
<path d="M217.133 132C216.053 137.7 215.378 149.407 218.506 172.582H246.751C246.946 168.255 244.223 147.12 248.401 126.712C245.279 126.113 242.123 125.714 238.951 125.52C234.954 125.29 230.947 125.29 226.951 125.52C225.631 125.64 224.326 125.835 223.201 126.037C221.704 126.3 220.323 127.01 219.24 128.075C218.156 129.14 217.422 130.508 217.133 132Z" fill="#E7AC2D"/>
<path opacity="0.4" d="M217.133 132C216.053 137.7 215.378 149.407 218.506 172.582H246.751C246.946 168.255 244.223 147.12 248.401 126.712C245.279 126.113 242.123 125.714 238.951 125.52C234.954 125.29 230.947 125.29 226.951 125.52C225.631 125.64 224.326 125.835 223.201 126.037C221.704 126.3 220.323 127.01 219.24 128.075C218.156 129.14 217.422 130.508 217.133 132Z" fill="black"/>
<path opacity="0.2" d="M221.452 140.452L216.352 139.229C216.194 142.319 216.179 146.144 216.404 150.877C218.752 148.207 221.752 144.037 221.452 140.452Z" fill="black"/>
<path opacity="0.2" d="M226.492 294.577L226.762 300.877H232.042L231.772 294.577H226.492Z" fill="black"/>
<path opacity="0.2" d="M265.838 292.972L260.678 294.089L263.348 299.954L268.508 298.837L265.838 292.972Z" fill="black"/>
<path d="M239.948 108.12C238.598 113.175 238.058 116.205 234.938 118.305C230.251 121.5 224.401 117.84 224.251 112.5C224.086 107.677 226.328 100.215 231.751 99.1948C232.942 98.9711 234.171 99.0546 235.322 99.4374C236.472 99.8201 237.506 100.489 238.326 101.382C239.146 102.275 239.726 103.362 240.009 104.541C240.293 105.72 240.272 106.951 239.948 108.12Z" fill="#FF8B7B"/>
<path d="M228.112 108.307C227.857 107.632 226.695 102.404 227.79 101.047C228.885 99.6894 241.372 100.672 243.217 102.487C246.285 105.487 244.155 108.187 240.802 111.659C238.282 114.269 238.185 117.209 236.91 117.659C234.66 118.409 231.225 117.704 230.535 115.327C229.845 112.949 228.112 108.307 228.112 108.307Z" fill="#263238"/>
<path d="M241.701 96.5396C237.291 94.6646 229.019 96.7421 224.549 95.6621C224.492 97.3242 225.039 98.9508 226.088 100.241C227.137 101.532 228.618 102.399 230.256 102.682C233.964 103.389 237.732 103.738 241.506 103.725C246.411 103.5 245.451 98.1371 241.701 96.5396Z" fill="#263238"/>
<path d="M242.393 102.644C244.004 102.803 245.626 102.493 247.065 101.752C247.89 103.747 243.353 104.294 242.393 102.644Z" fill="#263238"/>
<path d="M230.512 108.517C230.41 109.818 229.883 111.049 229.012 112.019C227.857 113.287 226.657 112.492 226.454 110.954C226.274 109.559 226.649 107.204 228.059 106.529C229.469 105.854 230.609 106.949 230.512 108.517Z" fill="#FF8B7B"/>
<path d="M228.518 172.605C228.518 172.605 234.518 212.917 237.795 228.022C241.388 244.56 260.693 299.272 260.693 299.272L270.135 297.225C270.135 297.225 256.635 252.63 253.635 229.507C251.31 211.747 246.743 172.59 246.743 172.59L228.518 172.605Z" fill="#E7AC2D"/>
<path d="M258.426 296.129C258.389 296.129 260.189 299.549 260.189 299.549L270.809 297.247L269.916 294.052L258.426 296.129Z" fill="#263238"/>
<path opacity="0.3" d="M232.304 186.967C239.227 188.324 238.492 214.139 237.659 227.422C235.664 218.032 232.739 199.972 230.744 187.154C231.228 186.916 231.778 186.849 232.304 186.967Z" fill="black"/>
<path d="M218.504 172.604C218.504 172.604 217.754 212.047 218.354 228.104C218.954 244.837 224.796 299.624 224.796 299.624H233.736C233.736 299.624 234.059 245.812 234.486 229.379C234.921 211.469 237.081 172.574 237.081 172.574L218.504 172.604Z" fill="#E7AC2D"/>
<path d="M223.079 296.1C223.034 296.1 223.581 299.805 223.581 299.805H234.449L234.749 296.497L223.079 296.1Z" fill="#263238"/>
<path d="M228.187 133.754C230.714 140.572 215.857 148.604 215.857 148.604L209.422 140.354C209.422 140.354 213.749 131.789 218.999 127.934C225.487 123.179 226.259 128.564 228.187 133.754Z" fill="#E7AC2D"/>
<path opacity="0.4" d="M228.187 133.754C230.714 140.572 215.857 148.604 215.857 148.604L209.422 140.354C209.422 140.354 213.749 131.789 218.999 127.934C225.487 123.179 226.259 128.564 228.187 133.754Z" fill="black"/>
<path d="M286.403 81.9971C301.352 81.9971 313.471 74.274 313.471 64.7471C313.471 55.2202 301.352 47.4971 286.403 47.4971C271.454 47.4971 259.336 55.2202 259.336 64.7471C259.336 74.274 271.454 81.9971 286.403 81.9971Z" fill="#E7AC2D"/>
<path d="M276.638 73.4326C274.855 73.4268 273.13 72.7928 271.768 71.642C270.406 70.4912 269.493 68.8972 269.19 67.1401C268.892 65.2368 269.321 63.2909 270.393 61.6899C271.464 60.0888 273.099 58.95 274.973 58.5001C276.51 58.1458 278.119 58.2824 279.575 58.8904C281.031 59.4985 282.259 60.5476 283.088 61.8901L300.465 58.3051C301.133 58.1588 301.831 58.2699 302.421 58.616C303.01 58.9622 303.448 59.5181 303.645 60.1726C303.736 60.5166 303.756 60.8757 303.703 61.2277C303.651 61.5797 303.527 61.9173 303.34 62.2198C303.152 62.5224 302.905 62.7835 302.613 62.9873C302.321 63.1911 301.991 63.3333 301.643 63.4051L301.193 63.4951C301.126 63.5071 301.063 63.5343 301.008 63.5746C300.953 63.6149 300.909 63.6672 300.878 63.7276C300.85 63.7888 300.836 63.8553 300.836 63.9226C300.836 63.9898 300.85 64.0563 300.878 64.1176L301.185 64.9126C301.288 65.1702 301.298 65.4558 301.213 65.72C301.128 65.9842 300.954 66.2106 300.72 66.3601C300.536 66.474 300.38 66.6284 300.264 66.8117C300.148 66.9949 300.076 67.2021 300.053 67.4176C300.031 67.6648 299.931 67.8987 299.768 68.086C299.605 68.2732 299.387 68.4041 299.145 68.4601L298.793 68.5351C298.548 68.5802 298.296 68.5464 298.072 68.4385C297.848 68.3306 297.665 68.1543 297.548 67.9351C297.392 67.6735 297.159 67.467 296.88 67.3444C296.601 67.2217 296.291 67.1891 295.993 67.251C295.695 67.313 295.424 67.4663 295.217 67.6898C295.011 67.9132 294.879 68.1956 294.84 68.4976C294.819 68.7432 294.721 68.9759 294.559 69.1619C294.397 69.348 294.181 69.4778 293.94 69.5326L293.588 69.6076C293.343 69.6515 293.091 69.6172 292.868 69.5094C292.644 69.4017 292.46 69.226 292.343 69.0076C292.23 68.8216 292.079 68.6622 291.899 68.5404C291.719 68.4187 291.515 68.3375 291.3 68.3026C291.012 68.2678 290.746 68.1291 290.553 67.9123C290.359 67.6955 290.252 67.4155 290.25 67.1251V66.2701C290.247 66.2032 290.23 66.1377 290.199 66.0782C290.168 66.0187 290.125 65.9665 290.072 65.9252C290.02 65.8839 289.959 65.8545 289.894 65.8389C289.829 65.8233 289.761 65.822 289.695 65.8351L284.153 66.9751C283.927 68.5106 283.233 69.9392 282.166 71.0664C281.099 72.1937 279.711 72.9649 278.19 73.2751C277.679 73.3795 277.159 73.4323 276.638 73.4326ZM275.138 59.1826C273.437 59.5799 271.949 60.607 270.975 62.0571C270.001 63.5072 269.612 65.2725 269.888 66.9976C270.183 68.6025 271.042 70.0488 272.311 71.075C273.58 72.1011 275.174 72.6393 276.805 72.5922C278.436 72.5451 279.996 71.9157 281.204 70.8181C282.411 69.7204 283.186 68.2268 283.388 66.6076V66.3376L289.5 65.1001C289.675 65.0576 289.858 65.0548 290.035 65.0917C290.211 65.1287 290.377 65.2045 290.521 65.3137C290.665 65.4228 290.782 65.5626 290.865 65.7228C290.948 65.8831 290.994 66.0598 291 66.2401V67.0951C291.002 67.1969 291.039 67.295 291.104 67.3728C291.17 67.4507 291.26 67.5036 291.36 67.5226C291.688 67.5695 292.001 67.6905 292.275 67.8763C292.549 68.0621 292.778 68.3079 292.943 68.5951C292.982 68.676 293.046 68.7426 293.126 68.7856C293.205 68.8286 293.296 68.8459 293.385 68.8351L293.73 68.7601C293.818 68.7376 293.895 68.6875 293.952 68.6172C294.009 68.547 294.042 68.4603 294.045 68.3701C294.092 67.9032 294.287 67.4634 294.601 67.1143C294.914 66.7652 295.331 66.5249 295.79 66.428C296.249 66.3312 296.727 66.3829 297.155 66.5756C297.583 66.7683 297.938 67.092 298.17 67.5001C298.209 67.5804 298.271 67.6467 298.349 67.6897C298.427 67.7328 298.517 67.7504 298.605 67.7401L298.965 67.6651C299.051 67.6412 299.127 67.5905 299.183 67.5204C299.238 67.4502 299.269 67.3643 299.273 67.2751C299.31 66.9458 299.422 66.6293 299.6 66.3498C299.778 66.0704 300.017 65.8353 300.3 65.6626C300.383 65.6029 300.443 65.5174 300.472 65.4196C300.5 65.3218 300.495 65.2173 300.458 65.1226L300.15 64.3276C300.087 64.1637 300.06 63.9879 300.071 63.8124C300.082 63.637 300.132 63.4662 300.216 63.3119C300.3 63.1576 300.417 63.0236 300.559 62.9192C300.7 62.8148 300.863 62.7426 301.035 62.7076L301.493 62.6101C301.74 62.5573 301.975 62.4551 302.182 62.3096C302.389 62.1641 302.565 61.9783 302.698 61.7634C302.832 61.5484 302.921 61.3087 302.96 61.0586C302.999 60.8084 302.987 60.553 302.925 60.3076C302.779 59.8356 302.459 59.4364 302.031 59.1902C301.602 58.944 301.097 58.8689 300.615 58.9801L282.75 62.6926L282.615 62.4601C281.897 61.1823 280.783 60.1728 279.441 59.5842C278.099 58.9957 276.601 58.8599 275.175 59.1976L275.138 59.1826ZM276.638 70.6426C275.706 70.6529 274.791 70.3924 274.005 69.8926C273.075 69.282 272.386 68.3677 272.054 67.3057C271.723 66.2436 271.77 65.0995 272.188 64.0684C272.606 63.0373 273.368 62.183 274.345 61.6511C275.323 61.1193 276.454 60.9428 277.547 61.1518C278.639 61.3608 279.626 61.9424 280.338 62.7973C281.05 63.6522 281.443 64.7276 281.451 65.8401C281.459 66.9527 281.08 68.0334 280.38 68.8982C279.681 69.763 278.702 70.3583 277.613 70.5826C277.294 70.6403 276.969 70.6655 276.645 70.6576L276.638 70.6426ZM276.638 61.7851C276.358 61.7866 276.079 61.8143 275.805 61.8676C275.283 61.9789 274.787 62.192 274.347 62.4947C273.907 62.7975 273.531 63.184 273.24 63.6322C272.949 64.0803 272.75 64.5814 272.652 65.1067C272.555 65.632 272.563 66.1713 272.674 66.6938C272.785 67.2163 272.998 67.7118 273.301 68.1519C273.604 68.592 273.99 68.9682 274.438 69.259C274.887 69.5497 275.388 69.7494 275.913 69.8465C276.438 69.9436 276.978 69.9364 277.5 69.8251C278.285 69.6618 279.003 69.2699 279.565 68.6989C280.127 68.1279 280.507 67.4033 280.658 66.6164C280.809 65.8295 280.723 65.0156 280.412 64.2773C280.101 63.539 279.579 62.9093 278.91 62.4676C278.246 62.026 277.465 61.7935 276.668 61.8001L276.638 61.7851Z" fill="white"/>
<path opacity="0.6" d="M264.375 92.1144C269.288 92.1144 273.27 89.5759 273.27 86.4444C273.27 83.313 269.288 80.7744 264.375 80.7744C259.463 80.7744 255.48 83.313 255.48 86.4444C255.48 89.5759 259.463 92.1144 264.375 92.1144Z" fill="#E7AC2D"/>
<path opacity="0.3" d="M250.223 94.44C252.24 94.44 253.875 93.3991 253.875 92.115C253.875 90.831 252.24 89.79 250.223 89.79C248.206 89.79 246.57 90.831 246.57 92.115C246.57 93.3991 248.206 94.44 250.223 94.44Z" fill="#E7AC2D"/>
</svg>
