<svg width="18" height="22" viewBox="0 0 18 22" fill="none" xmlns="http://www.w3.org/2000/svg">
<path d="M9.01987 19.5299C6.68987 19.5299 4.35987 19.1599 2.14987 18.4199C1.30987 18.1299 0.669869 17.5399 0.389869 16.7699C0.0998692 15.9999 0.199869 15.1499 0.659869 14.3899L1.80987 12.4799C2.04987 12.0799 2.26987 11.2799 2.26987 10.8099V7.91992C2.26987 4.19992 5.29987 1.16992 9.01987 1.16992C12.7399 1.16992 15.7699 4.19992 15.7699 7.91992V10.8099C15.7699 11.2699 15.9899 12.0799 16.2299 12.4899L17.3699 14.3899C17.7999 15.1099 17.8799 15.9799 17.5899 16.7699C17.2999 17.5599 16.6699 18.1599 15.8799 18.4199C13.6799 19.1599 11.3499 19.5299 9.01987 19.5299ZM9.01987 2.66992C6.12987 2.66992 3.76987 5.01992 3.76987 7.91992V10.8099C3.76987 11.5399 3.46987 12.6199 3.09987 13.2499L1.94987 15.1599C1.72987 15.5299 1.66987 15.9199 1.79987 16.2499C1.91987 16.5899 2.21987 16.8499 2.62987 16.9899C6.80987 18.3899 11.2399 18.3899 15.4199 16.9899C15.7799 16.8699 16.0599 16.5999 16.1899 16.2399C16.3199 15.8799 16.2899 15.4899 16.0899 15.1599L14.9399 13.2499C14.5599 12.5999 14.2699 11.5299 14.2699 10.7999V7.91992C14.2699 5.01992 11.9199 2.66992 9.01987 2.66992Z" fill="#E7AC2D"/>
<path d="M10.8806 2.93969C10.8106 2.93969 10.7406 2.92969 10.6706 2.90969C10.3806 2.82969 10.1006 2.76969 9.8306 2.72969C8.9806 2.61969 8.1606 2.67969 7.3906 2.90969C7.1106 2.99969 6.8106 2.90969 6.6206 2.69969C6.4306 2.48969 6.3706 2.18969 6.4806 1.91969C6.8906 0.869688 7.8906 0.179688 9.0306 0.179688C10.1706 0.179688 11.1706 0.859688 11.5806 1.91969C11.6806 2.18969 11.6306 2.48969 11.4406 2.69969C11.2906 2.85969 11.0806 2.93969 10.8806 2.93969Z" fill="#E7AC2D"/>
<path d="M9.01953 21.8096C8.02953 21.8096 7.06953 21.4096 6.36953 20.7096C5.66953 20.0096 5.26953 19.0496 5.26953 18.0596H6.76953C6.76953 18.6496 7.00953 19.2296 7.42953 19.6496C7.84953 20.0696 8.42953 20.3096 9.01953 20.3096C10.2595 20.3096 11.2695 19.2996 11.2695 18.0596H12.7695C12.7695 20.1296 11.0895 21.8096 9.01953 21.8096Z" fill="#E7AC2D"/>
</svg>
