<svg width="375" height="375" viewBox="0 0 375 375" fill="none" xmlns="http://www.w3.org/2000/svg">
<path d="M350.168 237.15H227.25V166.02H350.168V237.15ZM228 236.4H349.418V166.77H228V236.4Z" fill="#E0E0E0"/>
<path d="M324.81 203.947H243.713V206.325H324.81V203.947Z" fill="#F0F0F0"/>
<path d="M330.398 212.812H243.713V215.407H330.398V212.812Z" fill="#F0F0F0"/>
<path d="M330.398 221.782H243.713V224.377H330.398V221.782Z" fill="#F0F0F0"/>
<path d="M272.055 191.069H243.713V197.242H272.055V191.069Z" fill="#F0F0F0"/>
<path d="M349.791 166.395H227.646V177.72H349.791V166.395Z" fill="#E0E0E0"/>
<path d="M340.396 176.024C340.238 175.874 341.813 173.977 343.906 171.787C345.998 169.597 347.836 167.939 347.986 168.082C348.136 168.224 346.568 170.129 344.476 172.327C342.383 174.524 340.546 176.174 340.396 176.024Z" fill="white"/>
<path d="M347.999 176.024C347.849 176.174 346.019 174.524 343.919 172.327C341.819 170.129 340.252 168.232 340.409 168.082C340.567 167.932 342.389 169.582 344.489 171.787C346.589 173.992 348.142 175.874 347.999 176.024Z" fill="white"/>
<path d="M198.915 25.5371H76.7695V95.9246H198.915V25.5371Z" fill="#E6E6E6"/>
<path d="M173.939 63.0967H92.8418V65.4742H173.939V63.0967Z" fill="#F0F0F0"/>
<path d="M179.527 71.9619H92.8418V74.5569H179.527V71.9619Z" fill="#F0F0F0"/>
<path d="M179.527 80.9316H92.8418V83.5266H179.527V80.9316Z" fill="#F0F0F0"/>
<path d="M121.184 50.2197H92.8418V56.3922H121.184V50.2197Z" fill="#F0F0F0"/>
<path d="M198.915 25.5371H76.7695V36.8621H198.915V25.5371Z" fill="#E0E0E0"/>
<path d="M189.105 35.1143C188.947 34.9718 190.522 33.0668 192.615 30.8768C194.707 28.6868 196.545 27.0294 196.695 27.1794C196.845 27.3294 195.277 29.2268 193.185 31.4168C191.092 33.6068 189.255 35.2493 189.105 35.1143Z" fill="white"/>
<path d="M196.695 35.1144C196.545 35.2644 194.715 33.6144 192.615 31.4169C190.515 29.2194 188.947 27.3294 189.105 27.1794C189.262 27.0294 191.085 28.6794 193.185 30.8769C195.285 33.0744 196.852 34.9719 196.695 35.1144Z" fill="white"/>
<path d="M152.655 156.292H29.7598V85.1543H152.655V156.292ZM30.5098 155.542H151.905V85.9043H30.5098V155.542Z" fill="#E0E0E0"/>
<path d="M127.305 123.09H46.207V125.467H127.305V123.09Z" fill="#F0F0F0"/>
<path d="M132.892 131.955H46.207V134.55H132.892V131.955Z" fill="#F0F0F0"/>
<path d="M132.892 140.925H46.207V143.52H132.892V140.925Z" fill="#F0F0F0"/>
<path d="M74.5495 110.212H46.207V116.384H74.5495V110.212Z" fill="#F0F0F0"/>
<path d="M152.28 85.5293H30.1348V96.8543H152.28V85.5293Z" fill="#E0E0E0"/>
<path d="M294.487 172.59H150.262V301.71H294.487V172.59Z" fill="#E6E6E6"/>
<path d="M157.515 131.917H44.5352V249.299H157.515V131.917Z" fill="#F0F0F0"/>
<path d="M157.515 131.917H44.5352V144.704H157.515V131.917Z" fill="#E0E0E0"/>
<path d="M53.8646 138.18C53.8441 138.644 53.6878 139.091 53.4152 139.467C53.1426 139.843 52.7657 140.13 52.3312 140.293C51.8967 140.457 51.4238 140.489 50.9712 140.386C50.5186 140.283 50.1062 140.049 49.7852 139.714C49.4642 139.379 49.2486 138.957 49.1654 138.5C49.0821 138.044 49.1348 137.572 49.3169 137.146C49.4989 136.719 49.8023 136.354 50.1895 136.098C50.5766 135.842 51.0305 135.706 51.4946 135.705C52.1365 135.721 52.7461 135.99 53.1902 136.454C53.6342 136.917 53.8767 137.538 53.8646 138.18Z" fill="white"/>
<path d="M63.4874 138.18C63.4683 138.646 63.3125 139.096 63.0396 139.474C62.7667 139.852 62.3886 140.142 61.9524 140.307C61.5162 140.471 61.0412 140.504 60.5864 140.401C60.1316 140.298 59.7172 140.064 59.3947 139.727C59.0722 139.39 58.8558 138.966 58.7726 138.507C58.6893 138.048 58.7428 137.575 58.9264 137.146C59.11 136.718 59.4156 136.353 59.8052 136.096C60.1947 135.84 60.6511 135.704 61.1174 135.705C61.7593 135.721 62.3688 135.99 62.8129 136.454C63.257 136.917 63.4995 137.538 63.4874 138.18Z" fill="white"/>
<path d="M73.1104 138.18C73.0913 138.646 72.9356 139.096 72.6627 139.474C72.3897 139.852 72.0117 140.142 71.5755 140.307C71.1393 140.471 70.6642 140.504 70.2095 140.401C69.7547 140.298 69.3403 140.064 69.0177 139.727C68.6952 139.39 68.4789 138.966 68.3956 138.507C68.3124 138.048 68.3659 137.575 68.5495 137.146C68.7331 136.718 69.0387 136.353 69.4282 136.096C69.8178 135.84 70.2741 135.704 70.7404 135.705C71.3823 135.721 71.9919 135.99 72.4359 136.454C72.88 136.917 73.1225 137.538 73.1104 138.18Z" fill="white"/>
<path d="M334.036 51.21H189.811V194.955H334.036V51.21Z" fill="#F0F0F0"/>
<path d="M334.036 51.21H189.811V68.0475H334.036V51.21Z" fill="#E0E0E0"/>
<path d="M202.094 59.4598C202.067 60.0719 201.862 60.6627 201.502 61.159C201.143 61.6553 200.646 62.035 200.073 62.2512C199.499 62.4673 198.875 62.5103 198.278 62.3748C197.68 62.2393 197.136 61.9313 196.712 61.489C196.288 61.0467 196.003 60.4897 195.893 59.887C195.783 59.2842 195.852 58.6625 196.092 58.0988C196.332 57.5352 196.733 57.0545 197.244 56.7164C197.755 56.3784 198.354 56.1978 198.966 56.1973C199.813 56.2169 200.618 56.5713 201.204 57.1827C201.79 57.7942 202.11 58.6129 202.094 59.4598Z" fill="white"/>
<path d="M213.848 57.2549C214.264 57.7064 214.538 58.2703 214.635 58.8763C214.733 59.4823 214.65 60.1037 214.397 60.6629C214.144 61.2221 213.732 61.6945 213.212 62.0212C212.692 62.3479 212.088 62.5144 211.474 62.5001C210.861 62.4858 210.265 62.2912 209.761 61.9406C209.257 61.5901 208.868 61.099 208.641 60.5286C208.414 59.9582 208.361 59.3337 208.486 58.7329C208.612 58.1321 208.912 57.5816 209.348 57.1499C209.959 56.5682 210.776 56.2527 211.62 56.2724C212.463 56.292 213.265 56.6454 213.848 57.2549Z" fill="white"/>
<path d="M227.43 59.4598C227.403 60.0719 227.198 60.6627 226.838 61.159C226.479 61.6553 225.982 62.035 225.409 62.2512C224.835 62.4673 224.211 62.5103 223.614 62.3748C223.016 62.2393 222.472 61.9313 222.048 61.489C221.624 61.0467 221.339 60.4897 221.229 59.887C221.119 59.2842 221.188 58.6625 221.428 58.0988C221.668 57.5352 222.069 57.0545 222.58 56.7164C223.091 56.3784 223.69 56.1978 224.302 56.1973C225.149 56.2169 225.954 56.5713 226.54 57.1827C227.126 57.7942 227.446 58.6129 227.43 59.4598Z" fill="white"/>
<path d="M302.879 339.847C302.879 339.952 250.799 340.042 186.577 340.042C122.354 340.042 70.252 339.952 70.252 339.847C70.252 339.742 122.324 339.652 186.577 339.652C250.829 339.652 302.879 339.75 302.879 339.847Z" fill="#263238"/>
<path d="M252.136 248.032C240.548 239.94 237.923 224.917 238.381 211.41C238.456 209.16 238.208 206.775 239.281 204.802C240.353 202.83 242.858 201.472 244.876 202.417C246.548 203.205 247.276 205.155 248.213 206.767C249.464 208.915 251.297 210.665 253.501 211.815C254.933 212.565 256.711 213.015 258.128 212.235C260.078 211.162 260.303 208.485 260.288 206.235C260.288 202.05 260.263 197.87 260.213 193.695C260.079 191.453 260.306 189.204 260.888 187.035C261.586 184.905 263.138 182.932 265.261 182.332C267.383 181.732 270.031 182.97 270.511 185.16C270.593 186.087 270.616 187.019 270.578 187.95C270.638 188.887 271.073 189.915 271.951 190.2C272.828 190.485 273.743 189.832 274.418 189.172C276.728 186.922 278.303 183.99 279.766 181.095C281.228 178.2 282.661 175.222 284.761 172.755C286.861 170.287 289.763 168.33 293.011 168.142C296.258 167.955 299.641 169.95 300.451 173.1C301.261 176.25 299.423 179.467 297.451 182.025C294.474 185.821 290.966 189.168 287.033 191.962C286.266 192.381 285.653 193.036 285.286 193.83C284.798 195.33 286.216 196.83 287.693 197.302C289.366 197.857 291.181 197.685 292.943 197.895C294.706 198.105 296.581 198.87 297.248 200.52C298.163 202.815 296.243 205.215 294.361 206.79C290.581 209.94 286.289 212.418 281.671 214.117C280.021 214.717 278.288 215.25 276.953 216.405C275.618 217.56 274.823 219.577 275.626 221.16C276.428 222.742 278.491 223.245 280.223 222.922C281.956 222.6 283.493 221.67 285.143 221.047C288.226 219.885 292.201 220.095 294.143 222.757C294.745 223.674 295.126 224.718 295.256 225.808C295.386 226.897 295.262 228.001 294.893 229.035C294.143 231.091 292.987 232.975 291.496 234.577C286.584 240.446 280.201 244.905 273.001 247.5C265.853 249.975 259.231 250.65 252.128 248.047" fill="#E7AC2D"/>
<path d="M297.15 169.994C297.15 169.994 297.083 170.069 296.933 170.204L296.265 170.797C295.68 171.322 294.818 172.087 293.73 173.099C290.647 175.962 287.784 179.053 285.165 182.347C283.493 184.424 281.76 186.779 279.915 189.337C278.07 191.894 276.165 194.654 274.275 197.587C272.26 200.679 270.415 203.879 268.748 207.172C267.878 208.889 267.113 210.682 266.325 212.512L264 218.099C260.935 225.137 258.266 232.341 256.005 239.677C254.184 245.679 252.928 251.838 252.255 258.074C251.819 262.283 251.749 266.521 252.045 270.742C252.165 272.242 252.278 273.389 252.383 274.169C252.428 274.544 252.458 274.844 252.488 275.062V275.369C252.455 275.272 252.433 275.171 252.42 275.069C252.383 274.852 252.338 274.559 252.278 274.184C252.143 273.434 252 272.249 251.865 270.749C251.503 266.521 251.528 262.268 251.94 258.044C252.572 251.781 253.8 245.593 255.608 239.564C257.85 232.208 260.512 224.986 263.58 217.934L265.965 212.369C266.753 210.547 267.525 208.739 268.403 207.014C270.082 203.711 271.942 200.504 273.975 197.407C275.895 194.407 277.83 191.692 279.653 189.157C281.475 186.622 283.238 184.252 284.903 182.182C287.548 178.897 290.449 175.827 293.58 173.002C294.69 172.004 295.575 171.254 296.175 170.752L296.873 170.189C296.958 170.115 297.051 170.049 297.15 169.994Z" fill="#263238"/>
<path d="M268.5 207C268.395 206.691 268.322 206.371 268.283 206.047C268.163 205.425 268.028 204.547 267.87 203.407C267.548 201.157 267.218 198.075 266.865 194.662C266.513 191.25 266.115 188.16 265.785 185.932C265.613 184.822 265.463 183.93 265.358 183.307C265.276 182.988 265.233 182.661 265.23 182.332C265.36 182.632 265.453 182.947 265.508 183.27C265.673 183.885 265.86 184.77 266.07 185.887C266.498 188.137 266.918 191.197 267.27 194.617C267.623 198.037 267.923 201.037 268.155 203.37C268.268 204.42 268.365 205.312 268.44 206.025C268.499 206.346 268.519 206.673 268.5 207Z" fill="#263238"/>
<path d="M297.36 201.614C296.995 201.694 296.624 201.739 296.25 201.749C295.5 201.817 294.435 201.907 293.115 202.057C290.475 202.342 286.845 202.867 282.863 203.617C278.88 204.367 275.303 205.214 272.73 205.867C271.448 206.197 270.413 206.497 269.73 206.699C269.366 206.829 268.989 206.919 268.605 206.969C268.952 206.795 269.313 206.652 269.685 206.542C270.39 206.294 271.41 205.949 272.685 205.582C275.243 204.832 278.82 203.939 282.818 203.174C286.204 202.527 289.621 202.051 293.055 201.749C294.383 201.637 295.455 201.592 296.205 201.577C296.591 201.551 296.978 201.563 297.36 201.614Z" fill="#263238"/>
<path d="M255.975 239.04C255.895 238.931 255.83 238.813 255.78 238.687L255.285 237.645C254.858 236.737 254.28 235.395 253.59 233.752C252.195 230.452 250.418 225.832 248.528 220.702C246.638 215.572 244.898 210.952 243.578 207.615C242.933 205.995 242.4 204.667 242.003 203.677L241.583 202.605C241.525 202.481 241.484 202.35 241.463 202.215C241.543 202.323 241.608 202.442 241.658 202.567L242.153 203.61C242.573 204.517 243.158 205.86 243.848 207.502C245.243 210.802 247.02 215.422 248.91 220.552C250.8 225.682 252.54 230.302 253.86 233.64C254.505 235.26 255.038 236.587 255.428 237.577C255.6 238.005 255.743 238.327 255.855 238.65C255.914 238.774 255.954 238.905 255.975 239.04Z" fill="#263238"/>
<path d="M294.286 226.688C294.166 226.756 294.038 226.809 293.904 226.845L292.794 227.22L288.691 228.548C285.226 229.673 280.441 231.278 275.191 233.048C269.941 234.818 265.134 236.392 261.646 237.442C259.906 237.975 258.489 238.38 257.506 238.65L256.374 238.942C256.242 238.984 256.106 239.012 255.969 239.025C256.089 238.956 256.217 238.903 256.351 238.867L257.461 238.492L261.564 237.165C265.029 236.04 269.814 234.435 275.064 232.665C280.314 230.895 285.114 229.32 288.601 228.27C290.349 227.737 291.759 227.332 292.749 227.062L293.881 226.77C294.013 226.728 294.149 226.701 294.286 226.688Z" fill="#263238"/>
<path d="M278.655 44.7604L274.792 46.1404L273.135 41.0929C270.09 31.7854 260.385 26.8429 251.467 29.9854C242.55 33.1279 237.802 43.3354 240.847 52.6429L242.505 57.6904L238.627 59.0779C237.148 59.6514 235.948 60.7726 235.275 62.2085C234.601 63.6444 234.507 65.2845 235.012 66.7879L245.76 99.6304C245.983 100.375 246.353 101.066 246.849 101.665C247.344 102.263 247.955 102.756 248.645 103.113C249.335 103.471 250.09 103.686 250.864 103.746C251.639 103.806 252.418 103.71 253.155 103.463L293.182 89.1454C294.68 88.5729 295.898 87.4418 296.579 85.9899C297.26 84.538 297.352 82.8785 296.835 81.3604L286.08 48.5179C285.851 47.7758 285.475 47.0873 284.974 46.4937C284.473 45.9 283.858 45.4133 283.165 45.0626C282.472 44.712 281.715 44.5045 280.94 44.4525C280.166 44.4006 279.388 44.5053 278.655 44.7604ZM248.144 50.0104C247.323 47.5903 247.471 44.9464 248.556 42.6326C249.641 40.3187 251.579 38.5145 253.965 37.5979C255.142 37.1949 256.39 37.0333 257.631 37.1227C258.873 37.2122 260.084 37.5508 261.192 38.1185C262.3 38.6862 263.283 39.4712 264.081 40.4268C264.879 41.3824 265.476 42.4889 265.837 43.6804L267.487 48.7279L249.795 55.0579L248.144 50.0104ZM270.645 79.1554L273.39 87.5404C273.44 87.7086 273.424 87.8896 273.344 88.0461C273.264 88.2025 273.128 88.3222 272.962 88.3804L269.115 89.7529C268.961 89.7954 268.798 89.7769 268.658 89.7014C268.518 89.6259 268.413 89.4992 268.365 89.3479L265.597 81.0004C264.071 80.9173 262.607 80.3699 261.4 79.4317C260.194 78.4934 259.303 77.209 258.847 75.7504C258.195 73.8221 258.314 71.7162 259.179 69.8737C260.044 68.0311 261.589 66.5948 263.49 65.8654C264.428 65.5448 265.421 65.4164 266.41 65.4879C267.399 65.5593 268.364 65.8291 269.246 66.2812C270.129 66.7333 270.911 67.3585 271.547 68.1195C272.183 68.8804 272.659 69.7616 272.947 70.7104C273.43 72.1921 273.469 73.7823 273.062 75.2863C272.654 76.7903 271.817 78.1427 270.652 79.1779L270.645 79.1554Z" fill="#E7AC2D"/>
<path d="M274.62 46.0505C274.62 46.1555 267.457 48.848 258.547 52.0505C249.637 55.253 242.37 57.8255 242.332 57.7505C242.295 57.6755 249.495 54.9605 258.412 51.7505C267.33 48.5405 274.582 45.953 274.62 46.0505Z" fill="#263238"/>
<path d="M283.125 47.4307C283.158 47.4958 283.186 47.5635 283.207 47.6332C283.267 47.7832 283.335 47.9782 283.425 48.2182C283.62 48.7657 283.89 49.5232 284.227 50.4682L287.107 58.8532C288.307 62.4082 289.74 66.6232 291.33 71.3032C292.08 73.6507 292.965 76.0957 293.79 78.6682C294.231 79.9938 294.422 81.3901 294.352 82.7857C294.289 83.5114 294.082 84.2175 293.745 84.8632C293.384 85.5067 292.903 86.0746 292.327 86.5357C291.169 87.3815 289.883 88.0372 288.517 88.4782L284.655 89.8657L277.342 92.4832L264.96 96.8932L256.597 99.8332L254.347 100.583L253.747 100.778C253.683 100.807 253.615 100.824 253.545 100.831C253.545 100.831 253.605 100.831 253.732 100.741L254.317 100.508L256.567 99.6607L264.885 96.6007L277.245 92.1007L284.542 89.4607L288.405 88.0657C289.731 87.6426 290.98 87.0069 292.102 86.1832C292.638 85.7553 293.086 85.2282 293.422 84.6307C293.74 84.0335 293.931 83.3774 293.985 82.7032C294.054 81.3586 293.871 80.0129 293.445 78.7357C292.635 76.1857 291.78 73.7182 291.007 71.3707C289.447 66.6832 288.007 62.4532 286.867 58.8982C285.727 55.3432 284.767 52.4857 284.107 50.4757C283.792 49.4932 283.552 48.7282 283.357 48.1732L283.177 47.5732C283.155 47.5277 283.137 47.4799 283.125 47.4307Z" fill="#263238"/>
<path d="M262.005 37.0879C262.005 37.0879 261.607 36.8929 260.872 36.5929C259.825 36.1904 258.717 35.9673 257.595 35.9329C255.932 35.8759 254.277 36.1884 252.75 36.8479C250.892 37.6692 249.304 38.9975 248.167 40.6804C247.023 42.3586 246.409 44.3417 246.405 46.3729C246.42 48.0377 246.673 49.6918 247.155 51.2854C247.545 52.6504 247.95 53.7379 248.22 54.4954C248.379 54.8802 248.509 55.2763 248.61 55.6804C248.397 55.3207 248.218 54.9415 248.077 54.5479C247.77 53.7979 247.327 52.7329 246.892 51.3604C246.358 49.7501 246.068 48.0691 246.03 46.3729C246.01 44.265 246.638 42.2018 247.83 40.4629C249.006 38.7185 250.659 37.3491 252.592 36.5179C254.167 35.8548 255.874 35.5623 257.58 35.6629C258.726 35.7213 259.852 35.9882 260.902 36.4504C261.183 36.58 261.454 36.7304 261.712 36.9004C261.819 36.9473 261.918 37.0106 262.005 37.0879Z" fill="#263238"/>
<path d="M262.35 66.4356C262.47 66.363 262.595 66.3003 262.725 66.2481C263.1 66.0787 263.489 65.9407 263.888 65.8356C264.52 65.649 265.172 65.5382 265.83 65.5056C266.725 65.4575 267.621 65.5927 268.463 65.9031C270.383 66.5781 272.145 68.5356 273.015 71.1531C273.432 72.5578 273.432 74.0534 273.015 75.4581C272.552 76.9827 271.723 78.3706 270.6 79.5006L270.645 79.2981C271.642 82.0356 272.73 85.0056 273.855 88.1031L273.923 88.2906L273.735 88.3581L272.018 88.9281L268.268 90.1806L268.08 90.2406L268.02 90.0531C266.992 86.9481 265.867 84.0531 265.02 81.2106L265.185 81.3381C263.719 81.2163 262.321 80.666 261.165 79.7556C260.119 78.9502 259.262 77.9264 258.652 76.7556C258.103 75.7173 257.829 74.5551 257.858 73.3806C257.892 72.1802 258.192 71.0023 258.735 69.9313C259.278 68.8603 260.052 67.9227 261 67.1856C261.39 66.8688 261.828 66.6157 262.298 66.4356C261.874 66.6869 261.463 66.9598 261.067 67.2531C260.026 68.1342 259.228 69.2679 258.75 70.5456C258.34 71.5091 258.148 72.5514 258.188 73.5979C258.228 74.6443 258.499 75.6689 258.983 76.5981C259.582 77.7244 260.418 78.7071 261.435 79.4781C262.538 80.3434 263.87 80.8651 265.268 80.9781H265.395L265.433 81.0906C266.258 83.8806 267.39 86.7981 268.433 89.9181L268.185 89.7981L271.935 88.5456L273.645 87.9681L273.525 88.2231C272.408 85.1256 271.328 82.1481 270.338 79.4106V79.2981L270.428 79.2081C271.518 78.125 272.331 76.7949 272.798 75.3306C273.195 73.9869 273.195 72.5568 272.798 71.2131C271.98 68.6931 270.293 66.7806 268.463 66.1056C267.652 65.7932 266.788 65.6478 265.92 65.6781C265.272 65.6929 264.628 65.781 264 65.9406C262.883 66.2181 262.357 66.4731 262.35 66.4356Z" fill="#263238"/>
<path d="M239.167 282.99L164.249 282.645C159.923 282.621 155.783 280.881 152.738 277.807C149.694 274.733 147.994 270.576 148.012 266.25L148.807 78.4425C148.816 76.299 149.247 74.1783 150.076 72.2016C150.905 70.2249 152.115 68.4309 153.638 66.9222C155.16 65.4135 156.965 64.2197 158.95 63.409C160.934 62.5983 163.058 62.1866 165.202 62.1975L240.112 62.5425C244.438 62.5643 248.579 64.3024 251.625 67.375C254.671 70.4476 256.373 74.6035 256.357 78.93L255.562 266.73C255.553 268.874 255.122 270.996 254.293 272.973C253.464 274.951 252.254 276.746 250.732 278.256C249.21 279.765 247.405 280.961 245.42 281.773C243.436 282.585 241.311 282.999 239.167 282.99Z" fill="#455A64"/>
<path d="M240 69.0003H225.48C225.006 69.0091 224.539 69.1111 224.105 69.3006C223.67 69.49 223.278 69.7632 222.949 70.1045C222.62 70.4457 222.362 70.8484 222.189 71.2896C222.016 71.7307 221.931 72.2016 221.94 72.6753V75.3078C221.949 75.7812 221.865 76.2517 221.691 76.6924C221.518 77.1331 221.26 77.5353 220.931 77.876C220.602 78.2166 220.209 78.4891 219.775 78.6777C219.341 78.8664 218.874 78.9675 218.4 78.9753L190.095 78.8478C189.138 78.8223 188.229 78.4178 187.57 77.7231C186.91 77.0284 186.553 76.1004 186.578 75.1428V72.5103C186.602 71.554 186.246 70.6271 185.588 69.9326C184.93 69.2382 184.024 68.8328 183.068 68.8053H177.96L165.248 68.7453C162.224 68.7273 159.316 69.9082 157.161 72.0294C155.006 74.1506 153.78 77.0392 153.75 80.0628L153 263.378C152.993 264.878 153.282 266.365 153.849 267.753C154.417 269.142 155.253 270.405 156.309 271.47C157.364 272.536 158.62 273.383 160.003 273.963C161.386 274.544 162.87 274.846 164.37 274.853L239.13 275.198C240.631 275.205 242.119 274.916 243.508 274.348C244.898 273.78 246.162 272.944 247.228 271.887C248.294 270.831 249.142 269.575 249.723 268.19C250.303 266.806 250.606 265.321 250.613 263.82L251.363 80.5053C251.381 77.4732 250.194 74.558 248.063 72.4006C245.932 70.2432 243.032 69.0201 240 69.0003Z" fill="white"/>
<path d="M229.625 250.572L174.035 250.332C173.458 250.332 172.993 249.702 173 248.938L173.06 234.395C173.06 233.645 173.533 233 174.11 233L229.7 233.255C230.02 233.31 230.306 233.487 230.499 233.748C230.692 234.01 230.777 234.335 230.735 234.657L230.683 249.185C230.683 249.957 230.203 250.58 229.625 250.572Z" fill="#E7AC2D"/>
<path d="M188.496 245.049C188.073 245.049 187.667 244.981 187.277 244.846C186.892 244.705 186.594 244.526 186.382 244.309L186.618 243.845C186.819 244.041 187.087 244.206 187.423 244.341C187.764 244.471 188.122 244.537 188.496 244.537C188.854 244.537 189.144 244.493 189.366 244.406C189.594 244.314 189.759 244.192 189.862 244.041C189.971 243.889 190.025 243.721 190.025 243.536C190.025 243.314 189.96 243.135 189.83 243C189.705 242.864 189.54 242.758 189.334 242.683C189.128 242.601 188.9 242.531 188.651 242.471C188.401 242.412 188.152 242.349 187.903 242.284C187.653 242.214 187.423 242.122 187.212 242.008C187.006 241.894 186.838 241.745 186.707 241.56C186.583 241.371 186.52 241.124 186.52 240.821C186.52 240.539 186.594 240.281 186.74 240.048C186.892 239.81 187.122 239.62 187.431 239.479C187.74 239.332 188.136 239.259 188.618 239.259C188.938 239.259 189.255 239.305 189.57 239.398C189.884 239.484 190.155 239.606 190.383 239.763L190.179 240.243C189.936 240.081 189.675 239.961 189.399 239.885C189.128 239.81 188.865 239.772 188.61 239.772C188.269 239.772 187.987 239.818 187.764 239.91C187.542 240.002 187.377 240.127 187.268 240.284C187.165 240.436 187.114 240.609 187.114 240.804C187.114 241.027 187.176 241.205 187.301 241.341C187.431 241.476 187.599 241.582 187.805 241.658C188.017 241.734 188.247 241.802 188.496 241.861C188.746 241.921 188.992 241.986 189.236 242.056C189.486 242.127 189.713 242.219 189.919 242.333C190.131 242.441 190.299 242.588 190.423 242.772C190.554 242.956 190.619 243.198 190.619 243.496C190.619 243.772 190.543 244.03 190.391 244.268C190.239 244.501 190.006 244.691 189.692 244.837C189.383 244.978 188.984 245.049 188.496 245.049ZM191.93 245V239.308H192.531V245H191.93ZM194.383 245V239.308H194.879L198.807 244.252H198.547V239.308H199.14V245H198.644L194.725 240.056H194.985V245H194.383ZM203.494 245.049C203.061 245.049 202.659 244.978 202.291 244.837C201.928 244.691 201.61 244.488 201.339 244.228C201.074 243.967 200.865 243.661 200.713 243.309C200.567 242.956 200.494 242.571 200.494 242.154C200.494 241.737 200.567 241.352 200.713 240.999C200.865 240.647 201.077 240.341 201.348 240.081C201.619 239.82 201.936 239.62 202.299 239.479C202.668 239.332 203.069 239.259 203.502 239.259C203.936 239.259 204.332 239.327 204.69 239.463C205.053 239.598 205.362 239.804 205.616 240.081L205.242 240.463C205.004 240.224 204.741 240.053 204.454 239.95C204.166 239.847 203.857 239.796 203.527 239.796C203.174 239.796 202.849 239.856 202.551 239.975C202.258 240.089 202.001 240.254 201.779 240.471C201.562 240.682 201.391 240.932 201.266 241.219C201.147 241.501 201.087 241.813 201.087 242.154C201.087 242.49 201.147 242.802 201.266 243.089C201.391 243.376 201.562 243.629 201.779 243.845C202.001 244.057 202.258 244.222 202.551 244.341C202.849 244.455 203.172 244.512 203.519 244.512C203.844 244.512 204.15 244.463 204.437 244.366C204.73 244.268 204.998 244.103 205.242 243.87L205.584 244.325C205.313 244.564 204.996 244.745 204.633 244.87C204.269 244.989 203.89 245.049 203.494 245.049ZM205.007 244.252V242.154H205.584V244.325L205.007 244.252ZM209.415 245V239.308H210.017V245H209.415ZM211.869 245V239.308H212.365L216.292 244.252H216.032V239.308H216.626V245H216.13L212.21 240.056H212.47V245H211.869Z" fill="#E8E8E3"/>
<path d="M185.44 122.887L166.15 122.8L166.134 126.34L185.424 126.427L185.44 122.887Z" fill="#E7AC2D"/>
<path opacity="0.1" d="M185.44 122.887L166.15 122.8L166.134 126.34L185.424 126.427L185.44 122.887Z" fill="black"/>
<path d="M241.987 144.622C242.138 144.607 242.287 144.572 242.429 144.517C242.637 144.436 242.817 144.298 242.95 144.119C243.083 143.94 243.162 143.727 243.179 143.505C243.179 142.312 243.179 140.572 243.179 138.337C243.179 137.22 243.179 135.967 243.179 134.587C243.179 134.25 243.179 133.897 243.179 133.545C243.228 133.203 243.154 132.855 242.969 132.562C242.866 132.422 242.732 132.308 242.577 132.229C242.422 132.149 242.251 132.107 242.077 132.105H240.907H230.069L167.339 131.872C167.179 131.87 167.02 131.906 166.876 131.977C166.733 132.049 166.609 132.155 166.514 132.285C166.333 132.578 166.264 132.927 166.319 133.267C166.319 134.017 166.319 134.767 166.319 135.517C166.319 137.017 166.319 138.517 166.319 140.017C166.319 140.767 166.319 141.517 166.319 142.267C166.288 142.617 166.288 142.968 166.319 143.317C166.359 143.467 166.432 143.606 166.533 143.723C166.635 143.84 166.762 143.932 166.904 143.992C167.052 144.051 167.21 144.079 167.369 144.075H171.187L187.844 144.165L216.044 144.337L235.057 144.487L240.224 144.547H241.567C241.874 144.547 242.024 144.547 242.024 144.547H241.567H240.224H235.057H216.044L187.844 144.457L171.187 144.39H167.369C167.159 144.398 166.95 144.363 166.754 144.285C166.557 144.201 166.381 144.072 166.241 143.91C166.101 143.747 165.999 143.555 165.944 143.347C165.901 143.15 165.886 142.948 165.899 142.747V142.192C165.899 141.442 165.899 140.692 165.899 139.942C165.899 138.442 165.899 136.942 165.899 135.442C165.899 134.692 165.899 133.942 165.899 133.192C165.885 132.993 165.885 132.792 165.899 132.592C165.928 132.372 166.013 132.162 166.147 131.985C166.276 131.804 166.448 131.657 166.646 131.556C166.845 131.456 167.064 131.405 167.287 131.407L230.017 131.752L240.854 131.827H242.024C242.231 131.827 242.434 131.877 242.616 131.973C242.799 132.068 242.956 132.206 243.074 132.375C243.286 132.701 243.371 133.093 243.314 133.477C243.314 133.83 243.314 134.182 243.314 134.52C243.314 135.885 243.314 137.137 243.314 138.27C243.314 140.52 243.262 142.245 243.247 143.445C243.229 143.676 243.145 143.896 243.005 144.081C242.866 144.266 242.676 144.407 242.459 144.487C242.317 144.575 242.154 144.622 241.987 144.622Z" fill="#E0E0E0"/>
<path d="M207.225 135.638H171.945V138.945H207.225V135.638Z" fill="#E7AC2D"/>
<path opacity="0.2" d="M207.225 135.638H171.945V138.945H207.225V135.638Z" fill="white"/>
<path d="M185.309 155.181L166.02 155.094L166.003 158.634L185.293 158.721L185.309 155.181Z" fill="#E7AC2D"/>
<path opacity="0.1" d="M185.309 155.181L166.02 155.094L166.003 158.634L185.293 158.721L185.309 155.181Z" fill="black"/>
<path d="M241.499 176.918C241.651 176.899 241.801 176.871 241.949 176.835C242.159 176.768 242.351 176.658 242.514 176.51C242.677 176.363 242.807 176.182 242.894 175.98C243.012 175.677 243.058 175.351 243.029 175.028C243.029 174.668 243.029 174.278 243.029 173.843C243.029 172.973 243.029 171.983 243.029 170.843V166.08C243.065 165.735 242.989 165.388 242.812 165.09C242.627 164.784 242.336 164.558 241.994 164.453C241.621 164.386 241.24 164.366 240.862 164.393H230.069L167.557 164.16C167.22 164.161 166.896 164.284 166.643 164.506C166.391 164.728 166.228 165.034 166.184 165.368C166.184 166.08 166.184 166.868 166.184 167.618C166.184 169.118 166.184 170.618 166.184 172.118C166.184 172.868 166.184 173.618 166.184 174.368C166.156 174.718 166.171 175.071 166.229 175.418C166.323 175.722 166.516 175.986 166.777 176.168C167.054 176.343 167.379 176.427 167.707 176.408H168.749H170.917L187.514 176.49L215.617 176.663L234.562 176.813L239.714 176.873H234.562H215.617L187.499 176.843L170.902 176.783H167.639C167.234 176.807 166.831 176.699 166.492 176.475C166.15 176.239 165.901 175.892 165.787 175.493C165.719 175.112 165.699 174.724 165.727 174.338C165.727 173.588 165.727 172.838 165.727 172.088C165.727 170.588 165.727 169.088 165.727 167.588C165.727 166.838 165.727 166.088 165.727 165.338C165.781 164.909 165.991 164.515 166.315 164.229C166.639 163.943 167.057 163.785 167.489 163.785L230.002 164.13L240.794 164.213C241.196 164.188 241.599 164.216 241.994 164.295C242.384 164.422 242.713 164.69 242.917 165.045C243.111 165.375 243.195 165.759 243.157 166.14C243.157 166.493 243.157 166.838 243.157 167.183C243.157 168.54 243.157 169.785 243.157 170.933C243.157 172.08 243.157 173.048 243.157 173.933C243.157 174.36 243.157 174.758 243.157 175.125C243.184 175.461 243.13 175.798 242.999 176.108C242.902 176.315 242.761 176.498 242.586 176.646C242.412 176.793 242.207 176.901 241.987 176.963C241.823 176.976 241.658 176.961 241.499 176.918Z" fill="#E0E0E0"/>
<path d="M185.163 188.879L165.873 188.791L165.857 192.331L185.147 192.419L185.163 188.879Z" fill="#E7AC2D"/>
<path opacity="0.1" d="M185.163 188.879L165.873 188.791L165.857 192.331L185.147 192.419L185.163 188.879Z" fill="black"/>
<path d="M241.35 210.6C241.501 210.582 241.652 210.555 241.8 210.518C242.008 210.451 242.2 210.342 242.363 210.195C242.526 210.049 242.656 209.87 242.745 209.67C242.862 209.367 242.908 209.041 242.88 208.718C242.88 208.35 242.88 207.968 242.88 207.525C242.88 206.663 242.88 205.665 242.88 204.525V199.763C242.915 199.418 242.839 199.071 242.662 198.773C242.473 198.473 242.183 198.249 241.845 198.143C241.471 198.073 241.091 198.051 240.712 198.075H229.92L167.407 197.843C167.071 197.843 166.746 197.966 166.494 198.188C166.241 198.41 166.078 198.717 166.035 199.05C166.035 199.8 166.035 200.55 166.035 201.3C166.035 202.8 166.035 204.3 166.035 205.8C166.035 206.55 166.035 207.3 166.035 208.05C166.007 208.398 166.022 208.748 166.08 209.093C166.169 209.399 166.363 209.664 166.627 209.843C166.902 210.022 167.229 210.107 167.557 210.083H170.82L187.417 210.173L215.52 210.345L234.465 210.495L239.617 210.555H234.465H215.52L187.417 210.473L170.82 210.405H167.557C167.151 210.433 166.748 210.324 166.41 210.098C166.068 209.861 165.819 209.514 165.705 209.115C165.637 208.734 165.617 208.346 165.645 207.96C165.645 207.21 165.645 206.46 165.645 205.71C165.645 204.21 165.645 202.71 165.645 201.21C165.645 200.46 165.645 199.71 165.645 198.923C165.698 198.494 165.905 198.1 166.228 197.814C166.552 197.529 166.968 197.371 167.4 197.37L229.912 197.715L240.705 197.798C241.107 197.773 241.51 197.801 241.905 197.88C242.294 198.007 242.623 198.275 242.827 198.63C243.021 198.96 243.105 199.344 243.067 199.725C243.067 200.078 243.067 200.43 243.067 200.768C243.067 202.125 243.067 203.37 243.067 204.518C243.067 205.665 243.067 206.633 243.067 207.518C243.067 207.945 243.067 208.343 243.067 208.71C243.096 209.046 243.042 209.383 242.91 209.693C242.812 209.9 242.671 210.083 242.497 210.231C242.322 210.378 242.117 210.486 241.897 210.548C241.721 210.608 241.534 210.626 241.35 210.6Z" fill="#E0E0E0"/>
<path d="M206.471 168.867L171.191 168.707L171.176 172.014L206.456 172.175L206.471 168.867Z" fill="#E7AC2D"/>
<path opacity="0.2" d="M206.471 168.867L171.191 168.707L171.176 172.014L206.456 172.175L206.471 168.867Z" fill="white"/>
<path d="M174.383 204.48C174.361 204.782 174.25 205.071 174.066 205.31C173.881 205.55 173.63 205.73 173.344 205.828C173.058 205.927 172.75 205.939 172.457 205.863C172.164 205.788 171.899 205.628 171.696 205.404C171.493 205.18 171.361 204.901 171.315 204.602C171.269 204.303 171.312 203.997 171.438 203.722C171.564 203.447 171.769 203.215 172.025 203.056C172.282 202.896 172.58 202.815 172.883 202.823C173.301 202.846 173.692 203.033 173.973 203.343C174.254 203.654 174.401 204.062 174.383 204.48Z" fill="#E7AC2D"/>
<path d="M179.159 204.502C179.173 204.714 179.144 204.926 179.074 205.126C179.003 205.325 178.892 205.509 178.747 205.664C178.603 205.819 178.428 205.942 178.233 206.027C178.039 206.111 177.829 206.155 177.617 206.155C177.405 206.155 177.196 206.111 177.001 206.027C176.807 205.942 176.632 205.819 176.487 205.664C176.343 205.509 176.232 205.325 176.161 205.126C176.09 204.926 176.061 204.714 176.076 204.502C176.061 204.291 176.09 204.079 176.161 203.879C176.232 203.679 176.343 203.496 176.487 203.341C176.632 203.186 176.807 203.062 177.001 202.978C177.196 202.893 177.405 202.85 177.617 202.85C177.829 202.85 178.039 202.893 178.233 202.978C178.428 203.062 178.603 203.186 178.747 203.341C178.892 203.496 179.003 203.679 179.074 203.879C179.144 204.079 179.173 204.291 179.159 204.502Z" fill="#E7AC2D"/>
<path d="M183.945 204.525C183.923 204.827 183.813 205.115 183.628 205.355C183.444 205.595 183.193 205.775 182.907 205.873C182.621 205.972 182.312 205.984 182.019 205.908C181.726 205.833 181.462 205.673 181.259 205.449C181.056 205.225 180.923 204.946 180.877 204.647C180.831 204.348 180.874 204.042 181.001 203.767C181.127 203.492 181.331 203.26 181.588 203.101C181.845 202.941 182.143 202.86 182.445 202.868C182.862 202.893 183.253 203.081 183.533 203.39C183.814 203.7 183.962 204.108 183.945 204.525Z" fill="#E7AC2D"/>
<path d="M188.723 204.548C188.7 204.849 188.59 205.138 188.406 205.378C188.221 205.617 187.97 205.797 187.684 205.896C187.398 205.994 187.089 206.006 186.796 205.931C186.503 205.855 186.239 205.696 186.036 205.471C185.833 205.247 185.701 204.968 185.655 204.669C185.609 204.37 185.652 204.064 185.778 203.789C185.904 203.515 186.108 203.283 186.365 203.123C186.622 202.963 186.92 202.882 187.223 202.89C187.64 202.915 188.03 203.103 188.311 203.413C188.591 203.723 188.739 204.13 188.723 204.548Z" fill="#E7AC2D"/>
<path d="M193.499 204.563C193.478 204.865 193.369 205.154 193.185 205.395C193.001 205.636 192.751 205.817 192.465 205.916C192.179 206.016 191.87 206.029 191.576 205.954C191.283 205.88 191.018 205.72 190.814 205.496C190.61 205.272 190.477 204.993 190.43 204.694C190.384 204.395 190.426 204.089 190.553 203.813C190.679 203.538 190.883 203.306 191.14 203.146C191.397 202.986 191.696 202.905 191.999 202.913C192.414 202.938 192.804 203.124 193.084 203.433C193.364 203.741 193.513 204.146 193.499 204.563Z" fill="#E7AC2D"/>
<path d="M198.284 204.585C198.263 204.885 198.155 205.173 197.973 205.413C197.791 205.653 197.543 205.835 197.259 205.936C196.975 206.036 196.668 206.052 196.375 205.98C196.083 205.909 195.817 205.753 195.612 205.533C195.407 205.312 195.27 205.037 195.219 204.74C195.169 204.443 195.206 204.138 195.326 203.861C195.447 203.585 195.645 203.35 195.898 203.186C196.15 203.021 196.445 202.934 196.746 202.935C197.169 202.95 197.568 203.133 197.856 203.442C198.144 203.751 198.298 204.162 198.284 204.585Z" fill="#E7AC2D"/>
<path d="M203.063 204.608C203.078 204.819 203.049 205.031 202.978 205.231C202.907 205.431 202.796 205.614 202.651 205.769C202.507 205.924 202.332 206.048 202.138 206.132C201.943 206.217 201.734 206.26 201.522 206.26C201.31 206.26 201.1 206.217 200.906 206.132C200.711 206.048 200.536 205.924 200.392 205.769C200.247 205.614 200.136 205.431 200.065 205.231C199.994 205.031 199.966 204.819 199.98 204.608C199.966 204.396 199.994 204.184 200.065 203.984C200.136 203.784 200.247 203.601 200.392 203.446C200.536 203.291 200.711 203.168 200.906 203.083C201.1 202.999 201.31 202.955 201.522 202.955C201.734 202.955 201.943 202.999 202.138 203.083C202.332 203.168 202.507 203.291 202.651 203.446C202.796 203.601 202.907 203.784 202.978 203.984C203.049 204.184 203.078 204.396 203.063 204.608Z" fill="#E7AC2D"/>
<path d="M207.84 204.63C207.82 204.931 207.712 205.219 207.53 205.459C207.348 205.699 207.1 205.881 206.816 205.981C206.532 206.082 206.225 206.098 205.932 206.026C205.639 205.955 205.374 205.799 205.169 205.579C204.963 205.358 204.827 205.083 204.776 204.786C204.725 204.489 204.762 204.183 204.883 203.907C205.003 203.631 205.202 203.396 205.454 203.232C205.707 203.067 206.002 202.98 206.303 202.98C206.725 202.996 207.124 203.179 207.412 203.488C207.701 203.797 207.855 204.208 207.84 204.63Z" fill="#E7AC2D"/>
<path d="M212.618 204.652C212.597 204.955 212.488 205.244 212.304 205.485C212.12 205.725 211.87 205.907 211.584 206.006C211.298 206.106 210.989 206.119 210.695 206.044C210.402 205.97 210.137 205.81 209.933 205.586C209.729 205.362 209.596 205.083 209.55 204.784C209.503 204.485 209.546 204.178 209.672 203.903C209.798 203.628 210.002 203.396 210.259 203.236C210.516 203.075 210.815 202.994 211.118 203.003C211.533 203.028 211.923 203.214 212.203 203.522C212.483 203.831 212.632 204.236 212.618 204.652Z" fill="#E7AC2D"/>
<g opacity="0.2">
<path d="M174.383 204.48C174.361 204.782 174.25 205.071 174.066 205.31C173.881 205.55 173.63 205.73 173.344 205.828C173.058 205.927 172.75 205.939 172.457 205.863C172.164 205.788 171.899 205.628 171.696 205.404C171.493 205.18 171.361 204.901 171.315 204.602C171.269 204.303 171.312 203.997 171.438 203.722C171.564 203.447 171.769 203.215 172.025 203.056C172.282 202.896 172.58 202.815 172.883 202.823C173.301 202.846 173.692 203.033 173.973 203.343C174.254 203.654 174.401 204.062 174.383 204.48Z" fill="white"/>
<path d="M179.16 204.503C179.175 204.715 179.146 204.927 179.076 205.127C179.005 205.326 178.894 205.509 178.749 205.665C178.605 205.82 178.43 205.943 178.235 206.028C178.041 206.112 177.831 206.156 177.619 206.156C177.407 206.156 177.198 206.112 177.003 206.028C176.809 205.943 176.634 205.82 176.489 205.665C176.345 205.509 176.234 205.326 176.163 205.127C176.092 204.927 176.063 204.715 176.078 204.503C176.063 204.292 176.092 204.08 176.163 203.88C176.234 203.68 176.345 203.497 176.489 203.342C176.634 203.187 176.809 203.063 177.003 202.979C177.198 202.894 177.407 202.851 177.619 202.851C177.831 202.851 178.041 202.894 178.235 202.979C178.43 203.063 178.605 203.187 178.749 203.342C178.894 203.497 179.005 203.68 179.076 203.88C179.146 204.08 179.175 204.292 179.16 204.503Z" fill="white"/>
<path d="M183.945 204.525C183.923 204.827 183.813 205.115 183.628 205.355C183.444 205.595 183.193 205.775 182.907 205.873C182.621 205.972 182.312 205.984 182.019 205.908C181.726 205.833 181.462 205.673 181.259 205.449C181.056 205.225 180.923 204.946 180.877 204.647C180.831 204.348 180.874 204.042 181.001 203.767C181.127 203.492 181.331 203.26 181.588 203.101C181.845 202.941 182.143 202.86 182.445 202.868C182.862 202.893 183.253 203.081 183.533 203.39C183.814 203.7 183.962 204.108 183.945 204.525Z" fill="white"/>
<path d="M188.723 204.548C188.7 204.849 188.59 205.138 188.406 205.378C188.221 205.617 187.97 205.797 187.684 205.896C187.398 205.994 187.089 206.006 186.796 205.931C186.503 205.855 186.239 205.696 186.036 205.471C185.833 205.247 185.701 204.968 185.655 204.669C185.609 204.37 185.652 204.064 185.778 203.789C185.904 203.515 186.108 203.283 186.365 203.123C186.622 202.963 186.92 202.882 187.223 202.89C187.64 202.915 188.03 203.103 188.311 203.413C188.591 203.723 188.739 204.13 188.723 204.548Z" fill="white"/>
<path d="M193.5 204.563C193.48 204.865 193.371 205.154 193.187 205.395C193.003 205.636 192.753 205.817 192.467 205.916C192.181 206.016 191.872 206.029 191.578 205.954C191.285 205.88 191.02 205.72 190.816 205.496C190.612 205.272 190.479 204.993 190.432 204.694C190.386 204.395 190.428 204.089 190.555 203.813C190.681 203.538 190.885 203.306 191.142 203.146C191.399 202.986 191.698 202.905 192 202.913C192.416 202.938 192.806 203.124 193.086 203.433C193.366 203.741 193.515 204.146 193.5 204.563Z" fill="white"/>
<path d="M198.286 204.586C198.265 204.886 198.157 205.174 197.975 205.414C197.793 205.654 197.545 205.836 197.261 205.937C196.977 206.037 196.67 206.053 196.377 205.981C196.085 205.91 195.819 205.754 195.614 205.534C195.409 205.313 195.272 205.038 195.221 204.741C195.171 204.444 195.208 204.139 195.328 203.862C195.449 203.586 195.647 203.351 195.9 203.187C196.152 203.022 196.447 202.935 196.748 202.936C197.171 202.951 197.57 203.134 197.858 203.443C198.146 203.752 198.3 204.163 198.286 204.586Z" fill="white"/>
<path d="M203.063 204.608C203.078 204.819 203.049 205.031 202.978 205.231C202.907 205.431 202.796 205.614 202.651 205.769C202.507 205.924 202.332 206.048 202.138 206.132C201.943 206.217 201.734 206.26 201.522 206.26C201.31 206.26 201.1 206.217 200.906 206.132C200.711 206.048 200.536 205.924 200.392 205.769C200.247 205.614 200.136 205.431 200.065 205.231C199.994 205.031 199.966 204.819 199.98 204.608C199.966 204.396 199.994 204.184 200.065 203.984C200.136 203.784 200.247 203.601 200.392 203.446C200.536 203.291 200.711 203.168 200.906 203.083C201.1 202.999 201.31 202.955 201.522 202.955C201.734 202.955 201.943 202.999 202.138 203.083C202.332 203.168 202.507 203.291 202.651 203.446C202.796 203.601 202.907 203.784 202.978 203.984C203.049 204.184 203.078 204.396 203.063 204.608Z" fill="white"/>
<path d="M207.84 204.63C207.82 204.931 207.712 205.219 207.53 205.459C207.348 205.699 207.1 205.881 206.816 205.981C206.532 206.082 206.225 206.098 205.932 206.026C205.639 205.955 205.374 205.799 205.169 205.579C204.963 205.358 204.827 205.083 204.776 204.786C204.725 204.489 204.762 204.183 204.883 203.907C205.003 203.631 205.202 203.396 205.454 203.232C205.707 203.067 206.002 202.98 206.303 202.98C206.725 202.996 207.124 203.179 207.412 203.488C207.701 203.797 207.855 204.208 207.84 204.63Z" fill="white"/>
<path d="M212.618 204.652C212.597 204.955 212.488 205.244 212.304 205.485C212.12 205.725 211.87 205.907 211.584 206.006C211.298 206.106 210.989 206.119 210.695 206.044C210.402 205.97 210.137 205.81 209.933 205.586C209.729 205.362 209.596 205.083 209.55 204.784C209.503 204.485 209.546 204.178 209.672 203.903C209.798 203.628 210.002 203.396 210.259 203.236C210.516 203.075 210.815 202.994 211.118 203.003C211.533 203.028 211.923 203.214 212.203 203.522C212.483 203.831 212.632 204.236 212.618 204.652Z" fill="white"/>
</g>
<path d="M205.83 96.3829C206.351 96.1535 206.793 95.7759 207.101 95.2972C207.409 94.8184 207.569 94.2597 207.562 93.6904C207.582 93.3204 207.525 92.9503 207.397 92.6026C207.269 92.2549 207.071 91.937 206.816 91.6682C206.561 91.3994 206.254 91.1854 205.914 91.0391C205.573 90.8928 205.206 90.8174 204.836 90.8174C204.465 90.8174 204.099 90.8928 203.758 91.0391C203.418 91.1854 203.111 91.3994 202.856 91.6682C202.601 91.937 202.403 92.2549 202.275 92.6026C202.146 92.9503 202.09 93.3204 202.11 93.6904C202.098 94.2654 202.257 94.8308 202.567 95.3154C202.877 95.7999 203.323 96.1818 203.85 96.4129C199.65 97.0429 199.837 101.603 199.837 101.603L209.767 101.648C209.767 101.648 210 97.0054 205.83 96.3829Z" fill="#E7AC2D"/>
<path opacity="0.1" d="M205.83 96.3829C206.351 96.1535 206.793 95.7759 207.101 95.2972C207.409 94.8184 207.569 94.2597 207.562 93.6904C207.582 93.3204 207.525 92.9503 207.397 92.6026C207.269 92.2549 207.071 91.937 206.816 91.6682C206.561 91.3994 206.254 91.1854 205.914 91.0391C205.573 90.8928 205.206 90.8174 204.836 90.8174C204.465 90.8174 204.099 90.8928 203.758 91.0391C203.418 91.1854 203.111 91.3994 202.856 91.6682C202.601 91.937 202.403 92.2549 202.275 92.6026C202.146 92.9503 202.09 93.3204 202.11 93.6904C202.098 94.2654 202.257 94.8308 202.567 95.3154C202.877 95.7999 203.323 96.1818 203.85 96.4129C199.65 97.0429 199.837 101.603 199.837 101.603L209.767 101.648C209.767 101.648 210 97.0054 205.83 96.3829Z" fill="black"/>
<path d="M221.964 104.588L186.572 104.428L186.553 108.658L221.945 108.818L221.964 104.588Z" fill="#E7AC2D"/>
<path opacity="0.2" d="M221.964 104.588L186.572 104.428L186.553 108.658L221.945 108.818L221.964 104.588Z" fill="white"/>
<path d="M91.8524 126.51H91.4999L90.4799 126.585C89.9279 126.618 89.379 126.691 88.8374 126.802C88.4866 126.852 88.1387 126.919 87.7949 127.005L86.6324 127.327C84.6538 127.934 82.787 128.859 81.1049 130.065C78.8826 131.678 77.0269 133.743 75.6599 136.125C74.8565 137.498 74.2171 138.96 73.7549 140.482C73.2693 142.137 72.9897 143.845 72.9224 145.567C72.8777 146.472 72.8928 147.379 72.9674 148.282C72.9674 148.74 73.0949 149.197 73.1549 149.662C73.2054 150.131 73.2932 150.595 73.4174 151.05C74.0918 154.059 75.4603 156.87 77.4135 159.257C79.3668 161.643 81.8508 163.541 84.6674 164.797C86.706 165.677 88.891 166.168 91.1099 166.245C93.4017 166.371 95.6958 166.042 97.8599 165.277L98.5199 165.03H98.6099L98.6849 165.075L108.142 169.875L107.865 170.115C106.852 166.98 105.877 163.942 104.932 161.025V160.912L105.015 160.83C107.309 158.519 109.012 155.689 109.98 152.58C110.856 149.737 111.112 146.74 110.73 143.79C110.39 141.168 109.547 138.637 108.247 136.335C107.127 134.357 105.682 132.583 103.972 131.085C102.562 129.899 101.001 128.906 99.3299 128.13C98.0655 127.584 96.7487 127.17 95.3999 126.892L93.8999 126.645L92.8124 126.562L92.1524 126.517H91.9274C92.0022 126.509 92.0777 126.509 92.1524 126.517H92.8199L93.9074 126.562L95.4074 126.78C96.773 127.037 98.1078 127.437 99.3899 127.972C101.09 128.739 102.679 129.73 104.115 130.92C105.856 132.411 107.332 134.186 108.48 136.17C109.816 138.497 110.685 141.062 111.037 143.722C111.451 146.718 111.213 149.767 110.34 152.662C109.366 155.836 107.637 158.726 105.3 161.085L105.345 160.89C106.29 163.807 107.272 166.845 108.292 169.972L108.435 170.43L108.007 170.212L98.5499 165.42H98.7149L98.0399 165.667C95.8341 166.443 93.4976 166.78 91.1624 166.657C88.8957 166.571 86.665 166.062 84.5849 165.157C80.6172 163.458 77.3161 160.505 75.1874 156.75C74.2079 155.016 73.4925 153.145 73.0649 151.2C72.9478 150.733 72.8602 150.26 72.8024 149.782C72.7424 149.31 72.6449 148.845 72.6224 148.38C72.4194 145.711 72.7015 143.028 73.4549 140.46C73.9286 138.917 74.5858 137.436 75.4124 136.05C76.812 133.647 78.7064 131.568 80.9699 129.952C82.6797 128.743 84.5778 127.826 86.5874 127.237L87.7649 126.937C88.1115 126.857 88.462 126.794 88.8149 126.75C89.3622 126.648 89.9162 126.588 90.4724 126.57L91.4999 126.532C91.6168 126.517 91.7345 126.509 91.8524 126.51Z" fill="#E7AC2D"/>
<path d="M96.1269 144H94.7394L91.7394 139.785V137.017C91.7394 137.017 89.5944 136.882 89.8494 140.505C90.1044 144.127 89.8494 143.205 89.8494 143.205C89.8494 143.205 85.2969 143.205 84.9219 143.617C84.5469 144.03 84.5244 148.425 84.4719 150.877C84.4431 151.468 84.6128 152.052 84.9539 152.536C85.2949 153.02 85.7879 153.376 86.3544 153.547C86.5132 153.591 86.6771 153.614 86.8419 153.615C87.9819 153.615 93.7794 152.692 93.7794 152.692H96.1719L96.1269 144Z" fill="#E7AC2D"/>
<path d="M100.094 143.257L99.2391 152.737H96.8691V143.452L100.094 143.257Z" fill="#E7AC2D"/>
<path d="M128.363 336.255V329.842L116.865 329.76L116.768 339.457L117.48 339.51C120.653 339.712 133.62 340.012 135.75 339.352C138.12 338.617 128.363 336.255 128.363 336.255Z" fill="#E7AC2D"/>
<path d="M136.022 338.753C136.022 338.858 131.717 338.948 126.414 338.948C121.112 338.948 116.807 338.858 116.807 338.753C116.807 338.648 121.112 338.558 126.414 338.558C131.717 338.558 136.022 338.648 136.022 338.753Z" fill="#263238"/>
<path d="M128.565 337.568C128.467 337.516 128.565 337.178 128.797 336.818C129.03 336.458 129.345 336.308 129.42 336.383C129.495 336.458 129.337 336.743 129.112 337.051C128.887 337.358 128.662 337.621 128.565 337.568Z" fill="#263238"/>
<path d="M129.3 337.988C129.195 337.988 129.248 337.568 129.473 337.171C129.698 336.773 129.998 336.533 130.08 336.593C130.163 336.653 130.028 336.991 129.818 337.343C129.608 337.696 129.398 338.026 129.3 337.988Z" fill="#263238"/>
<path d="M120.272 338.723C120.227 338.723 120.054 338.588 119.807 338.303C119.505 337.937 119.168 337.6 118.802 337.298C118.441 337.01 118.012 336.822 117.557 336.751C117.204 336.706 116.979 336.751 116.957 336.706C116.934 336.661 117.152 336.503 117.564 336.473C118.109 336.462 118.64 336.642 119.064 336.983C119.462 337.307 119.797 337.701 120.054 338.146C120.227 338.476 120.317 338.693 120.272 338.723Z" fill="#263238"/>
<path d="M128.603 336.36C128.655 336.45 128.46 336.675 128.13 336.795C127.8 336.915 127.508 336.87 127.493 336.795C127.478 336.72 127.71 336.562 127.995 336.457C128.28 336.352 128.543 336.27 128.603 336.36Z" fill="#263238"/>
<path d="M128.423 335.738C128.423 335.85 128.123 335.94 127.733 335.948C127.343 335.955 127.036 335.865 127.043 335.76C127.051 335.655 127.358 335.558 127.733 335.55C128.108 335.543 128.408 335.633 128.423 335.738Z" fill="#263238"/>
<path d="M156.675 336.255V329.842L145.178 329.76L145.08 339.36L145.793 339.412C148.965 339.615 161.94 340.012 164.063 339.352C166.433 338.617 156.675 336.255 156.675 336.255Z" fill="#E7AC2D"/>
<path d="M164.333 338.767C164.333 338.872 160.035 338.962 154.725 338.962C149.415 338.962 145.125 338.872 145.125 338.767C145.125 338.662 149.423 338.572 154.725 338.572C160.028 338.572 164.333 338.662 164.333 338.767Z" fill="#263238"/>
<path d="M156.878 337.568C156.788 337.516 156.878 337.178 157.111 336.818C157.343 336.458 157.658 336.308 157.733 336.383C157.808 336.458 157.651 336.743 157.426 337.051C157.201 337.358 156.976 337.621 156.878 337.568Z" fill="#263238"/>
<path d="M157.613 337.988C157.515 337.988 157.56 337.568 157.793 337.171C158.025 336.773 158.318 336.533 158.4 336.593C158.483 336.653 158.34 336.991 158.13 337.343C157.92 337.696 157.718 338.026 157.613 337.988Z" fill="#263238"/>
<path d="M148.584 338.723C148.539 338.723 148.374 338.588 148.119 338.303C147.817 337.937 147.48 337.6 147.114 337.298C146.754 337.01 146.325 336.822 145.869 336.751C145.524 336.706 145.292 336.751 145.269 336.706C145.247 336.661 145.464 336.503 145.877 336.473C146.421 336.462 146.952 336.642 147.377 336.983C147.777 337.305 148.112 337.7 148.367 338.146C148.539 338.476 148.629 338.693 148.584 338.723Z" fill="#263238"/>
<path d="M156.915 336.36C156.968 336.45 156.773 336.675 156.443 336.795C156.113 336.915 155.82 336.87 155.805 336.795C155.79 336.72 156.023 336.562 156.308 336.457C156.593 336.352 156.855 336.27 156.915 336.36Z" fill="#263238"/>
<path d="M156.752 335.738C156.752 335.85 156.452 335.94 156.062 335.948C155.672 335.955 155.372 335.865 155.379 335.76C155.387 335.655 155.687 335.558 156.062 335.55C156.437 335.543 156.752 335.633 156.752 335.738Z" fill="#263238"/>
<path d="M199.036 145.831C198.736 145.523 197.993 145.673 197.993 145.673C198.068 145.241 198.068 144.8 197.993 144.368C197.858 143.948 196.913 144.031 196.913 144.031C196.87 143.677 196.87 143.319 196.913 142.966C196.921 142.887 196.904 142.808 196.865 142.74C196.826 142.672 196.767 142.617 196.696 142.583C196.249 142.401 195.768 142.314 195.286 142.328C194.708 141.916 197.048 138.638 197.918 137.588C198.788 136.538 198.631 135.721 197.858 135.721C197.326 135.721 194.596 138.871 193.756 139.928C192.916 140.986 190.688 143.926 190.613 141.578C190.538 139.231 189.593 137.461 189.001 137.161C188.408 136.861 187.778 137.566 188.101 138.218C188.384 138.959 188.561 139.737 188.626 140.528C188.707 141.158 188.679 141.798 188.543 142.418C188.295 143.573 187.956 144.706 187.531 145.808H187.471C187.471 145.808 171.106 161.506 169.921 162.623C168.863 163.628 147.593 161.431 143.326 160.981C141.876 160.768 140.411 160.668 138.946 160.681C137.093 160.763 136.763 161.026 134.918 161.048C130.259 161.1 125.61 161.509 121.013 162.271C118.932 162.625 116.987 163.543 115.392 164.927C113.797 166.31 112.613 168.105 111.968 170.116C107.671 183.541 97.9357 215.318 96.2182 233.168C94.9204 235.522 93.7487 237.943 92.7082 240.421C91.5007 243.706 91.7932 243.818 92.1982 243.893C93.2932 244.096 94.5382 238.201 95.0032 239.626C95.4682 241.051 92.6407 246.653 93.7882 246.818C95.2882 247.028 96.4807 240.818 96.6232 240.323C96.7657 239.828 97.5082 239.986 97.3732 240.451C97.1557 241.111 95.0482 248.108 96.5182 248.333C97.3282 248.453 97.4182 246.976 97.4182 246.976C97.4182 246.976 98.9182 240.278 99.6007 240.413C100.283 240.548 99.5557 244.501 99.2107 245.821C98.8657 247.141 99.3457 247.808 100.051 247.486C100.531 247.261 101.678 243.248 101.993 241.943C102.308 240.638 103.096 237.023 104.153 239.116C105.211 241.208 106.816 242.423 107.476 242.453C107.624 242.436 107.765 242.375 107.878 242.277C107.992 242.18 108.074 242.051 108.113 241.906C108.153 241.762 108.148 241.609 108.1 241.467C108.052 241.325 107.962 241.201 107.843 241.111C107.276 240.556 106.788 239.925 106.396 239.236C106.046 238.699 105.792 238.105 105.646 237.481C105.343 236.237 105.168 234.965 105.121 233.686L105.001 232.936C106.681 224.618 111.518 200.206 118.501 184.613L121.366 190.508L122.611 194.873L114.976 213.721L147.541 213.293L142.681 194.588L148.583 175.088C154.966 175.231 171.353 175.471 174.083 174.233C177.518 172.733 195.286 150.293 195.286 150.293C196.444 149.393 197.553 148.432 198.608 147.413C198.608 147.413 199.688 146.506 199.036 145.831Z" fill="#FFBE9D"/>
<path d="M113.542 199.792C114.487 196.567 119.34 180.622 119.34 180.622C119.34 180.622 121.725 193.62 121.095 195.187C120.515 196.529 119.831 197.823 119.047 199.057C113.542 207.435 114.262 211.627 114.262 211.627L147.525 210.615C147.6 205.965 144.847 195.15 144.277 193.425C143.707 191.7 145.605 186.052 145.605 186.052C145.605 186.052 149.355 182.235 149.22 180.27C149.149 178.505 148.93 176.749 148.567 175.02L168.817 175.77L168.18 162.045L139.095 159.135C138.082 161.992 128.925 160.59 128.925 160.59C119.04 160.92 118.425 162.735 114.315 165.93C110.205 169.125 103.402 196.545 103.402 196.545L113.542 199.792Z" fill="#E7AC2D"/>
<path d="M133.209 196.545C132.633 196.648 132.046 196.678 131.462 196.635C130.374 196.635 128.882 196.56 127.239 196.395C125.597 196.23 124.112 195.998 123.054 195.788C122.471 195.712 121.899 195.566 121.352 195.353C121.938 195.353 122.523 195.408 123.099 195.518C124.164 195.653 125.642 195.84 127.277 196.005C128.912 196.17 130.397 196.283 131.469 196.358C132.054 196.365 132.636 196.428 133.209 196.545Z" fill="#263238"/>
<path d="M135.488 193.718C134.912 194 134.302 194.209 133.673 194.34C130.681 195.127 127.594 195.493 124.501 195.428C123.861 195.449 123.221 195.388 122.596 195.248C123.227 195.168 123.864 195.135 124.501 195.15C125.678 195.113 127.298 195.03 129.083 194.82C130.868 194.61 132.458 194.31 133.583 194.07C134.208 193.903 134.845 193.786 135.488 193.718Z" fill="#263238"/>
<path d="M146.677 181.103C146.662 181.674 146.584 182.243 146.445 182.798C146.25 183.84 145.95 185.265 145.567 186.825C145.185 188.385 144.817 189.825 144.487 190.8C144.355 191.358 144.158 191.899 143.902 192.413C143.944 191.843 144.05 191.279 144.217 190.733C144.502 189.563 144.825 188.213 145.185 186.735C145.545 185.258 145.89 183.908 146.175 182.738C146.276 182.174 146.445 181.625 146.677 181.103Z" fill="#263238"/>
<path d="M113.896 197.88C112.16 197.612 110.448 197.213 108.773 196.687C107.061 196.287 105.382 195.761 103.748 195.112C105.482 195.385 107.194 195.783 108.871 196.305C110.583 196.704 112.262 197.23 113.896 197.88Z" fill="#263238"/>
<path d="M148.929 174.856C148.646 174.904 148.357 174.904 148.074 174.856C147.29 174.775 146.521 174.591 145.786 174.308C144.559 173.847 143.443 173.134 142.507 172.216C141.572 171.298 140.84 170.194 140.356 168.976C139.822 167.635 139.594 166.193 139.689 164.753C139.722 163.566 140.077 162.409 140.716 161.408C141.166 160.733 141.837 160.237 142.614 160.006C142.821 159.948 143.036 159.92 143.251 159.923C143.401 159.923 143.476 159.923 143.476 159.923C143.476 159.923 143.161 159.923 142.659 160.126C141.946 160.389 141.342 160.882 140.941 161.528C139.921 163.133 139.636 166.066 140.724 168.803C141.23 170.094 142.022 171.253 143.041 172.193C143.876 172.962 144.838 173.581 145.884 174.023C146.865 174.411 147.886 174.69 148.929 174.856Z" fill="#263238"/>
<path d="M166.41 175.5C166.222 173.2 166.162 170.892 166.23 168.585C166.171 166.281 166.241 163.975 166.44 161.678C166.628 163.975 166.688 166.281 166.62 168.585C166.683 170.892 166.613 173.201 166.41 175.5Z" fill="#263238"/>
<path d="M138.901 159.976C138.984 158.303 139.156 156.413 139.156 156.413C139.156 156.413 143.296 155.956 143.544 151.681C143.791 147.406 143.544 137.543 143.544 137.543L136.044 133.703L127.719 140.251L129.001 161.626L136.636 162.113C137.22 162.129 137.786 161.913 138.211 161.513C138.635 161.112 138.884 160.559 138.901 159.976Z" fill="#FFBE9D"/>
<path d="M139.642 148.298C139.642 148.298 139.642 148.381 139.575 148.478C139.519 148.549 139.447 148.605 139.365 148.642C139.282 148.678 139.192 148.694 139.102 148.688C138.622 148.688 138.157 148.133 137.992 147.488C137.914 147.175 137.914 146.848 137.992 146.536C138.008 146.399 138.057 146.269 138.136 146.156C138.214 146.043 138.32 145.952 138.442 145.891C138.543 145.849 138.657 145.849 138.757 145.891C138.832 145.928 138.893 145.988 138.93 146.063C138.982 146.191 138.93 146.273 138.93 146.266C138.93 146.258 138.93 146.191 138.855 146.116C138.816 146.062 138.758 146.025 138.693 146.011C138.628 145.997 138.56 146.008 138.502 146.041C138.41 146.096 138.334 146.174 138.28 146.267C138.226 146.36 138.197 146.466 138.195 146.573C138.132 146.852 138.132 147.142 138.195 147.421C138.345 148.006 138.75 148.478 139.11 148.523C139.18 148.533 139.252 148.528 139.32 148.508C139.389 148.489 139.452 148.456 139.507 148.411C139.597 148.351 139.627 148.291 139.642 148.298Z" fill="#EB996E"/>
<path d="M146.115 135.233C145.538 133.268 143.445 132.293 141.54 131.753C138.638 130.928 135.503 130.568 132.668 131.61C129.833 132.653 126.428 134.483 126.428 137.61C124.755 137.475 123.795 138.938 123.135 140.753C122.713 141.858 122.46 143.022 122.385 144.203C122.175 148.298 121.028 153.953 118.373 156.953C116.873 158.625 114.795 159.78 113.94 161.865C113.19 163.673 113.58 165.818 112.883 167.648C112.26 169.26 110.888 170.408 109.883 171.81C108.859 173.401 108.256 175.226 108.132 177.114C108.007 179.002 108.364 180.891 109.17 182.603C109.982 184.271 111.125 185.756 112.529 186.968C113.933 188.18 115.569 189.093 117.338 189.653C120.841 190.719 124.577 190.755 128.1 189.758C130.745 189.125 133.211 187.902 135.315 186.18C137.468 184.422 138.947 181.974 139.5 179.25C140.033 176.19 139.178 173.078 138.54 170.033C136.545 160.41 137.115 159.908 139.635 150.975C139.695 150.818 139.725 150.653 139.77 150.495C139.815 150.338 139.838 150.263 139.868 150.143C139.939 149.79 139.977 149.43 139.98 149.07C139.612 149.207 139.213 149.236 138.829 149.154C138.445 149.071 138.092 148.881 137.813 148.605C137.533 148.311 137.337 147.947 137.247 147.551C137.158 147.154 137.177 146.741 137.303 146.355C137.48 145.933 137.743 145.552 138.077 145.238C138.41 144.925 138.806 144.684 139.238 144.533C140.07 144.188 140.963 144.008 141.78 143.625C143.513 142.8 144.713 141.09 145.53 139.298C146.202 138.055 146.41 136.614 146.115 135.233Z" fill="#263238"/>
<path d="M139.943 148.5C140.101 148.734 140.232 148.986 140.333 149.25C140.558 149.722 140.858 150.39 141.188 151.163L141.248 151.305H141.09L140.34 151.373C139.823 151.373 139.388 151.47 138.878 151.462C138.833 151.453 138.792 151.431 138.758 151.401C138.724 151.371 138.698 151.333 138.683 151.29C138.66 151.222 138.66 151.148 138.683 151.08C138.7 150.979 138.723 150.879 138.75 150.78L138.885 150.248C138.953 149.892 139.059 149.545 139.2 149.212C139.186 149.575 139.133 149.934 139.043 150.285L138.938 150.817C138.9 150.997 138.833 151.275 138.938 151.252C139.313 151.252 139.845 151.17 140.34 151.14L141.09 151.072L140.993 151.237C140.67 150.487 140.4 149.782 140.243 149.295C140.105 149.046 140.004 148.778 139.943 148.5Z" fill="#E7AC2D"/>
<path d="M114.264 211.628L147.526 210.615L162.001 267.12L159.339 331.935H141.751L143.904 268.5L131.041 229.163L133.021 334.448L115.246 334.71L113.379 235.748C113.296 232.995 112.396 226.793 112.734 224.063L114.264 211.628Z" fill="#263238"/>
<path d="M135.466 229.966C134.922 230 134.375 229.967 133.839 229.868C132.834 229.748 131.461 229.538 129.954 229.238C128.446 228.938 127.096 228.593 126.121 228.316C125.6 228.201 125.096 228.02 124.621 227.776C124.621 227.663 127.066 228.248 130.066 228.856C133.066 229.463 135.481 229.853 135.466 229.966Z" fill="#455A64"/>
<path d="M159.159 328.381C159.159 328.486 155.176 328.576 150.264 328.576C145.351 328.576 141.361 328.486 141.361 328.381C141.361 328.276 145.344 328.186 150.264 328.186C155.184 328.186 159.159 328.268 159.159 328.381Z" fill="#455A64"/>
<path d="M132.862 331.711C132.862 331.823 128.992 331.906 124.222 331.906C119.452 331.906 115.59 331.823 115.59 331.711C115.59 331.598 119.46 331.516 124.222 331.516C128.985 331.516 132.862 331.606 132.862 331.711Z" fill="#455A64"/>
<path d="M130.568 331.44C130.463 331.44 129.998 308.437 129.525 280.065C129.053 251.692 128.775 228.675 128.873 228.675C128.97 228.675 129.45 251.67 129.915 280.057C130.38 308.445 130.68 331.44 130.568 331.44Z" fill="#455A64"/>
<path d="M156.795 328.38C156.787 328.278 156.787 328.175 156.795 328.073V327.173C156.795 326.363 156.855 325.2 156.9 323.723C157.005 320.723 157.155 316.365 157.343 311.025C157.748 300.285 158.318 285.48 158.94 269.138C158.94 268.98 158.94 268.83 158.94 268.695V268.748C155.003 252.998 151.44 238.703 148.853 228.36L145.853 216.128C145.508 214.695 145.245 213.578 145.058 212.798C144.968 212.43 144.908 212.145 144.855 211.928C144.826 211.83 144.808 211.73 144.803 211.628C144.842 211.722 144.872 211.82 144.893 211.92C144.953 212.13 145.028 212.415 145.133 212.775C145.335 213.525 145.628 214.665 146.003 216.09C146.753 218.985 147.81 223.155 149.13 228.293C151.74 238.628 155.34 252.885 159.33 268.658V268.71C159.33 268.845 159.33 269.003 159.33 269.153C158.663 285.495 158.055 300.293 157.613 311.033C157.38 316.38 157.185 320.708 157.05 323.723C156.975 325.223 156.915 326.363 156.878 327.173C156.878 327.555 156.833 327.855 156.825 328.073C156.826 328.176 156.816 328.279 156.795 328.38Z" fill="#455A64"/>
<path d="M151.058 267.375C149.795 267.79 148.493 268.079 147.173 268.237C145.553 268.515 144.173 268.71 143.55 268.74V268.59C143.753 268.65 143.858 268.688 143.858 268.718C143.858 268.748 143.73 268.718 143.52 268.718H143.07L143.52 268.582C144.105 268.41 145.485 268.125 147.105 267.832C148.405 267.551 149.728 267.397 151.058 267.375Z" fill="#455A64"/>
<path d="M150.75 269.528C149.58 269.581 148.408 269.529 147.247 269.37C146.076 269.346 144.909 269.218 143.76 268.988C146.104 268.796 148.463 268.979 150.75 269.528Z" fill="#455A64"/>
<path opacity="0.2" d="M114.121 212.82C114.515 213.326 115.011 213.743 115.577 214.044C116.143 214.345 116.766 214.524 117.406 214.568C118.746 214.726 120.101 214.701 121.434 214.493C130.021 213.54 139.119 212.663 147.526 210.615C136.644 211.223 125.146 211.02 114.264 211.628L114.151 212.558" fill="black"/>
<g opacity="0.2">
<path d="M125.334 228.157L131.469 251.962L131.041 229.162L125.334 228.157Z" fill="black"/>
</g>
</svg>
