<svg width="55" height="54" viewBox="0 0 55 54" fill="none" xmlns="http://www.w3.org/2000/svg">
<g filter="url(#filter0_dd_1_14)">
<path d="M27.9796 26.3416C27.6955 26.4416 27.2277 26.4416 26.9436 26.3416C24.5209 25.5166 19.1074 22.0749 19.1074 16.2416C19.1074 13.6666 21.1876 11.5833 23.7523 11.5833C25.2728 11.5833 26.6178 12.3166 27.4616 13.4499C28.3054 12.3166 29.6587 11.5833 31.1708 11.5833C33.7356 11.5833 35.8158 13.6666 35.8158 16.2416C35.8158 22.0749 30.4023 25.5166 27.9796 26.3416Z" fill="#FF0202"/>
<path d="M27.9796 26.3416C27.6955 26.4416 27.2277 26.4416 26.9436 26.3416C24.5209 25.5166 19.1074 22.0749 19.1074 16.2416C19.1074 13.6666 21.1876 11.5833 23.7523 11.5833C25.2728 11.5833 26.6178 12.3166 27.4616 13.4499C28.3054 12.3166 29.6587 11.5833 31.1708 11.5833C33.7356 11.5833 35.8158 13.6666 35.8158 16.2416C35.8158 22.0749 30.4023 25.5166 27.9796 26.3416Z" stroke="#FF0202" stroke-width="2" stroke-linecap="round" stroke-linejoin="round"/>
</g>
<defs>
<filter id="filter0_dd_1_14" x="0.107428" y="0.583252" width="54.7083" height="52.8333" filterUnits="userSpaceOnUse" color-interpolation-filters="sRGB">
<feFlood flood-opacity="0" result="BackgroundImageFix"/>
<feColorMatrix in="SourceAlpha" type="matrix" values="0 0 0 0 0 0 0 0 0 0 0 0 0 0 0 0 0 0 127 0" result="hardAlpha"/>
<feOffset dy="4"/>
<feGaussianBlur stdDeviation="2"/>
<feColorMatrix type="matrix" values="0 0 0 0 0 0 0 0 0 0 0 0 0 0 0 0 0 0 0.3 0"/>
<feBlend mode="normal" in2="BackgroundImageFix" result="effect1_dropShadow_1_14"/>
<feColorMatrix in="SourceAlpha" type="matrix" values="0 0 0 0 0 0 0 0 0 0 0 0 0 0 0 0 0 0 127 0" result="hardAlpha"/>
<feMorphology radius="6" operator="dilate" in="SourceAlpha" result="effect2_dropShadow_1_14"/>
<feOffset dy="8"/>
<feGaussianBlur stdDeviation="6"/>
<feColorMatrix type="matrix" values="0 0 0 0 0 0 0 0 0 0 0 0 0 0 0 0 0 0 0.15 0"/>
<feBlend mode="normal" in2="effect1_dropShadow_1_14" result="effect2_dropShadow_1_14"/>
<feBlend mode="normal" in="SourceGraphic" in2="effect2_dropShadow_1_14" result="shape"/>
</filter>
</defs>
</svg>
