<svg width="25" height="24" viewBox="0 0 25 24" fill="none" xmlns="http://www.w3.org/2000/svg">
<path d="M7.52493 2H5.52728C3.22473 2 2.01562 3.20911 2.01562 5.50117V7.49883C2.01562 9.79089 3.22473 11 5.51677 11H7.51441C9.80645 11 11.0156 9.79089 11.0156 7.49883V5.50117C11.0261 3.20911 9.81697 2 7.52493 2Z" fill="#E7AC2D"/>
<path d="M18.4988 2H16.5012C14.2091 2 13 3.20911 13 5.50117V7.49883C13 9.79089 14.2091 11 16.5012 11H18.4988C20.7909 11 22 9.79089 22 7.49883V5.50117C22 3.20911 20.7909 2 18.4988 2Z" fill="#E7AC2D"/>
<path d="M18.4988 13H16.5012C14.2091 13 13 14.2091 13 16.5012V18.4988C13 20.7909 14.2091 22 16.5012 22H18.4988C20.7909 22 22 20.7909 22 18.4988V16.5012C22 14.2091 20.7909 13 18.4988 13Z" fill="#E7AC2D"/>
<path d="M7.5093 13H5.51166C3.2091 13 2 14.2077 2 16.4971V18.4924C2 20.7923 3.2091 22 5.50114 22H7.49879C9.79083 22 10.9999 20.7923 10.9999 18.5029V16.5076C11.0104 14.2077 9.80134 13 7.5093 13Z" fill="#E7AC2D"/>
</svg>
